<svg width="24" height="24" fill="none" xmlns="http://www.w3.org/2000/svg"><path d="M4.127 17.752c.119.958.89 1.712 1.85 1.811 1.935.2 3.951.437 6.023.437 2.072 0 4.088-.238 6.024-.437a2.083 2.083 0 001.849-1.811c.21-1.69.443-3.448.443-5.252 0-1.804-.234-3.562-.443-5.252a2.083 2.083 0 00-1.85-1.811C16.089 5.237 14.073 5 12 5c-2.072 0-4.088.238-6.024.437-.96.098-1.73.853-1.849 1.811-.21 1.69-.443 3.448-.443 5.252 0 1.804.234 3.562.443 5.252z" stroke="#243138" stroke-width="2" stroke-linejoin="round"/><path d="M10.762 12.705l-.62.786.62-.786zm-7.285-4.47l6.665 5.256 1.239-1.57-6.666-5.256-1.238 1.57zm15.808-1.57l-6.666 5.255 1.238 1.57 6.666-5.255-1.238-1.57zm-9.143 6.826a3 3 0 003.715 0l-1.238-1.57a1 1 0 01-1.238 0l-1.239 1.57z" fill="#243138"/></svg>