<svg width="24" height="24" fill="none" xmlns="http://www.w3.org/2000/svg"><path d="M12.594 21.501l.66.752-.66-.752zm-1.188 0l.66-.752-.66.752zM18 10.291c0 2.272-1.05 4.5-2.387 6.4-1.327 1.886-2.865 3.345-3.678 4.058l1.318 1.504c.877-.768 2.542-2.346 3.996-4.412C18.692 15.79 20 13.154 20 10.291h-2zM12.066 20.75c-.814-.713-2.351-2.172-3.679-4.058C7.05 14.79 6 12.563 6 10.29H4c0 2.863 1.308 5.499 2.752 7.55 1.453 2.066 3.118 3.644 3.995 4.412l1.319-1.504zM6 10.292C6 6.777 8.724 4 12 4V2c-4.456 0-8 3.751-8 8.291h2zM12 4c3.276 0 6 2.778 6 6.291h2C20 5.751 16.456 2 12 2v2zm-.065 16.75a.104.104 0 01.065-.022c.03 0 .055.012.066.021l-1.319 1.504a1.891 1.891 0 002.506 0l-1.318-1.504z" fill="#243138"/><path d="M12 13a3 3 0 100-6 3 3 0 000 6z" fill="#fff" stroke="#243138" stroke-width="2" stroke-linecap="round" stroke-linejoin="round"/></svg>