<svg width="24" height="24" fill="none" xmlns="http://www.w3.org/2000/svg"><path d="M6.387 7.239c.558 1.44 1.265 2.798 2.197 4.016.124.163.28.307.444.424.24.172.466.112.564-.175.103-.3.197-.91.203-1.225a27.646 27.646 0 00-.045-2.19c-.027-.527-.207-.99-.95-1.13-.23-.043-.25-.24-.103-.437.307-.41.734-.475 1.198-.501.751-.043 1.505-.008 2.258 0 .306.003.615.028.916.097.394.09.605.378.67.78.034.207.05.42.046.63-.02.9-.061 1.8-.07 2.699-.005.353.02.715.092 1.06.101.478.414.599.733.252.406-.44.764-.934 1.1-1.437.61-.915 1.066-1.918 1.458-2.953.203-.534.358-.65.908-.651 1.034-.003 2.067-.004 3.101 0 .183 0 .375.019.548.076.28.094.392.333.327.637-.154.71-.522 1.315-.916 1.897-.633.932-1.295 1.842-1.943 2.764a3.517 3.517 0 00-.223.37c-.242.457-.225.713.128 1.093.562.606 1.164 1.172 1.708 1.795.396.452.762.943 1.075 1.46.397.654.152 1.27-.589 1.38-.466.068-2.742 0-2.86 0a2.178 2.178 0 01-1.58-.66c-.48-.483-.917-1.013-1.378-1.517a3.915 3.915 0 00-.448-.425c-.377-.3-.747-.234-.924.23-.15.397-.28 1.44-.287 1.53-.031.466-.315.763-.815.792-1.444.082-2.843-.086-4.146-.815-1.105-.618-1.987-1.492-2.751-2.51-1.214-1.618-2.172-3.397-3.048-5.228-.044-.093-.93-2.063-.955-2.157-.079-.311-.005-.609.247-.711.157-.064 3.08 0 3.129.002.466.027.784.232.98.738z" stroke="#243138" stroke-width="2"/></svg>