<svg width="824" height="346" fill="none" xmlns="http://www.w3.org/2000/svg"><path d="M399.056 295.045c-14.139 0-27.129 3.439-41.257 3.439h-13.498c-5.693 0-8.993-3.144-14.008-5.094-10.626-4.132-14.231-8.112-20.883-16.427-1.785-2.231.255 10.671.255 12.607 0 2.619 1.649 4.601-.574 3.12-1.924-1.284-2.742-3.725-4.584-5.158-1.844-1.434-1.592-3.421-1.719-.254-.169 4.232-4.541-1.358-5.73-2.547-.966-.966-3.786-5.272-2.547-1.401.674 2.105 2.563 8.333 1.337 6.494-4.52-6.78-3.374 3.714-3.374 6.94 0 3.869-8.846 3.891-12.352 4.012-4.626.159-13.111 1.479-17.446-.255-2.87-1.148-7.791-3.184-10.887-3.184-6.943 0 .861-8.213 2.228-10.823 1.633-3.117 3.519-6.455.637-1.146-1.703 3.137-4.811 5.408-6.876 8.277-2.497 3.468-5.333 10.407-5.73 1.655-.112-2.455-.301-15.758-2.038-9.678-1.098 3.843-.301 12.399-3.438 15.536-1.777 1.777-.914-5.011-2.037-7.259-.857-1.713-3.43-4.457-5.603-4.457-1.563 0 1.655 11.075 1.655 13.053 0 3.284-12.242 1.719-14.899 1.719h-42.976c-2.163 0-22.38-6.257-22.412-6.176-1.307 3.268-11.986 3.884-15.408 3.884-1.293 0-3.895.838-4.903.636-1.319-.263-1.606-5.825-3.692-4.966-8.64 3.557-18.225.068-27.378 2.611-3.772 1.047-8.1 3.355-11.652 3.947-5.475.913-10.685-1.346-15.98-2.228m427.476 4.584c10.835 1.769 21.535 2.576 32.344 4.839 11.315 2.368 24.836 1.376 35.273-3.693 7.047-3.423 16.073-.704 22.921-4.33 2.539-1.344 1.689-5.307 2.355-7.64.325-1.136 9.709 4.156 11.143 5.094 8.108 5.301 16.817 3.737 25.213 8.659 4.65 2.726-4.702-20.79 3.947-5.221.686 1.233 2.757 1.648 3.693.445.521-.67.646-5.68 1.273-5.411 3.308 1.417 1.49 9.456 5.731 4.966 4.154-4.399 4.565-.338 2.292 3.884-2.503 4.647 5.574 2.992 8.277 2.992 10.511 0 20.649 1.146 31.198 1.146 4.531 0 8.661-1.146 13.179-1.146 3.37 0-2.985-9.466-4.011-11.46-1.443-2.807-8.186-8.023-5.03-8.023 3.884 0 7.561 4.915 9.614 7.768.356.493 2.296 3.565 2.865 3.565.996 0 .556-3.959.637-3.756.721 1.801.975 3.09 1.083 5.03.157 2.838 5.729-3.514 6.621-4.075 2.43-1.53.187 2.934-.254 3.502-1.854 2.383 1.971 1.125 2.674 2.355.641 1.123-.253 2.749.382 3.948.898 1.698 3.101.637 4.074 2.292 3.963 6.736 16.632-1.391 22.03 3.438 6.616 5.92 20.595 5.856 28.142 2.292 9.949-4.698 15.657-4.501 25.722-1.146" stroke="#243138" stroke-width="2" stroke-linecap="round"/><path fill-rule="evenodd" clip-rule="evenodd" d="M422.969 194.275c-10.947 1.605-34.24 46.588-37.533 77.906-1.646 15.516-7.819 51.732 51.649 47.658" fill="#fff"/><path d="M422.969 194.275c-10.947 1.605-34.24 46.588-37.533 77.906-1.646 15.516-7.819 51.732 51.649 47.658" stroke="#243138" stroke-width="3" stroke-miterlimit="10" stroke-linecap="round" stroke-linejoin="round"/><path fill-rule="evenodd" clip-rule="evenodd" d="M467.582 320.538c3.786.247 9.548 1.07 13.951 1.194 28.068.781 31.237-29.92 30.249-46.793-1.482-25.681-6.256-41.608-11.812-52.226-6.461-12.346-13.91-17.491-18.355-22.223-15.474-16.462-47.41-10.124-61.855-4.322" fill="#fff"/><path d="M467.582 320.538c3.786.247 9.548 1.07 13.951 1.194 28.068.781 31.237-29.92 30.249-46.793-1.482-25.681-6.256-41.608-11.812-52.226-6.461-12.346-13.91-17.491-18.355-22.223-15.474-16.462-47.41-10.124-61.855-4.322" stroke="#243138" stroke-width="3" stroke-miterlimit="10" stroke-linecap="round" stroke-linejoin="round"/><path d="M431.5 317L417 202.5l19.5 5.5L482 318l-50.5-1z" fill="#fff"/><path fill-rule="evenodd" clip-rule="evenodd" d="M426.139 149.54c4.691-3.045 10.906-14.98 15.021-14.527 14.24 1.481 5.145 11.893 7.49 13.663 5.433 4.074 18.685 4.403 25.393 6.255 8.437 2.346 6.626-10.947 10.371-11.77 15.886-3.457 5.926 19.014 11.112 21.318 4.568 2.058 19.548 7.449 16.173 26.998-.987 5.844-2.88 7.86-6.255 12.758-13.087 18.972-84.285-1.523-95.644-16.586-7.366-9.753-10.947-24.034-5.103-32.471 3.663-5.309 12.882-11.811 21.442-5.638z" fill="#fff"/><path d="M426.139 149.54c4.691-3.045 10.906-14.98 15.021-14.527 14.24 1.481 5.145 11.893 7.49 13.663 5.433 4.074 18.685 4.403 25.393 6.255 8.437 2.346 6.626-10.947 10.371-11.77 15.886-3.457 5.926 19.014 11.112 21.318 4.568 2.058 19.548 7.449 16.173 26.998-.987 5.844-2.88 7.86-6.255 12.758-13.087 18.972-84.285-1.523-95.644-16.586-7.366-9.753-10.947-24.034-5.103-32.471 3.663-5.309 12.882-11.811 21.442-5.638z" stroke="#243138" stroke-width="3" stroke-miterlimit="10" stroke-linecap="round" stroke-linejoin="round"/><path d="M512.605 181.805c-.206.042 1.358-.74 1.605-.823a32.743 32.743 0 013.415-1.029c3.375-.782 7.285-1.275 10.742-.493m-16.504 15.062c.412-.987 8.231-.411 9.425-.247m-13.211 8.396c.494-.988 6.544 2.593 7.984 3.827m-108.154-54.612c1.153-3.128-12.716-7.243-16.544-6.832m10.617 14.692c-.041.042-.165.042-.206 0-4.362-.246-8.848-.164-13.17.824m15.516 13.992c-1.152-1.564-12.429 4.075-13.869 5.309" stroke="#243138" stroke-width="4" stroke-miterlimit="10" stroke-linecap="round" stroke-linejoin="round"/><path fill-rule="evenodd" clip-rule="evenodd" d="M450.872 149.54c-.164-.123.041.124.041.206.329 1.646-.288 3.457-.494 5.021-.288 2.017-3.333 8.56-.082 10.577 3.004 1.893 3.539-6.256 6.667-5.145 3.087 1.07.617 7.202 4.609 7.737 2.799.371 1.811-6.255 3.499-5.72 2.469.823 2.716 8.848 7.325 7.202 2.469-.905 2.264-4.568 2.469-6.379 1.153-11.112-6.749-11.441-21.03-12.388" fill="#243138"/><path fill-rule="evenodd" clip-rule="evenodd" d="M450.707 149.911c-.041 0-.041-.042-.082-.042a.126.126 0 00.082.042zm-.164-.042c.123.577.082 1.235.041 1.852-.124 1.029-.412 2.058-.535 2.964-.206 1.44-1.729 5.02-1.564 7.778.082 1.358.576 2.51 1.687 3.21.865.535 1.605.411 2.223-.082.946-.782 1.687-2.593 2.551-3.91.535-.823 1.112-1.441 1.976-1.153 1.152.412 1.358 1.606 1.564 2.881.205 1.4.37 2.922 1.193 3.869.453.535 1.029.905 1.934 1.029.741.082 1.276-.206 1.688-.7.741-.946.946-2.84 1.276-4.115.082-.288.164-.535.246-.741.042-.124.124-.206.206-.165.7.247 1.153 1.153 1.646 2.223.7 1.481 1.359 3.21 2.387 4.239.865.864 1.976 1.316 3.54.74 1.111-.411 1.728-1.275 2.14-2.346.494-1.44.494-3.251.617-4.403.576-5.515-1.029-8.437-4.403-10.165-3.622-1.811-9.425-2.181-16.997-2.675a.447.447 0 00-.453.37c0 .247.165.412.37.453 7.449.494 13.129.782 16.668 2.592 3.087 1.564 4.486 4.322 3.951 9.343-.124 1.07-.082 2.798-.576 4.197-.288.823-.782 1.523-1.605 1.811-1.194.412-2.017.124-2.675-.535-1.153-1.152-1.811-3.251-2.593-4.733-.494-.946-1.07-1.687-1.77-1.934-.494-.164-.823 0-1.111.412-.494.699-.617 2.592-1.07 3.951-.247.781-.617 1.44-1.399 1.316-.659-.082-1.111-.329-1.441-.74-.864-1.029-.823-2.799-1.152-4.239-.288-1.276-.782-2.305-1.975-2.716-.865-.289-1.564-.042-2.14.493-.947.906-1.688 2.675-2.47 3.91-.535.782-1.111 1.317-1.934.782-1.194-.741-1.399-2.14-1.276-3.622.206-2.51 1.358-5.35 1.523-6.543.123-.947.411-1.976.535-3.004.082-.741.082-1.441-.041-2.141 0 0 0-.041-.041-.082 0-.123-.042-.288-.165-.37-.247-.165-.412-.083-.453-.083-.123.042-.329.206-.247.535.041.083.083.206.124.247z" fill="#243138"/><path d="M439.801 290.701c4.486.37-32.224-2.51-36.998 0-8.272 4.362 32.389 2.798 37.822 6.05.493.288-2.47.823-2.717.864-4.321.782-22.223 3.292-21.976 5.185.452 3.128 22.47 1.523 26.874 1.441m39.879-14.404c-.576.082 1.153-.124 1.77-.124a25.485 25.485 0 013.539 0c2.387.124 6.503.371 8.355 1.688 1.975 1.44-13.87 4.403-13.746 5.802.123 1.482 13.787.824 14.61 3.828.946 3.663-9.63 3.416-10.577 3.745" stroke="#243138" stroke-width="4" stroke-miterlimit="10" stroke-linecap="round" stroke-linejoin="round"/><path fill-rule="evenodd" clip-rule="evenodd" d="M437.538 319.756c8.478-.576 12.594-6.749 15.639-10.865 6.873-9.259 13.17-22.182 10.289-33.911-1.358-5.556-15.845-13.17-15.269-5.721.289 3.416 9.96-5.103 4.363 7.861-1.441 3.375-6.708 2.593-8.602 2.222-14.609-2.839-2.88-20.495 8.602-19.877 26.174 1.44 28.232 48.356 15.227 60.332" fill="#fff"/><path fill-rule="evenodd" clip-rule="evenodd" d="M437 321c3.128-.206 6.341-1.573 8.481-2.89 3.869-2.387 6.379-5.967 8.396-8.725 4.156-5.597 8.107-12.552 10-19.754 1.276-4.938 1.646-10 .453-14.857-.782-3.169-5.474-6.996-9.63-8.601-2.758-1.07-5.227-1.07-6.462.206-.576.617-.946 1.605-.823 2.963.124 1.605 1.482 1.852 3.252 1.481.617-.123 1.317-.329 1.934-.37.37-.041.741-.041.864.288.288.906-.123 2.634-1.605 6.05-.453 1.029-1.358 1.564-2.346 1.811-1.934.494-4.239.123-5.35-.083-2.51-.494-4.198-1.399-5.144-2.675-1.153-1.522-1.235-3.457-.576-5.473 1.646-5.103 7.942-10.454 14.157-10.124 10.124.535 16.462 8.189 19.713 17.861 4.897 14.651 1.605 34.611-6.05 41.648-.329.289.7.206 1.029.577.288.329 1.564.905 1.893.535 6.544-7.326 9.795-28.027 4.692-43.295-3.457-10.33-10.33-18.396-21.154-18.973-6.914-.37-13.951 5.556-15.803 11.236-.823 2.551-.659 5.021.864 6.996 1.152 1.482 3.128 2.716 6.132 3.292 1.276.247 3.91.659 6.091.042 1.482-.412 2.799-1.235 3.457-2.758 1.729-3.992 2.017-6.132 1.646-7.202-.288-.864-.864-1.276-1.646-1.399-.658-.124-1.523.041-2.387.206-.453.082-.905.205-1.276.247-.164.041-.329.041-.452.041-.083 0-.165-.041-.165-.124-.206-2.757 2.305-2.592 5.021-1.522 3.663 1.44 7.943 4.691 8.601 7.49 1.111 4.609.782 9.383-.452 14.075-1.852 6.996-5.68 13.745-9.713 19.178-1.646 2.222-3.581 5.021-6.379 7.202-2.222 1.728-5.6 2.653-9.263 2.9-.453.041-1.542.547-1.5 1-.083.453 1.006 1.541 1.5 1.5z" fill="#243138" stroke="#243138" stroke-width=".5"/><path fill-rule="evenodd" clip-rule="evenodd" d="M428.731 278.643a.664.664 0 00-.37.123c-2.182 1.482-2.099 2.675-.124 1.893.041-.041.124-.041.165-.082a6.436 6.436 0 001.07-.535c1.399-.782 5.432-3.169 6.626-3.827.411-.206.535-.7.329-1.111-.206-.412-.7-.536-1.111-.33-1.194.7-5.186 3.087-6.585 3.869zm24.075-10.783c17.738-5.72 46.258 3.622 68.4 3.457 11.441-.082 21.235-2.675 27.12-10.865.289-.37.165-.864-.164-1.152a.885.885 0 00-1.152.164c-5.598 7.738-14.94 10.083-25.804 10.166-22.306.164-51.032-9.137-68.893-3.375-.453.123-.659.617-.536 1.029.124.494.577.741 1.029.576z" fill="#243138"/><path fill-rule="evenodd" clip-rule="evenodd" d="M547.833 259.547c.041 0-.124.247-.165.288-1.687 1.646-6.009 1.728-8.149 1.893-4.568.37-16.708-1.193-14.815-8.396 1.769-6.708 11.276-4.28 15.227-1.44 1.481 1.07 2.84 2.305 4.198 3.498.905.782 2.839 3.663 2.51 2.511-.617-2.47-20.125-20.907-5.885-23.253 9.013-1.481 10.865 10.906 9.424 17.121-.082.246-.288 1.769-.699 1.81-.535.042-.371-7.243-.329-7.696.329-5.926 2.633-19.713 11.646-17.449 9.836 2.469 2.099 15.515-1.646 19.631-.288.329-5.062 5.267-5.185 4.938-1.194-3.21 16.873-20.124 23.046-10.782 5.597 8.436-9.218 14.774-15.186 15.721-.453.082-3.58.617-3.745-.165-.123-.617 2.181-1.152 2.511-1.234 4.897-1.317 22.799-1.729 19.137 7.984-3.375 8.93-24.323 4.815-24.076-.782.041-1.4 4.321 1.81 4.527 2.016 2.84 2.552 9.836 11.318 4.568 14.734-6.132 3.992-16.009-11.524-12.47-15.063.083-.082.371.741.371.741 1.358 4.609.288 17.326-6.75 16.75-7.819-.659-1.646-14.322 1.4-17.326" fill="#fff"/><path fill-rule="evenodd" clip-rule="evenodd" d="M561.496 244.361c-2.428 1.852-4.568 3.95-5.844 5.72-.576.782-.987 1.482-1.152 2.058 0 .041-.041.082-.041.123 1.358-1.193 4.239-4.156 4.445-4.444.741-.823 1.687-2.058 2.592-3.457zm-11.646-1.07a37.585 37.585 0 00-.247 2.675c-.041.329-.124 4.321.041 6.379.082-.288.164-.577.164-.659.536-2.305.618-5.432.042-8.395zm16.544 13.046c-2.346.082-4.404.329-5.638.658-.165.041-.865.206-1.482.453-.206.082-.453.247-.617.329h.041c.329.082.782.082 1.235.041a14.355 14.355 0 001.893-.247c1.193-.205 2.839-.617 4.568-1.234zm-18.973 3.292c0 .041.001.041.042.082a.318.318 0 00.164.165c-.123-.041-.164-.123-.206-.247zm.289.288c.082 0 .164.041.288-.041a.254.254 0 01-.288.041zm8.395 3.951c0 1.07.864 2.017 2.181 2.881 1.029.658 2.346 1.193 3.787 1.646-.782-.947-1.564-1.77-2.14-2.264-.083-.082-1.112-.864-2.141-1.481a14.476 14.476 0 00-1.358-.7.97.97 0 00-.329-.082zm-3.827 2.387c-.329.617-.329 1.482-.165 2.428.124.782.371 1.605.7 2.469.041-1.893-.124-3.621-.494-4.815l-.041-.082zm-2.675-26.586c-.206-.535-.494-1.029-.741-1.523-1.646-2.798-4.28-4.568-8.149-3.951-2.551.412-4.074 1.359-4.856 2.593-.658 1.029-.823 2.305-.576 3.745.699 3.91 4.403 8.89 7.367 12.594.37.452.699.864 1.028 1.275-.576-.493-1.152-1.028-1.728-1.522a18.164 18.164 0 00-1.77-1.358c-2.428-1.729-6.831-3.293-10.371-2.881-2.551.288-4.691 1.605-5.473 4.527-.865 3.21.864 5.391 3.539 6.79 3.58 1.893 8.931 2.346 11.688 2.099 1.276-.082 3.333-.164 5.103-.576 1.317-.288 2.552-.741 3.293-1.44a2.91 2.91 0 00.246-.371c.165-.329-.164-.576-.205-.576-.083-.041-.165-.041-.33 0-.123.041-.164.123-.205.247l-.083.123c-.658.618-1.687.988-2.839 1.235-1.77.37-3.745.453-5.021.535-2.634.206-7.778-.206-11.235-2.016-2.346-1.235-3.869-3.087-3.128-5.844.658-2.552 2.551-3.663 4.774-3.951 3.374-.412 7.531 1.111 9.795 2.716.576.411 1.152.864 1.728 1.317.823.699 1.646 1.44 2.469 2.14.7.617 2.017 2.469 2.47 2.757.205.124.37.124.452.083.124-.042.412-.247.288-.741-.164-.7-1.769-2.675-3.786-5.145-2.881-3.621-6.543-8.436-7.202-12.223-.206-1.193-.123-2.263.453-3.127.699-1.07 2.058-1.852 4.321-2.223 3.457-.576 5.803 1.029 7.284 3.54.453.823.865 1.687 1.153 2.634a48.94 48.94 0 00-.535 4.65c-.041.37-.124 5.227.123 7.038.041.452.165.781.288.905.124.165.288.206.412.165.206 0 .453-.165.576-.494.247-.494.412-1.441.453-1.647.658-2.88.617-7.119-.494-10.7.535-2.963 1.44-6.296 3.004-8.807 1.688-2.675 4.075-4.403 7.573-3.498 3.786.947 4.774 3.58 4.403 6.626-.288 2.305-1.358 4.856-2.593 7.078-3.168 2.141-5.967 4.816-7.572 6.997-.617.864-1.07 1.646-1.276 2.263-.164.535-.206.988-.082 1.317.082.206.247.371.576.247.123-.041.329-.206.659-.452 1.316-1.153 4.403-4.322 4.65-4.61 1.07-1.152 2.428-3.045 3.663-5.226 1.07-.741 2.222-1.359 3.333-1.894 3.951-1.852 7.943-2.222 10.207 1.235 2.181 3.292 1.029 6.256-1.441 8.643-1.811 1.769-4.362 3.251-6.831 4.362-3.21-.082-6.256.247-7.902.7-.288.082-1.688.411-2.346.823-.37.247-.535.576-.494.905.082.329.412.617.988.7 1.029.164 2.881-.165 3.21-.206 1.728-.288 4.157-.988 6.667-2.058 2.346.082 4.774.371 6.832 1.07 2.057.7 3.663 1.77 4.239 3.416.329.988.288 2.181-.247 3.663-1.523 4.033-6.708 5.226-11.812 4.897a23 23 0 01-4.156-.617c-1.07-1.399-2.14-2.552-2.922-3.251-.165-.165-2.511-1.893-3.828-2.346-.864-.288-1.358-.041-1.399.617-.041 1.317.906 2.593 2.593 3.663 1.317.823 3.086 1.523 5.062 2.017 1.152 1.522 2.222 3.251 2.84 4.979.823 2.264.781 4.445-1.235 5.762-1.235.823-2.675.7-4.074.082-1.811-.823-3.581-2.469-5.062-4.444a20.327 20.327 0 01-1.935-3.087c.206-2.593.041-5.062-.411-6.626 0-.041-.247-.617-.371-.823-.247-.37-.576-.247-.699-.124-.782.782-1.029 2.099-.782 3.663.205 1.235.699 2.675 1.399 4.075-.165 1.81-.535 3.621-1.152 5.226-1.029 2.675-2.799 4.651-5.515 4.404-3.087-.247-3.704-2.758-3.292-5.721.576-4.156 3.251-9.26 4.979-10.947a.397.397 0 000-.576.397.397 0 00-.576 0c-1.77 1.77-4.568 7.037-5.185 11.4-.494 3.457.411 6.338 4.033 6.626 3.128.247 5.185-1.935 6.379-4.939a20.366 20.366 0 001.07-4.28c.453.741.905 1.482 1.44 2.14 1.564 2.058 3.457 3.828 5.391 4.692 1.688.741 3.375.823 4.857-.124 2.387-1.564 2.51-4.074 1.564-6.708-.535-1.523-1.441-3.045-2.387-4.445a30.12 30.12 0 003.374.453c5.474.329 11.03-1.111 12.635-5.432.617-1.647.658-3.046.247-4.198-.659-1.893-2.428-3.128-4.774-3.91-1.646-.576-3.581-.864-5.515-1.029 2.099-1.029 4.157-2.346 5.679-3.868 2.758-2.675 3.992-6.009 1.523-9.713-2.51-3.786-6.873-3.539-11.235-1.523-.741.33-1.482.741-2.222 1.194.987-1.975 1.769-4.116 2.016-6.091.453-3.457-.699-6.461-5.021-7.531-3.909-.988-6.626.905-8.478 3.868-1.358 2.387-2.263 5.227-2.839 7.902z" fill="#243138" stroke="#243138"/><path fill-rule="evenodd" clip-rule="evenodd" d="M550.178 256.008c.124.082-.288 0-.411.082-1.4.864-1.935 2.84-2.058 4.362-.165 2.428 1.07 5.186 3.951 4.898 10.906-1.029 2.757-14.94-2.634-9.507" fill="#FEC71A"/><path fill-rule="evenodd" clip-rule="evenodd" d="M549.85 256.254s0 .042 0 0zm.082.206c-.494.329-.823.782-1.111 1.317-.453.864-.659 1.852-.7 2.716-.082 1.112.165 2.305.741 3.21.576.865 1.481 1.4 2.716 1.276 2.058-.205 3.375-.864 4.157-1.769.987-1.194 1.029-2.84.494-4.28-.988-2.717-3.91-5.062-6.421-3.211h.124a.438.438 0 01.494.042c.164.164.164.288.164.411 0 .124-.082.247-.206.329-.041.042-.082.042-.164.042-.082-.083-.247-.083-.288-.083zm-1.029-.206c-.329.33-.576.7-.823 1.153-.494.946-.741 2.099-.782 3.045-.082 1.317.206 2.675.905 3.704.741 1.07 1.893 1.77 3.498 1.646 2.346-.205 3.828-1.028 4.733-2.057 1.194-1.441 1.276-3.334.659-5.104-1.235-3.457-5.227-6.173-8.355-3.045a.399.399 0 000 .576c0 .041.083.082.165.082z" fill="#FEC71A"/><path fill-rule="evenodd" clip-rule="evenodd" d="M427.66 229.504c.041.041.535 5.515.453 5.515-5.515-1.523-8.149-4.075-8.519-6.297-.329-2.14 3.992-2.428 6.873-2.881 4.65-.741 36.545-.041 37.039 3.128.617 3.868-30.537.082-35.846.535-.946.082 3.704 1.07 4.445 1.975 2.84 3.334 12.017 4.239 29.673 3.293 2.14-.124 13.21-1.276 13.375 1.564.37 5.597-17.573-.083-17.326 2.551.329 3.539 20.742 4.568 22.635 6.544 1.687 1.769-28.932 1.481-30.413 1.358-57.329-3.745-23.87-8.272-4.857-5.721 7.737 1.029-17.285-5.885-17.038-6.091" fill="#243138"/><path d="M427.66 229.504c.041.041.535 5.515.453 5.515-5.515-1.523-8.149-4.075-8.519-6.297-.329-2.14 3.992-2.428 6.873-2.881 4.65-.741 36.545-.041 37.039 3.128.617 3.868-30.537.082-35.846.535zm0 0c-.946.082 3.704 1.07 4.445 1.975 2.84 3.334 12.017 4.239 29.673 3.293 2.14-.124 13.21-1.276 13.375 1.564.37 5.597-17.573-.083-17.326 2.551.329 3.539 20.742 4.568 22.635 6.544 1.687 1.769-28.932 1.481-30.413 1.358-57.329-3.745-23.87-8.272-4.857-5.721 7.737 1.029-17.285-5.885-17.038-6.091" stroke="#243138" stroke-miterlimit="10" stroke-linecap="round" stroke-linejoin="round"/><path d="M378.588 63.747c9.091-6.635 23.404-14.303 34.142-5.951 2.496 1.941 4.42 3.738 6.025 6.546 3.411 5.969 3.142 1.767 4.314-2.53 1.841-6.749 13.688-10.115 19.786-10.115 2.709 0 6.052-.515 8.703.074m110.459 9.298c5.681-3.326 10.957-5.69 17.405-2.975 3.372 1.42 5.441 2.944 7.811 6.025 1.7 2.21 1.443-1.444 2.38-2.38 3.033-3.034 7.279-2.193 10.562-4.017 3.835-2.13 6.173 4.39 7.364 2.008m0 32.134c2.359 0 13.066-1.514 15.323.743 2.27 2.27 2.522 6.699 6.099 4.91 3.455-1.727 6.234-1.637 10.042-1.637 3.903 0 6.358 5.697 7.364 2.678" stroke="#243138" stroke-width="2" stroke-linecap="round"/></svg>