<svg width="1440" height="855" fill="none" xmlns="http://www.w3.org/2000/svg"><path d="M-3 822.282c1.292.246 2.713.492 4.392.984 6.2.123 1.938 4.302 12.271 2.704 4.134 3.688 21.056-3.442 30.615-.123 17.696.123 24.284-1.967 41.593-.369 9.301-6.638 29.194 6.762 41.594.123 15.889-10.94 27.773 3.934 39.011 6.884 4.779-9.834 15.888 14.383 20.28-.245 9.43 8.359 24.802-1.967 34.619-.123 14.338-2.213 27.385 7.253 40.431 5.654 13.047 10.327 26.222 1.107 40.561 4.303 15.759 7.376 29.839 3.319 45.856-3.319 11.626 3.442 22.606 14.014 33.586-3.442 10.979 6.146 21.959-.246 33.843-3.196 11.367-2.582 22.735-14.998 34.102.246 11.367-10.45 22.735 8.851 34.102-.369 17.826-6.761 30.356-2.951 46.244 7.253 13.176 2.458 13.951 5.654 27.772 9.097 20.281 4.056 41.078-1.353 61.875.983 20.797-16.965 41.723 7.13 62.132-1.106 18.601 5.531 40.561 13.276 57.741-2.951 18.601-15.12 34.489-13.276 55.415-13.153 14.597-9.958 31.777-1.107 44.049-2.951 5.554 6.761 10.334-4.179 16.276-8.974 7.492-4.917 15.5-3.196 22.863-9.957 9.172 10.203 14.08-4.425 26.739-10.572 18.731-.738 38.494.123 57.353 0 15.63 1.106 31.131-11.187 46.635-5.778 15.63.492 31.13 6.393 47.02-3.811 8.13-7.99 13.43-9.219 20.92 2.705 9.04-11.064 17.7-7.13 26.87.738 13.95 9.219 30.62 13.153 44.31-.123 16.66 4.548 31.39-6.024 48.57 3.442 6.71-3.442 20.41 2.335 26.48.368 3.61-4.425 5.68 22.497 7.88 8.606 12.01 4.917 33.19 18.193 43.79 13.645 13.69 10.818 17.69 4.057 49.47.737 14.86 2.951 28.16 11.679 48.31 3.565 14.99 8.36 37.46-1.229 47.54-4.302 3.87-1.229 12.01-4.18 19.89-6.147V681.773c-.9-.492-.78-1.476 0-3.074V0H.1L-3 5.163V28.89c1.292 1.352 2.842 2.581 4.65 3.81-1.679 1.353-3.23 2.582-4.65 3.934v785.649z" fill="#F4F4F4"/></svg>