<svg width="189" height="189" fill="none" xmlns="http://www.w3.org/2000/svg"><g clip-path="url(#clip0_1294_2562)"><path fill-rule="evenodd" clip-rule="evenodd" d="M59.764 57.561c.042.21-.462-.125-.68-.125-1.975-.257-4.312.95-5.86 1.955-4.506 3.033-7.124 8.3-8.507 13.406-5.202 19.226 3.529 39.278 3.091 58.727-.165 6.603-2.523 11.643-4.36 17.753-.084.235-.152.553-.018.787.118.15.26.209.446.259 6.705.965 14.385 1.561 21.158 1.337 8.169-.241 13.475-4.304 20.678-5.658 3.538-.664 4.8-2.221 8.068-1.178 10.317 3.288 20.814 2.451 30.063-3.75 1.816-1.19 5.777-3.678 6.022-6.164.119-1.155-2.921-3.027-3.559-3.813-3.837-4.541-9.63-10.126-11.609-15.648-3.135-8.684-6.862-23.166-11.21-37.48-7.625-25.016-20.546-29.96-37.005-24.405" fill="#FEC71A"/><path fill-rule="evenodd" clip-rule="evenodd" d="M50.188 63.218c.043-.879-3.998 6.89-4.083 7.778a39.587 39.587 0 00-.205 4c.04 3.255.44 6.57 1 9.807 1.974 10.961 14.077 27.772 19.613 38.629 1.728 3.396-1.421 20.211 5.604 20.155 12.833-.086 2.666-21.417 4.85-19.678 7.457 5.818 2.172 42.334 15.969 35.267 6.583-3.361-8.798-29.784-5.699-36.799.421-.955-.46-2.519-.326-1.85 3.888 21.847 10.81 16.461 10.893 16.444 10.238-3.005.4-14.395-.974-19.95-2.964-12.199 2.711-14.856 4.004-32.649.451-6.486-1.861-14.333-4.05-18.943-8.053-17.315-35.345-20.037-46.596-2.21z" fill="#fff"/><path fill-rule="evenodd" clip-rule="evenodd" d="M98.336 64.704c2.263 4.767 4.686 12.91 4.208 19.783v.005c-.574 7.893-2.002 12.915-3.153 16.962-.175.616-.344 1.209-.502 1.787-1.164 4.246-1.784 7.65-.394 13.373.288 1.161 1.053 2.721 2.039 4.678l.116.23c.913 1.811 1.951 3.869 2.643 5.873.708 2.054 1.171 4.368.507 6.48-.695 2.211-2.478 3.786-5.287 4.664a5.403 5.403 0 01-1.516.605c-1.105.254-2.574.213-4.121-.747a7.621 7.621 0 01-1.266-.994c.234.703.473 1.413.713 2.127.232.69.466 1.383.697 2.076 1.31 3.931 2.568 7.903 3.061 11.129.246 1.608.327 3.173.053 4.519-.282 1.384-.986 2.709-2.418 3.441-1.958 1.002-3.843 1.366-5.588.877-1.746-.489-3.004-1.733-3.918-3.209-1.773-2.862-2.67-7.291-3.331-11.736-.27-1.817-.503-3.643-.731-5.44l-.18-1.414a9.005 9.005 0 01-.42 1.149c-.562 1.259-1.438 2.379-2.728 3.174-1.28.789-2.85 1.185-4.692 1.198-1.251.01-2.352-.366-3.258-1.074-.877-.687-1.485-1.614-1.917-2.589-.849-1.912-1.18-4.371-1.335-6.711-.108-1.634-.136-3.353-.162-4.911-.012-.683-.023-1.335-.04-1.936-.028-1.015-.072-1.888-.156-2.595-.089-.748-.203-1.129-.276-1.272-1.707-3.348-4.02-7.225-6.495-11.371-1.51-2.53-3.08-5.16-4.608-7.832-3.95-6.905-7.622-14.087-8.668-19.896l-.002-.011c-.57-3.291-.984-6.7-1.025-10.077v-.01a41.297 41.297 0 01.213-4.172 2.9 2.9 0 01.136-.607c.05-.155.113-.323.18-.49.135-.335.314-.739.515-1.172a74.77 74.77 0 011.444-2.909 51.911 51.911 0 011.438-2.6c.187-.309.397-.638.589-.873a2.49 2.49 0 01.23-.246l.003-.003c.018-.017.053-.05.103-.09 6.049-9.188 16.158-13.046 25.766-12.404 9.742.65 19.198 5.944 23.533 15.26zm-9.325 57.684c.861 4.204 1.829 7.155 2.785 9.207 1.117 2.394 2.165 3.45 2.897 3.904.68.422 1.2.397 1.537.319a1.964 1.964 0 00.574-.236l.049-.031.025-.016.037-.022c.008-.006.026-.016.05-.03l.046-.024c.024-.013.067-.034.122-.058.027-.011.095-.04.19-.068 2.178-.639 2.928-1.589 3.206-2.473.328-1.043.164-2.487-.479-4.351-.614-1.781-1.56-3.658-2.507-5.535l-.074-.147c-.924-1.834-1.904-3.779-2.303-5.395l-.002-.007c-1.573-6.474-.837-10.498.418-15.078.164-.597.337-1.204.514-1.827 1.142-4.021 2.48-8.736 3.028-16.266.424-6.095-1.776-13.642-3.89-18.093l-.006-.012c-3.718-7.995-11.932-12.718-20.66-13.3-8.703-.581-17.688 2.972-22.93 11.276a1.712 1.712 0 01-.465.488c-.038.06-.08.128-.125.204a48.673 48.673 0 00-1.333 2.414 70.097 70.097 0 00-1.375 2.767c-.189.406-.339.748-.441 1.003a5.003 5.003 0 00-.097.258 37.56 37.56 0 00-.188 3.72c.038 3.13.424 6.344.974 9.526.929 5.151 4.295 11.852 8.272 18.805a490.35 490.35 0 004.48 7.612c2.526 4.237 4.951 8.303 6.702 11.735v.002c.36.706.525 1.593.622 2.414.102.863.15 1.86.18 2.898.018.68.03 1.377.041 2.084.025 1.518.051 3.085.154 4.634.151 2.28.46 4.227 1.05 5.558.287.647.6 1.05.901 1.286.273.214.612.351 1.117.347h.002c1.365-.009 2.283-.299 2.911-.686.619-.381 1.071-.927 1.395-1.654.686-1.537.744-3.762.42-6.255-.293-2.262-.86-4.488-1.301-6.222l-.103-.405c-.21-.828-.418-1.658-.478-2.226a3.114 3.114 0 01-.012-.575c.013-.157.06-.636.413-1.077a1.821 1.821 0 011.84-.629c.413.097.707.314.838.418 1.285 1.006 2.156 2.546 2.796 4.199.65 1.684 1.133 3.677 1.525 5.785.478 2.567.85 5.492 1.219 8.376.227 1.777.451 3.539.697 5.192.674 4.528 1.51 8.267 2.86 10.446.646 1.044 1.296 1.54 1.932 1.718.635.178 1.603.137 3.093-.626l.002-.001c.213-.109.469-.345.618-1.077.157-.77.14-1.875-.082-3.326-.442-2.893-1.601-6.595-2.926-10.568-.223-.669-.45-1.346-.68-2.025-1.105-3.287-2.236-6.646-3-9.623-.463-1.801-.81-3.528-.932-5.067-.104-1.312-.059-2.63.322-3.781a90.251 90.251 0 01-.25-1.349 2.318 2.318 0 01-.041-.344v-.007a1.802 1.802 0 01.209-.92 1.733 1.733 0 012.193-.78c.4.166.632.44.685.502l.003.004c.266.314.433.72.524.977.148.42.371 1.243.212 2.114zM47.785 71.315zm.69-8.067c-.001-.036 0-.073.001-.11v.003c0 .01-.004.048-.002.107zm37.06 58.086z" fill="#243138"/><path fill-rule="evenodd" clip-rule="evenodd" d="M52.432 24.83l-.252.05c-1.412.152-2.874.27-4.27.506-3.008.472-6.311 1.22-8.574 3.455-4.6 4.532-4.712 16.867-1.54 22.237 3.305 5.604 20.36 10.46 22.62 11.052 5.579 1.451 11.537.869 17.202.563 15.707-.792 28.104-3.924 27.012-23.372-.256-4.778-3.454-8.968-8.504-9.306-.882-.042-4.858 1.058-5.438.565-1.385-1.246.498-11.281-3.94-10.96-2.756.204-4.517 4.732-6.308 6.483-2.237 2.144-5.607 1.905-8.455 1.648-.673-.083-8.773-1.03-9.033-1.24-1.923-1.747-.746-11.38-5.328-9.594-1.42.546-2.514 1.852-3.17 3.158-.472.92-.877 1.959-1.146 3.014" fill="#fff"/><path fill-rule="evenodd" clip-rule="evenodd" d="M63.992 24.994c.18.03.395.063.642.1.789.116 1.833.255 2.9.391a549.035 549.035 0 004.636.568c1.43.13 2.804.23 4.071.08 1.245-.148 2.244-.526 3.005-1.253.312-.306.673-.787 1.13-1.458.125-.182.258-.38.398-.589.334-.498.703-1.05 1.074-1.556.535-.73 1.167-1.502 1.91-2.116.749-.62 1.705-1.157 2.867-1.243h.002c.895-.065 1.732.133 2.45.603.695.454 1.166 1.089 1.49 1.723.627 1.221.87 2.762 1.002 4.1.076.775.126 1.69.17 2.492.028.508.054.97.082 1.324.025.313.052.577.082.796.314-.038.684-.097 1.094-.17.284-.05.572-.104.859-.158l.04-.008c.27-.05.541-.101.792-.146.443-.078 1.067-.186 1.521-.164.012 0 .023 0 .035.002 6.107.41 9.806 5.483 10.098 10.913.568 10.126-2.389 16.445-7.96 20.192-5.363 3.606-12.835 4.585-20.677 4.98-.634.034-1.278.073-1.93.112-5.038.301-10.57.632-15.795-.728h-.003c-1.173-.308-6.075-1.69-11.122-3.714-2.521-1.011-5.125-2.2-7.331-3.517-2.152-1.284-4.153-2.82-5.207-4.606-1.82-3.083-2.593-7.885-2.378-12.377.213-4.45 1.424-9.21 4.192-11.937 2.69-2.658 6.505-3.458 9.506-3.928 1.124-.19 2.304-.309 3.402-.42l.56-.056a1.7 1.7 0 01.048-.556 16.438 16.438 0 011.277-3.363c.76-1.51 2.115-3.224 4.082-3.98.8-.312 1.644-.438 2.478-.243.848.198 1.49.683 1.957 1.244.855 1.03 1.26 2.497 1.52 3.7.138.642.253 1.304.358 1.92l.022.13c.099.58.19 1.11.29 1.6.11.528.218.94.333 1.245l.028.07zm-9.863-.409a1.711 1.711 0 01-1.362 1.918l-.252.05a1.332 1.332 0 01-.154.024c-.36.04-.714.075-1.062.11-1.077.11-2.102.213-3.105.382l-.02.004c-3.014.471-5.8 1.168-7.632 2.979l-.002.002c-1.832 1.805-2.977 5.478-3.177 9.67-.198 4.15.56 8.2 1.91 10.487.6 1.016 1.97 2.19 4.017 3.41 1.992 1.189 4.413 2.301 6.85 3.279 4.869 1.952 9.621 3.292 10.713 3.579 4.66 1.212 9.611.921 14.717.621.65-.038 1.303-.076 1.958-.112h.006c7.864-.396 14.442-1.38 18.932-4.4 4.28-2.877 6.976-7.848 6.453-17.168v-.005c-.221-4.113-2.903-7.41-6.877-7.695l-.016.002c-.06.007-.28.031-.743.113l-.764.141-.034.007c-.285.053-.59.11-.895.164-.595.106-1.25.21-1.813.25a5.3 5.3 0 01-.906-.004c-.228-.023-.807-.097-1.298-.515a1.65 1.65 0 01-.035-.03c-.596-.537-.807-1.297-.906-1.729-.118-.517-.183-1.11-.229-1.686-.044-.56-.07-1.079-.098-1.596a45.728 45.728 0 00-.148-2.156c-.126-1.287-.33-2.272-.643-2.88-.144-.282-.265-.388-.322-.426-.034-.022-.108-.067-.32-.052-.217.016-.514.121-.926.462-.42.347-.855.854-1.33 1.501-.327.447-.628.896-.943 1.366-.15.223-.302.452-.462.686-.46.673-.99 1.413-1.572 1.982l-.012.012c-1.474 1.413-3.277 1.987-4.985 2.19-1.681.2-3.406.056-4.815-.071A30.96 30.96 0 0163.07 28.3a6.932 6.932 0 01-.4-.085 2.794 2.794 0 01-.234-.069l-.005-.001a1.866 1.866 0 01-.636-.372c-.535-.486-.844-1.123-1.041-1.647-.207-.55-.358-1.163-.48-1.755-.114-.55-.214-1.139-.31-1.703a41.956 41.956 0 00-.354-1.917c-.26-1.2-.54-1.916-.813-2.245a.496.496 0 00-.103-.1.445.445 0 00-.088.001c-.07.009-.188.033-.36.1l-.008.003c-.87.334-1.7 1.227-2.252 2.327l-.006.011a13.026 13.026 0 00-1.011 2.66 1.708 1.708 0 01-.84 1.077zm37.104 4.413zm.796.551z" fill="#243138"/><path fill-rule="evenodd" clip-rule="evenodd" d="M56.34 33.898c.473 0 .857.381.856.853 0 .835.313 1.379.776 1.749.494.394 1.225.64 2.096.703a6.93 6.93 0 002.62-.338c.836-.279 1.492-.687 1.87-1.132a.86.86 0 011.209-.1.85.85 0 01.099 1.202c-.648.76-1.615 1.308-2.636 1.648a8.65 8.65 0 01-3.288.422c-1.092-.078-2.195-.395-3.044-1.073-.878-.702-1.417-1.74-1.416-3.08 0-.471.385-.853.858-.854zm18.532.626a.87.87 0 01.599.137.85.85 0 01.375.805c.075.199.225.423.438.695l.03.04c.479.695 1.143 1.268 1.874 1.528l.005.002c.85.307 2.352.282 3.675-.19 1.343-.478 2.115-1.258 2.153-2.178a.857.857 0 011.712.068c-.082 1.976-1.716 3.156-3.29 3.717-1.592.568-3.517.664-4.835.188-1.141-.406-2.065-1.243-2.693-2.146-.238-.305-.557-.744-.721-1.258a.87.87 0 01-.024-.093 3.912 3.912 0 01-.04-.237 1.376 1.376 0 01-.01-.255.88.88 0 01.144-.44.868.868 0 01.608-.383zm.958.849zm-6.985 5.202a.857.857 0 01.65-.579c.966-.193 1.82.023 2.459.558.616.515.953 1.258 1.067 2 .222 1.448-.372 3.28-2.078 4.008-.924.393-1.819.383-2.58.03-.742-.343-1.27-.97-1.576-1.663-.596-1.349-.457-3.248.988-4.367a.86.86 0 011.07.014zm.272.917a.852.852 0 01-.291.417c-.675.523-.832 1.51-.47 2.33.173.393.438.67.732.806.274.127.657.171 1.184-.052.79-.338 1.194-1.271 1.055-2.177-.067-.435-.25-.764-.477-.955-.204-.17-.516-.292-1.02-.192a.857.857 0 01-.713-.177z" fill="#243138"/><path fill-rule="evenodd" clip-rule="evenodd" d="M52.502 41.847a.852.852 0 00.259-1.141.858.858 0 00-1.174-.3c-.485.286-.708.811-.824 1.177-.13.41-.202.88-.242 1.318a14.17 14.17 0 00-.021 2.165c.16 4.335 3.109 8.093 7.479 9.037 3.32.73 6.959.125 9.611-2.277l.004-.004c.573-.525 1.14-1.15 1.616-1.836a5.31 5.31 0 00.899 1.804c1.378 1.782 3.368 2.669 5.415 3.018 2.042.35 4.2.177 6.033-.213 3.08-.64 5.356-2.934 6.407-5.65 1.053-2.718.918-5.959-.94-8.548a.859.859 0 00-1.196-.197.852.852 0 00-.2 1.19c1.474 2.053 1.616 4.674.737 6.943-.879 2.271-2.74 4.09-5.157 4.592h-.004c-1.687.359-3.617.504-5.387.201-1.766-.302-3.31-1.035-4.35-2.38l-.003-.003c-.682-.874-.792-1.937-.935-3.313l-.012-.117-.002-.019-.005-.066v-.01l-.017-.207a3.709 3.709 0 00-.03-.256 1.272 1.272 0 00-.043-.188.911.911 0 00-.114-.235.904.904 0 00-1.054-.328.89.89 0 00-.523.548c-.06.177-.055.355-.053.396v.005c0 .046.004.111.006.147l.001.022.001.014c-.038.261-.136.534-.297.87l-.006.01c-.427.925-1.154 1.824-1.945 2.55-2.158 1.952-5.191 2.507-8.087 1.87h-.003c-3.57-.772-6.008-3.845-6.134-7.451a12.465 12.465 0 01.016-1.93c.035-.382.092-.716.17-.962.051-.162.093-.229.104-.246zm18.014 5.464zm-1.745-.283zM25.102 30.552a.859.859 0 00-.982 1.194.862.862 0 00.574.474c.099.026.189.032.227.035.096.006.208.004.31.001.212-.006.489-.024.759-.045.273-.021.551-.046.774-.068.149-.015.31-.032.42-.048 1.315-.064 2.6.06 3.993.194l.204.02c4.664.482 8.621 1.418 12.363 4.038a.86.86 0 001.194-.207.85.85 0 00-.207-1.19c-4.085-2.86-8.377-3.843-13.173-4.34h-.006l-.243-.024c-1.377-.133-2.793-.27-4.254-.193a.864.864 0 00-.124.015l-.026.003c-.045.005-.146.017-.309.033-.21.021-.476.045-.736.065a15.875 15.875 0 01-.758.043zm6.102 9.792a.741.741 0 01.029-.006c3.633-.726 8.368-1.513 12.272-.35a.85.85 0 01.574 1.061.86.86 0 01-1.068.574c-3.434-1.023-7.753-.349-11.429.386-.534.125-1.039.23-1.535.332-.715.147-1.41.29-2.145.489-.548.15-1.137.351-1.706.552a.865.865 0 01-.117.032l-.084.017a.855.855 0 01-1.008-.669.855.855 0 01.673-1.005l.025-.005a27.28 27.28 0 011.765-.568l.004-.001a41.9 41.9 0 012.348-.535c.493-.103.97-.202 1.402-.304zm13.585 11.737c-4.195-.351-8.731 1.324-12.52 3.329a1.23 1.23 0 01-.023.012l-.294.14c-.412.194-1.045.493-1.652.842-.39.223-.725.444-.956.641a1.395 1.395 0 00-.205.207.858.858 0 01-1.701-.18c.016-.336.163-.61.299-.8.14-.197.317-.37.492-.52.35-.3.793-.583 1.217-.827.679-.39 1.419-.738 1.817-.926l.215-.102c3.877-2.05 8.768-3.91 13.458-3.516a.853.853 0 11-.147 1.7zM29.12 57.28zm77.021-23.132a85.43 85.43 0 01-2.147.851l-.005.002c-1.304.479-2.54.94-3.755 1.48a7.642 7.642 0 00-.676.303l-.013.006c-.21.102-.455.22-.72.323a1.864 1.864 0 00-.109.07 7.108 7.108 0 01-.18.116c-.043.026-.1.06-.163.09-.05.025-.165.08-.31.103a.898.898 0 01-.852-.32.916.916 0 01-.177-.744.858.858 0 01.782-.697l.013-.008v-.001c.063-.04.19-.123.324-.179l.025-.01c.202-.076.397-.17.631-.284l.014-.006c.214-.104.465-.226.736-.33 1.265-.562 2.543-1.037 3.837-1.512a82.946 82.946 0 001.994-.79c1.519-.617 3.297-1.338 5.057-1.893 2.612-.823 5.48-1.389 7.821-.677a.851.851 0 01.567 1.066.859.859 0 01-1.071.567c-1.8-.548-4.223-.142-6.802.671-1.701.536-3.341 1.202-4.821 1.803zm-7.417 2.557a.894.894 0 01-.005.03l.005-.03zm5.578 4.11c3.229-1.073 6.75-1.852 10.084-1.687a.854.854 0 10.088-1.705c-3.639-.18-7.394.67-10.72 1.776a.225.225 0 01-.014.005l-.017.006c-1.132.399-2.301.81-3.415 1.301a.65.65 0 00-.046.022 4.395 4.395 0 00-.634.428c-.089.069-.22.175-.338.269l-.152.121a.859.859 0 00-.817.578 1.218 1.218 0 00-.064.286.894.894 0 00.901.992 1.01 1.01 0 00.377-.08c.136-.055.258-.136.335-.19.09-.06.183-.132.271-.201.107-.084.185-.147.261-.209.085-.068.166-.133.279-.221.169-.132.284-.211.348-.247 1.038-.456 2.137-.844 3.273-1.244zM96.2 52.11a.86.86 0 011.198-.179c.127.093.36.203.724.314a12.2 12.2 0 001.216.284c.201.039.416.077.635.117.691.124 1.427.256 1.945.43l.007.003c4.051 1.398 7.845 3.21 11.372 5.661a.85.85 0 01.211 1.188.86.86 0 01-1.193.213c-3.376-2.346-7.022-4.092-10.951-5.448-.388-.13-.929-.228-1.573-.344a63.544 63.544 0 01-.781-.144c-.466-.09-.952-.194-1.392-.328-.428-.13-.881-.308-1.242-.574a.85.85 0 01-.177-1.194z" fill="#243138"/><path fill-rule="evenodd" clip-rule="evenodd" d="M44.932 41.41a.86.86 0 011.212-.028c1.465 1.394 2.6 2.253 4.59 2.547.469.07.791.504.721.97a.858.858 0 01-.975.719c-2.512-.372-3.964-1.519-5.521-3a.85.85 0 01-.027-1.208zm43.293 5.194zm.163-1.449l1.248.116c.349.032.982.15 1.718.287l.081.015c.768.143 1.698.316 2.697.477 2.064.332 4.33.592 5.995.442h.001c2.949-.262 6.261-1.078 9.892-2.157 2.011-.598 4.074-1.263 6.214-1.952 1.756-.565 3.563-1.147 5.435-1.722 8.222-2.527 17.318-4.809 26.625-4.212a.853.853 0 11-.113 1.704c-8.978-.576-17.823 1.622-26.009 4.139a424.938 424.938 0 00-5.375 1.703c-2.172.699-4.285 1.379-6.289 1.975-3.658 1.087-7.103 1.944-10.23 2.222-1.899.171-4.354-.125-6.422-.457-1.02-.164-1.968-.34-2.734-.483l-.055-.01c-.802-.15-1.34-.248-1.589-.27l-.003-.001-1.336-.124a.857.857 0 01-.177-.036l-.022-.004-.15-.025-.005-.001a1.504 1.504 0 01-.32-.091.873.873 0 01-.505-.563.864.864 0 01.134-.754.905.905 0 01.282-.25.86.86 0 01.855.002l.035.006c.029.005.072.013.116.023l.006.001z" fill="#243138"/><path fill-rule="evenodd" clip-rule="evenodd" d="M128.878 25.338a.853.853 0 01-.518 1.092.377.377 0 00-.201.142c-.045.064-.095.178-.125.38-.065.43-.008 1.018.1 1.78.016.119.034.242.053.368.092.625.194 1.325.214 1.977.023.78-.061 1.662-.548 2.388a12.363 12.363 0 01-1.412 1.748l-.173.185c-.365.395-.666.76-1.028 1.564-.312.715-.583 1.409-.862 2.121-.142.366-.287.736-.44 1.116a.777.777 0 01-.049.102l-.004.009a11.416 11.416 0 00-.27.62.86.86 0 01-1.712-.13c.001-.095.018-.172.025-.205.017-.077.042-.151.061-.203.04-.113.094-.245.145-.364a13.765 13.765 0 01.231-.506c.133-.331.265-.67.399-1.012.286-.733.58-1.485.907-2.232l.003-.008c.455-1.01.873-1.528 1.334-2.026l.187-.201c.365-.388.74-.788 1.233-1.524.186-.278.28-.72.26-1.388-.017-.544-.101-1.125-.193-1.75l-.059-.409c-.103-.73-.204-1.557-.098-2.268a2.58 2.58 0 01.412-1.101 2.085 2.085 0 011.033-.779.856.856 0 011.095.514z" fill="#243138"/><path fill-rule="evenodd" clip-rule="evenodd" d="M122.881 41.334a.857.857 0 01.854-.857c.662-.004 1.595.247 2.543.565.986.33 2.112.778 3.213 1.25 2.193.939 4.357 2.004 5.215 2.496 1.762.988 2.597 2.289 3.183 3.202.173.27.324.505.47.689.321.401.662.676 1.258.82.648.157 1.652.171 3.315-.13a.855.855 0 01.995.688.855.855 0 01-.692.992c-1.753.317-3.035.348-4.025.109-1.042-.252-1.69-.785-2.193-1.416-.286-.357-.511-.707-.731-1.048-.551-.856-1.069-1.66-2.426-2.42l-.008-.004c-.775-.445-2.875-1.483-5.04-2.41a42.458 42.458 0 00-3.083-1.2c-.962-.323-1.646-.478-1.988-.476a.854.854 0 01-.86-.85zm9.415-2.634v-.001a.857.857 0 01.558-.367 1.063 1.063 0 01.448-.066 4.105 4.105 0 01.924.113c.629.191 1.276.428 1.896.72 1.454.598 2.89 1.333 4.276 2.042.413.211.822.42 1.225.623l.075.036c5.689 2.753 10.957 5.303 16.99 3.81a.856.856 0 011.038.623.855.855 0 01-.627 1.034c-6.641 1.643-12.415-1.153-17.926-3.822l-.307-.149-.011-.005c-.433-.217-.861-.436-1.287-.654-1.379-.706-2.734-1.4-4.122-1.967a12.056 12.056 0 00-1.676-.644 2.497 2.497 0 00-.429-.053.926.926 0 01-.429.058.85.85 0 01-.743-1.036.852.852 0 01.127-.295zm1.117 1.245h-.001.001zm.335-.342l-.025.04-.001.001.026-.04zm16.215-8.878c-.308.705-.821 1.876-2.237 3.308-.306.31-.763.573-1.182.79a30.95 30.95 0 01-1.346.631l-.091.041a23.95 23.95 0 00-1.337.636c-.386.205-.596.355-.682.444a2.03 2.03 0 01-.088.099l-.111.112-.041.04c-.067.067-.137.136-.205.207-.06.063-.107.114-.14.154a.856.856 0 01-.644.563.856.856 0 01-1.008-.669.983.983 0 01.09-.623c.05-.103.111-.19.157-.251a4.12 4.12 0 01.307-.352c.084-.087.17-.173.238-.24l.035-.035.081-.082.001-.001.03-.035c.298-.338.759-.615 1.175-.837.44-.234.953-.467 1.438-.685l.078-.035c.467-.21.906-.408 1.279-.6.416-.213.649-.37.743-.466l.002-.002c1.165-1.177 1.514-1.967 1.825-2.67a8.05 8.05 0 01.358-.74c.3-.53.714-.949 1.451-1.219.66-.242 1.566-.359 2.842-.417a.854.854 0 11.075 1.705c-1.257.057-1.934.17-2.327.314-.317.116-.428.24-.548.452-.067.118-.135.274-.218.463zm-8.189 4.757l-.006.007.006-.007zm.687 1.758l.001-.002-.001.002zm21.712-7.03c-.387.305-.562.582-.613.81-.484 2.192-2.285 3.713-4.337 4.758-2.074 1.057-4.584 1.723-6.817 2.125-.006 0-.011.002-.017.003-.151.024-.345.06-.563.099-.436.08-.97.177-1.458.238-.734.092-1.64.148-2.363-.103a.85.85 0 01-.525-1.087.859.859 0 011.092-.525c.31.108.858.113 1.584.022.454-.057.871-.134 1.268-.207.235-.043.463-.085.689-.121 2.151-.388 4.472-1.016 6.331-1.963 1.885-.96 3.123-2.157 3.442-3.604l.001-.003c.168-.751.662-1.337 1.222-1.779.563-.445 1.26-.8 1.971-1.078 1.423-.557 3.054-.871 4.202-.962a.853.853 0 11.132 1.702c-1.004.079-2.466.361-3.708.848-.621.244-1.15.523-1.533.826z" fill="#243138"/><path fill-rule="evenodd" clip-rule="evenodd" d="M148.849 19.348a.852.852 0 01-.351 1.155c-.27.145-.537.288-.802.428-4.247 2.263-7.762 4.135-9.861 8.324l-.003.006c-.924 1.806-1.746 3.726-2.488 5.64-.115.309-.237.628-.358.943l-.001.002a88.01 88.01 0 00-.355.934.662.662 0 01-.031.072l-.272.565c-.058.13-.137.236-.173.283l-.074.093a.853.853 0 01-.342.361.857.857 0 01-.323.114.864.864 0 01-.487-.069.853.853 0 01-.46-1.032c.035-.114.088-.196.1-.216l.001-.001c.047-.073.117-.155.136-.177l.004-.005c.034-.04.058-.069.076-.093l.252-.523c.111-.298.229-.607.346-.91l.001-.003c.122-.319.243-.633.355-.933l.004-.011c.756-1.95 1.601-3.928 2.561-5.803 2.351-4.691 6.336-6.808 10.494-9.017.296-.157.593-.315.891-.475a.858.858 0 011.16.348zm-16.05 17.308l-.004.006.004-.006z" fill="#243138"/><path d="M128.855 22.773c.21-.042-.294.276-.387.469a3.023 3.023 0 00-.253 1.138c-.009 1.046.418 2.745 1.805 2.467 3.227-.689 2.912-4.89-1.165-4.074z" fill="#FE6868"/><path fill-rule="evenodd" clip-rule="evenodd" d="M128.094 22.382a.857.857 0 01.594-.446c1.154-.23 2.151-.128 2.924.278.783.411 1.269 1.103 1.408 1.881.281 1.567-.84 3.164-2.822 3.587l-.011.002c-.536.107-1.039.03-1.469-.22-.412-.24-.692-.6-.88-.951-.369-.688-.485-1.53-.48-2.139v-.011a3.87 3.87 0 01.329-1.47l.009-.019c.093-.193.239-.339.299-.398.032-.033.067-.065.099-.094zm.163-.145h-.001c.007-.006.008-.007.001 0zm.919 1.475l.006-.007-.006.007zm.04-.04c.027-.026.06-.055.104-.094l.023-.02.002-.002c.703-.093 1.175.016 1.465.168.321.168.477.417.523.673.089.501-.245 1.347-1.485 1.615-.154.03-.224 0-.263-.023-.058-.034-.144-.113-.235-.282-.188-.352-.281-.88-.278-1.315a2.18 2.18 0 01.144-.72z" fill="#FE6868"/><path d="M149.382 16.797c.101.284-.546.327-.673.57-.353.636-.429 1.347-.212 2 1.559 4.735 7.792-2.124 2.987-3.643a3.059 3.059 0 00-1.403-.024" fill="#FE6868"/><path fill-rule="evenodd" clip-rule="evenodd" d="M149.24 15.868a.856.856 0 01.673-1.005 3.917 3.917 0 011.831.048c.714.225 1.288.57 1.699 1.035.415.47.627 1.02.675 1.58.093 1.087-.423 2.159-1.096 2.926-.667.76-1.658 1.409-2.725 1.41a2.405 2.405 0 01-1.582-.58c-.462-.39-.802-.951-1.031-1.646-.297-.891-.186-1.846.272-2.675.081-.15.185-.256.269-.328.088-.073.175-.127.241-.163.06-.034.119-.062.165-.083a.856.856 0 01.63-.435 1.108 1.108 0 01-.021-.084zm.961.677a1 1 0 01-.262 1.033 1.563 1.563 0 01-.442.29l-.006.003-.102.047c-.182.399-.201.81-.078 1.178l.001.004c.16.487.356.747.514.881a.694.694 0 00.472.174c.39 0 .949-.272 1.434-.825.48-.546.719-1.177.678-1.656a1.001 1.001 0 00-.254-.598c-.16-.181-.438-.38-.915-.533a2.212 2.212 0 00-.993-.006.854.854 0 01-.047.008zm-.904 1.416l.003-.002c-.015.01-.018.01-.003.002zm6.128 7.852c-2.127.077-2.507 2.546-2.323 3.249 1.274 3.966 7.288-2.458 2.323-3.249z" fill="#FE6868"/><path fill-rule="evenodd" clip-rule="evenodd" d="M152.622 26.84c.432-.914 1.3-1.826 2.773-1.88a.85.85 0 01.166.01c1.443.23 2.417.948 2.619 2.093.177 1.01-.326 2.016-.927 2.713-.607.705-1.513 1.33-2.48 1.413a2.2 2.2 0 01-1.51-.407c-.459-.336-.779-.842-.977-1.459a.68.68 0 01-.013-.044c-.085-.323-.085-.73-.035-1.118.053-.406.171-.871.384-1.32zm1.307 1.993c.118.351.259.505.35.572a.489.489 0 00.35.083c.363-.03.889-.317 1.324-.822.441-.512.59-1.013.538-1.305-.026-.153-.156-.518-1.116-.69-.606.049-.969.4-1.203.894a2.776 2.776 0 00-.234.811 2.252 2.252 0 00-.013.432l.004.025zm-19.579 4.588c-3.084.095-3.65 3.82-3.357 4.849 1.894 5.973 10.592-3.641 3.357-4.849z" fill="#FE6868"/><path fill-rule="evenodd" clip-rule="evenodd" d="M130.625 35.142c.579-1.263 1.731-2.513 3.7-2.574a.853.853 0 01.168.012c1.004.167 1.812.493 2.411.98a2.977 2.977 0 011.084 1.82c.234 1.324-.4 2.701-1.234 3.703-.837 1.004-2.069 1.863-3.35 1.97a2.785 2.785 0 01-1.945-.547c-.584-.442-1.01-1.115-1.283-1.978a.211.211 0 01-.007-.024c-.118-.411-.126-.964-.06-1.514.07-.57.23-1.221.516-1.848zm1.19 2.884c.199.621.457.95.682 1.12.216.163.467.23.767.205.656-.054 1.502-.554 2.172-1.357.672-.807.975-1.687.864-2.317a1.28 1.28 0 00-.482-.794c-.292-.238-.769-.468-1.524-.605-1.066.063-1.716.712-2.109 1.57a4.624 4.624 0 00-.374 1.344c-.052.43-.024.723.004.834zm-14.287 3.284c-3.975.23-4.836 4.448-4.476 5.594 2.263 6.727 13.794-4.455 4.476-5.594z" fill="#FE6868"/><path fill-rule="evenodd" clip-rule="evenodd" d="M112.911 43.358c.777-1.429 2.224-2.764 4.569-2.9a.853.853 0 01.154.005c2.478.303 3.997 1.344 4.288 2.999.264 1.501-.598 3.06-1.668 4.182-1.092 1.144-2.634 2.088-4.157 2.234-.78.075-1.584-.06-2.292-.522-.707-.463-1.236-1.2-1.565-2.18l-.006-.015c-.147-.47-.141-1.1-.039-1.718a6.68 6.68 0 01.716-2.085zm.957 3.284c.236.696.562 1.078.88 1.286.319.21.715.296 1.188.25.984-.094 2.167-.756 3.076-1.709.931-.975 1.346-2.004 1.222-2.71-.096-.545-.619-1.316-2.734-1.592-1.585.117-2.534.994-3.082 2.002a4.98 4.98 0 00-.532 1.547c-.081.492-.05.816-.018.926zm42.927-12.009c-3.841.245-4.726 4.12-4.332 5.217 2.061 6.157 13.314-4.23 4.332-5.218z" fill="#FE6868"/><path fill-rule="evenodd" clip-rule="evenodd" d="M152.297 36.5c.771-1.344 2.191-2.575 4.444-2.72.05-.002.1-.001.15.004 2.368.26 3.875 1.206 4.151 2.8.248 1.432-.627 2.9-1.665 3.938-1.066 1.068-2.559 1.949-4.018 2.098-.747.076-1.521-.037-2.205-.462-.686-.427-1.194-1.115-1.502-2.03-.165-.468-.162-1.078-.064-1.66a5.995 5.995 0 01.709-1.968zm.981 2.246c-.076.456-.036.737-.009.815a.13.13 0 01.007.017c.208.621.501.953.788 1.132.291.181.664.259 1.122.212.95-.097 2.095-.72 2.977-1.603.911-.912 1.294-1.842 1.19-2.442-.075-.434-.52-1.146-2.578-1.388-1.543.122-2.465.941-2.99 1.856a4.293 4.293 0 00-.507 1.401z" fill="#FE6868"/><path d="M145.126 49.931c.176.009-.253.268-.354.42-.193.342-.252.702-.269 1.054-.01 1.046.653 2.828 1.862 2.977 2.286.283 2.676-3.232.844-4.084" fill="#FE6868"/><path fill-rule="evenodd" clip-rule="evenodd" d="M144.354 49.56a.86.86 0 01.813-.481.941.941 0 01.282.056.876.876 0 01.45.368c.276.455.022.87-.006.916l-.001.001c-.063.104-.137.179-.167.21-.04.039-.08.075-.109.1l-.088.075a1.472 1.472 0 00-.049.041 1.593 1.593 0 00-.12.581c.001.373.126.932.376 1.403.265.5.545.682.737.706.33.04.528-.053.666-.179.158-.145.293-.395.347-.726.116-.713-.183-1.348-.639-1.56a.852.852 0 01-.413-1.134.86.86 0 011.14-.412c1.375.64 1.797 2.188 1.604 3.376-.1.618-.376 1.248-.877 1.709-.521.48-1.228.72-2.042.62-1.017-.126-1.673-.91-2.039-1.6-.378-.713-.579-1.559-.573-2.231l.001-.034c.02-.416.093-.925.378-1.432l.035-.056c.093-.139.216-.248.266-.291v-.001l.028-.024zm1.081 1.326l.002-.002-.002.002z" fill="#FE6868"/><path fill-rule="evenodd" clip-rule="evenodd" d="M81.318 163.284a.856.856 0 011.028.637c.705 3.032 1.495 6.038 2.29 9.058l.235.898c.871 3.317 1.736 6.652 2.477 10.026a.855.855 0 01-.655 1.017.856.856 0 01-1.02-.65c-.732-3.336-1.589-6.641-2.46-9.958l-.237-.901c-.792-3.015-1.589-6.045-2.3-9.102a.855.855 0 01.642-1.025zm20.587-6.59a.854.854 0 01.913.792c.172 2.548.821 5.225 1.59 7.955.222.788.455 1.583.688 2.38.566 1.931 1.135 3.871 1.554 5.734a.855.855 0 01-.649 1.021.855.855 0 01-1.023-.645c-.407-1.807-.951-3.664-1.511-5.572-.237-.809-.476-1.627-.709-2.454-.775-2.749-1.466-5.568-1.65-8.301a.856.856 0 01.797-.91zm-26.315 4.735a.855.855 0 011.046.608c.375 1.43.663 2.872.946 4.286l.001.005c.389 1.758.803 3.526 1.22 5.299.557 2.376 1.117 4.761 1.618 7.143a.855.855 0 01-.663 1.011.855.855 0 01-1.015-.659c-.501-2.384-1.049-4.716-1.6-7.061-.416-1.774-.834-3.555-1.236-5.372a.335.335 0 01-.003-.017c-.285-1.426-.565-2.824-.926-4.201a.854.854 0 01.613-1.042zM55.779 67.19a1.288 1.288 0 011.52-.996c1.65.34 4.2 1.19 6.633 2.662 2.425 1.467 4.86 3.629 6.058 6.645 1.359 3.422 1.98 6.42 1.931 8.749-.046 2.216-.74 4.345-2.623 5.09-2.841 1.123-6.772-.264-7.758-3.766-.342-1.213-1.1-2.994-2.32-4.452-1.207-1.444-2.785-2.485-4.82-2.517a1.28 1.28 0 11.046-2.56c3.007.047 5.23 1.618 6.75 3.436 1.509 1.803 2.407 3.934 2.82 5.398.521 1.851 2.723 2.72 4.337 2.081.344-.136.956-.77.998-2.759.039-1.876-.47-4.525-1.752-7.755-.915-2.304-2.84-4.092-5.005-5.401-2.158-1.306-4.43-2.058-5.82-2.343a1.278 1.278 0 01-.995-1.513zm31.304-.15a1.28 1.28 0 01-.67 1.683c-1.495.645-5.241 3.54-6.312 9.596-.7 3.958-.48 6.717.331 8.489.76 1.66 2.102 2.591 4.165 2.818.281.03.353-.036.402-.083.113-.107.28-.361.448-.912.163-.534.287-1.204.415-2.017l.112-.734c.09-.6.187-1.248.304-1.889.331-1.832.862-3.912 2.085-5.624 1.27-1.778 3.214-3.059 6.127-3.394a1.282 1.282 0 011.422 1.124 1.284 1.284 0 01-1.132 1.42c-2.214.254-3.491 1.167-4.323 2.332-.88 1.23-1.332 2.84-1.65 4.593-.109.602-.196 1.186-.284 1.768l-.121.796c-.129.818-.275 1.645-.496 2.367-.216.706-.546 1.467-1.141 2.028-.659.62-1.507.874-2.454.77-2.853-.314-5.04-1.723-6.218-4.297-1.129-2.464-1.26-5.834-.524-9.995 1.226-6.934 5.564-10.529 7.824-11.505a1.286 1.286 0 011.69.665z" fill="#243138"/></g><defs><clipPath id="clip0_1294_2562"><path fill="#fff" d="M0 0h189v189H0z"/></clipPath></defs></svg>