<svg width="272" height="271" fill="none" xmlns="http://www.w3.org/2000/svg"><path fill-rule="evenodd" clip-rule="evenodd" d="M156.217 207.979c.708-.832-2.705-.083-4.078-.041-8.613.291-17.268.665-25.881 1.123-12.317.624-67.658 1.623-67.034 23.759.125 3.995.5 13.898 6.908 15.355 16.852 3.911 47.31-.042 76.354-5.368 27.462-5.077 52.387-9.404 61.083-14.148 4.952-2.704 8.073-6.366 8.988-10.693.666-3.038-.042-6.491-3.62-8.447-11.443-6.283-33.371-3.37-46.353-1.706" fill="#FEC71A"/><path d="M156.217 207.979c.708-.832-2.705-.083-4.078-.041-8.613.291-17.268.665-25.881 1.123-12.317.624-67.658 1.623-67.034 23.759.125 3.995.5 13.898 6.908 15.355 16.852 3.911 47.31-.042 76.354-5.368 27.462-5.077 52.387-9.404 61.083-14.148 4.952-2.704 8.073-6.366 8.988-10.693.666-3.038-.042-6.491-3.62-8.447-11.443-6.283-33.371-3.37-46.353-1.706m8.322-133.901c.833 5.534-.915 12.275-3.578 17.476-.583 1.082 2.122.916 3.079 1.457 2.164 1.165 3.745 3.87 5.035 5.783.25.375 2.58 5.326 2.663 5.326.042 0 .042-1.914.083-1.997a40.538 40.538 0 012.622-12.524c.457-1.249 3.162-3.038 1.872-3.579-5.035-2.08-10.902-1.664-11.235-8.904" stroke="#243138" stroke-width="4" stroke-miterlimit="10" stroke-linecap="round" stroke-linejoin="round"/><path fill-rule="evenodd" clip-rule="evenodd" d="M133.416 245.511c-38.282 6.991-45.48 1.374-48.268-1.83-23.551-27.504-13.606-102.61-1.83-106.563.582-.208 1.123.499 1.456.873 6.116 6.034 17.143 12.775 25.215 15.771 40.071 14.771 78.019 15.27 83.511 55.923 3.995 29.46 2.289 26.09-44.106 33.58" fill="#fff"/><path d="M133.416 245.511c-38.282 6.991-45.48 1.374-48.268-1.83-23.551-27.504-13.606-102.61-1.83-106.563.582-.208 1.123.499 1.456.873 6.116 6.034 17.143 12.775 25.215 15.771 40.071 14.771 78.019 15.27 83.511 55.923 3.995 29.46 2.289 26.09-44.106 33.58" stroke="#243138" stroke-width="4" stroke-miterlimit="10" stroke-linecap="round" stroke-linejoin="round"/><path d="M163.791 173.068c.125-.582-1.665 1.124-1.748 1.374-.624 1.331-.998 2.787-1.207 4.285-.624 4.578-.124 9.363 1.249 13.732 4.119 13.273 15.229 27.837 30.458 26.838" stroke="#243138" stroke-width="4" stroke-miterlimit="10" stroke-linecap="round" stroke-linejoin="round"/><path fill-rule="evenodd" clip-rule="evenodd" d="M72.582 172.028c.166-.457.957-.041 1.456-.083 5.909-.707 11.86-1.331 17.81-2.164 3.411-.499 7.739-2.039 11.234-1.29.333.084.874.25.749.708-1.373 5.492-26.547 5.659-28.503 11.401-.25.666.458.999.999 1.123 5.284 1.249 11.567-1.747 16.977-1.747.332 0 1.123-.083 1.373.208.457.499-4.161 2.205-4.452 2.33-1.706.666-13.274 5.451-12.442 7.906.79 2.33 15.895-1.956 16.103.25.291 3.412-21.429 1.747-22.968 7.614" fill="#243138"/><path d="M72.582 172.028c.166-.457.957-.041 1.456-.083 5.909-.707 11.86-1.331 17.81-2.164 3.411-.499 7.739-2.039 11.234-1.29.333.084.874.25.749.708-1.373 5.492-26.547 5.659-28.503 11.401-.25.666.458.999.999 1.123 5.284 1.249 11.567-1.747 16.977-1.747.332 0 1.123-.083 1.373.208.457.499-4.161 2.205-4.452 2.33-1.706.666-13.274 5.451-12.442 7.906.79 2.33 15.895-1.956 16.103.25.291 3.412-21.429 1.747-22.968 7.614M89.184 92.637c-.748-.5 4.328.208 5.202.29 19.765 2.04 14.563-17.309 19.099-10.277 12.899 19.89 37.033 22.761 47.269 18.1 3.953-1.83.54 9.238.665 13.108.458 14.521 26.256 23.426 11.069 38.406-17.518 17.268-66.202 2.663-77.686-6.034-26.34-19.931-33.371-48.683-5.618-53.593z" stroke="#243138" stroke-width="4" stroke-miterlimit="10" stroke-linecap="round" stroke-linejoin="round"/><path fill-rule="evenodd" clip-rule="evenodd" d="M102.416 103.33c.541.292-.79.833-1.082 1.332-.915 1.539-2.746 3.828-3.204 5.368-1.081 3.828.75 9.362 4.702 11.359 1.873.957 13.773 3.953 15.77 2.663 1.457-.957 2.164-3.37 2.913-4.743.291-.541 2.58-3.787 2.247-4.369-3.87-6.908-12.649-8.614-20.014-10.777" fill="#243138"/><path d="M102.416 103.33c.541.292-.79.833-1.082 1.332-.915 1.539-2.746 3.828-3.204 5.368-1.081 3.828.75 9.362 4.702 11.359 1.873.957 13.773 3.953 15.77 2.663 1.457-.957 2.164-3.37 2.913-4.743.291-.541 2.58-3.787 2.247-4.369-3.87-6.908-12.649-8.614-20.014-10.777" stroke="#243138" stroke-width="4" stroke-miterlimit="10" stroke-linecap="round" stroke-linejoin="round"/><path fill-rule="evenodd" clip-rule="evenodd" d="M125.01 117.561s.167.083.416.166c.541.125 3.496.999 3.496 1.207 0 .541-3.329 5.659-2.164 7.198 2.621 3.412 17.185 9.071 21.762 7.033 6.782-2.996 9.487-12.067 1.331-15.147-4.41-1.664-10.485-.374-15.021.458" fill="#243138"/><path d="M125.01 117.561s.167.083.416.166c.541.125 3.496.999 3.496 1.207 0 .541-3.329 5.659-2.164 7.198 2.621 3.412 17.185 9.071 21.762 7.033 6.782-2.996 9.487-12.067 1.331-15.147-4.41-1.664-10.485-.374-15.021.458m16.353 2.622c1.748 1.456 7.323.124 10.028-.749m-61.208-26.88c-.75 1.623.333 4.868 1.04 6.241m20.555 28.004c-4.827 7.365-13.19 10.153-17.934 7.739-2.954-1.498-4.203-5.492-.749-7.198" stroke="#243138" stroke-width="4" stroke-miterlimit="10" stroke-linecap="round" stroke-linejoin="round"/><path d="M121.932 126.091c-.042-.042-2.122 5.992-2.122 6.033-.292 1.082-.5 4.578-.333 5.701.416 2.788 3.12 3.911 5.326 5.659 3.745 2.996 15.395 3.745 13.065-3.537" stroke="#243138" stroke-width="4" stroke-miterlimit="10" stroke-linecap="round" stroke-linejoin="round"/><path fill-rule="evenodd" clip-rule="evenodd" d="M133.789 246.162c-.166-2.818-8.113-10.463-19.348-26.863-8.364-12.214-2.455-42.493 12.857-43.732 2.33-.17 9.987-.768 14.605 6.449 1.706 2.691 4.245 7.474-1.581 10.89-11.401 6.705-12.358-3.074-10.402-7.217.208-.427-13.815 4.612-9.279 23.532 4.785 19.944 25.756 27.631 27.712 34.806" fill="#fff"/><path d="M133.789 244.346c-.166-2.746-8.113-10.194-19.348-26.172-8.364-11.901-2.455-41.402 12.857-42.609 2.33-.166 9.987-.749 14.605 6.283 1.706 2.622 4.245 7.282-1.581 10.611-11.401 6.533-12.358-2.996-10.402-7.032.208-.416-13.815 4.494-9.279 22.927 4.785 19.432 25.756 26.921 27.712 33.912M136.328 99.419c-.333-.208 19.889-42.817-29.626-51.721" stroke="#243138" stroke-width="4" stroke-miterlimit="10" stroke-linecap="round" stroke-linejoin="round"/><path opacity=".912" fill-rule="evenodd" clip-rule="evenodd" d="M95.384 34.923c-2.163-.582-3.745-6.324-8.197-7.156-1.872-.333-3.953-.333-5.575.79-14.564 10.111 13.69 17.351 18.599 18.683 2.996.79 3.246-2.039 3.62-4.494 2.372-16.103-12.899-27.254-10.694-12.192" fill="#6FCF97"/><path d="M95.384 34.923c-2.163-.582-3.745-6.324-8.197-7.156-1.872-.333-3.953-.333-5.575.79-14.564 10.111 13.69 17.351 18.599 18.683 2.996.79 3.246-2.039 3.62-4.494 2.372-16.103-12.899-27.254-10.694-12.192" stroke="#243138" stroke-width="4" stroke-miterlimit="10" stroke-linecap="round" stroke-linejoin="round"/><path opacity=".912" fill-rule="evenodd" clip-rule="evenodd" d="M104.913 45.784c.582.624-.167-1.748-.208-2.58-.084-1.706-.125-3.454-.042-5.16.125-4.16.333-18.183 7.864-16.685 3.496.665 2.414 5.492 1.498 7.74-.041.124-1.04 2.371-1.29 2.205-1.04-.791 6.2-5.576 6.908-5.784 1.29-.375 2.829-.5 4.161-.125 12.483 3.578-7.116 18.683-11.443 20.722" fill="#6FCF97"/><path d="M104.913 45.784c.582.624-.167-1.748-.208-2.58-.084-1.706-.125-3.454-.042-5.16.125-4.16.333-18.183 7.864-16.685 3.496.665 2.414 5.492 1.498 7.74-.041.124-1.04 2.371-1.29 2.205-1.04-.791 6.2-5.576 6.908-5.784 1.29-.375 2.829-.5 4.161-.125 12.483 3.578-7.116 18.683-11.443 20.722" stroke="#243138" stroke-width="4" stroke-miterlimit="10" stroke-linecap="round" stroke-linejoin="round"/><path d="M94.094 58.516c0 .042.541-.457.583-.54.457-.458.957-.916 1.414-1.374 1.332-1.29 2.788-2.496 4.245-3.661" stroke="#fff" stroke-width="4" stroke-miterlimit="10" stroke-linecap="round" stroke-linejoin="round"/><path opacity=".912" fill-rule="evenodd" clip-rule="evenodd" d="M100.794 48.738c-.041-.374-9.57.416-10.028.541-1.581.416-3.162 1.248-4.16 2.58-2.414 3.37-2.04 10.444 3.62 8.655.332-.125 3.869-2.122 3.786-2.164-.167-.125-1.415 1.456-1.498 1.54-1.914 2.58-4.744 9.07-.583 11.068 11.568 5.659 16.311-14.73 11.277-21.928" fill="#6FCF97"/><path d="M100.794 48.738c-.041-.374-9.57.416-10.028.541-1.581.416-3.162 1.248-4.16 2.58-2.414 3.37-2.04 10.444 3.62 8.655.332-.125 3.869-2.122 3.786-2.164-.167-.125-1.415 1.456-1.498 1.54-1.914 2.58-4.744 9.07-.583 11.068 11.568 5.659 16.311-14.73 11.277-21.928M77.575 221.17c-.208.499 5.618-1.374 6.117-1.54 2.621-.915 9.57-4.785 12.4-3.204 1.082.583-9.03 6.949-7.656 8.364 2.454 2.538 16.186-6.242 20.513-3.329 1.956 1.331-.624 3.87-1.581 4.91-3.079 3.204-7.115 5.576-9.986 8.988-5.368 6.407 5.783 3.952 8.53 4.868m48.641-105.814c0-.291 4.369-2.247 7.157-3.163 7.823-2.621 16.228-3.578 24.425-3.495m-26.09 10.736c9.071-.999 17.477-1.124 26.464.957m-28.669 5.534c1.373.333 3.163 0 4.619.333 5.825 1.207 11.151 3.994 15.937 7.49m-84.593-44.856c.041 0-.083-.707-.083-.832-.167-1.082-.333-2.122-.583-3.163a43.715 43.715 0 00-2.372-7.156c-2.83-6.825-6.699-12.733-11.567-18.267m5.159 29.335c.375.083-.5-.625-.707-.957a31.92 31.92 0 00-1.04-1.498c-1.082-1.54-2.372-2.996-3.662-4.411-3.162-3.412-8.822-10.07-14.023-10.07m17.144 28.046c0 .041-1.498-.292-1.581-.292-1.457-.166-2.955-.124-4.41 0-4.578.417-9.197 1.498-13.566 2.788" stroke="#243138" stroke-width="4" stroke-miterlimit="10" stroke-linecap="round" stroke-linejoin="round"/></svg>