<svg width="824" height="346" viewBox="0 0 824 346" fill="none" xmlns="http://www.w3.org/2000/svg">
<path d="M399.056 295.045C384.917 295.045 371.927 298.484 357.799 298.484C353.299 298.484 348.8 298.484 344.301 298.484C338.608 298.484 335.308 295.34 330.293 293.39C319.667 289.258 316.062 285.278 309.41 276.963C307.625 274.732 309.665 287.634 309.665 289.57C309.665 292.189 311.314 294.171 309.091 292.69C307.167 291.406 306.349 288.965 304.507 287.532C302.663 286.098 302.915 284.111 302.788 287.278C302.619 291.51 298.247 285.92 297.058 284.731C296.092 283.765 293.272 279.459 294.511 283.33C295.185 285.435 297.074 291.663 295.848 289.824C291.328 283.044 292.474 293.538 292.474 296.764C292.474 300.633 283.628 300.655 280.122 300.776C275.496 300.935 267.011 302.255 262.676 300.521C259.806 299.373 254.885 297.337 251.789 297.337C244.846 297.337 252.65 289.124 254.017 286.514C255.65 283.397 257.536 280.059 254.654 285.368C252.951 288.505 249.843 290.776 247.778 293.645C245.281 297.113 242.445 304.052 242.048 295.3C241.936 292.845 241.747 279.542 240.01 285.622C238.912 289.465 239.709 298.021 236.572 301.158C234.795 302.935 235.658 296.147 234.535 293.899C233.678 292.186 231.105 289.442 228.932 289.442C227.369 289.442 230.587 300.517 230.587 302.495C230.587 305.779 218.345 304.214 215.688 304.214C201.363 304.214 187.037 304.214 172.712 304.214C170.549 304.214 150.332 297.957 150.3 298.038C148.993 301.306 138.314 301.922 134.892 301.922C133.599 301.922 130.997 302.76 129.989 302.558C128.67 302.295 128.383 296.733 126.297 297.592C117.657 301.149 108.072 297.66 98.9187 300.203C95.1465 301.25 90.8189 303.558 87.2672 304.15C81.7917 305.063 76.582 302.804 71.2861 301.922" stroke="#243138" stroke-width="2" stroke-linecap="round"/>
<path d="M498.763 306.506C509.598 308.275 520.298 309.082 531.107 311.345C542.422 313.713 555.943 312.721 566.38 307.652C573.427 304.229 582.453 306.948 589.301 303.322C591.84 301.978 590.99 298.015 591.656 295.682C591.981 294.546 601.365 299.838 602.799 300.776C610.907 306.077 619.616 304.513 628.012 309.435C632.662 312.161 623.31 288.645 631.959 304.214C632.645 305.447 634.716 305.862 635.652 304.659C636.173 303.989 636.298 298.979 636.925 299.248C640.233 300.665 638.415 308.704 642.656 304.214C646.81 299.815 647.221 303.876 644.948 308.098C642.445 312.745 650.522 311.09 653.225 311.09C663.736 311.09 673.874 312.236 684.423 312.236C688.954 312.236 693.084 311.09 697.602 311.09C700.972 311.09 694.617 301.624 693.591 299.63C692.148 296.823 685.405 291.607 688.561 291.607C692.445 291.607 696.122 296.522 698.175 299.375C698.531 299.868 700.471 302.94 701.04 302.94C702.036 302.94 701.596 298.981 701.677 299.184C702.398 300.985 702.652 302.274 702.76 304.214C702.917 307.052 708.489 300.7 709.381 300.139C711.811 298.609 709.568 303.073 709.127 303.641C707.273 306.024 711.098 304.766 711.801 305.996C712.442 307.119 711.548 308.745 712.183 309.944C713.081 311.642 715.284 310.581 716.257 312.236C720.22 318.972 732.889 310.845 738.287 315.674C744.903 321.594 758.882 321.53 766.429 317.966C776.378 313.268 782.086 313.465 792.151 316.82" stroke="#243138" stroke-width="2" stroke-linecap="round"/>
<path fill-rule="evenodd" clip-rule="evenodd" d="M422.969 194.275C412.022 195.88 388.729 240.863 385.436 272.181C383.79 287.697 377.617 323.913 437.085 319.839" fill="white"/>
<path d="M422.969 194.275C412.022 195.88 388.729 240.863 385.436 272.181C383.79 287.697 377.617 323.913 437.085 319.839" stroke="#243138" stroke-width="3" stroke-miterlimit="10" stroke-linecap="round" stroke-linejoin="round"/>
<path fill-rule="evenodd" clip-rule="evenodd" d="M467.582 320.538C471.368 320.785 477.13 321.608 481.533 321.732C509.601 322.513 512.77 291.812 511.782 274.939C510.3 249.258 505.526 233.331 499.97 222.713C493.509 210.367 486.06 205.222 481.615 200.49C466.141 184.028 434.205 190.366 419.76 196.168" fill="white"/>
<path d="M467.582 320.538C471.368 320.785 477.13 321.608 481.533 321.732C509.601 322.513 512.77 291.812 511.782 274.939C510.3 249.258 505.526 233.331 499.97 222.713C493.509 210.367 486.06 205.222 481.615 200.49C466.141 184.028 434.205 190.366 419.76 196.168" stroke="#243138" stroke-width="3" stroke-miterlimit="10" stroke-linecap="round" stroke-linejoin="round"/>
<path d="M431.5 317L417 202.5L436.5 208L482 318L431.5 317Z" fill="white"/>
<path fill-rule="evenodd" clip-rule="evenodd" d="M426.139 149.54C430.83 146.495 437.045 134.56 441.16 135.013C455.4 136.494 446.305 146.906 448.65 148.676C454.083 152.75 467.335 153.079 474.043 154.931C482.48 157.277 480.669 143.984 484.414 143.161C500.3 139.704 490.34 162.175 495.526 164.479C500.094 166.537 515.074 171.928 511.699 191.477C510.712 197.321 508.819 199.337 505.444 204.235C492.357 223.207 421.159 202.712 409.8 187.649C402.434 177.896 398.853 163.615 404.697 155.178C408.36 149.869 417.579 143.367 426.139 149.54Z" fill="white"/>
<path d="M426.139 149.54C430.83 146.495 437.045 134.56 441.16 135.013C455.4 136.494 446.305 146.906 448.65 148.676C454.083 152.75 467.335 153.079 474.043 154.931C482.48 157.277 480.669 143.984 484.414 143.161C500.3 139.704 490.34 162.175 495.526 164.479C500.094 166.537 515.074 171.928 511.699 191.477C510.712 197.321 508.819 199.337 505.444 204.235C492.357 223.207 421.159 202.712 409.8 187.649C402.434 177.896 398.853 163.615 404.697 155.178C408.36 149.869 417.579 143.367 426.139 149.54Z" stroke="#243138" stroke-width="3" stroke-miterlimit="10" stroke-linecap="round" stroke-linejoin="round"/>
<path d="M512.605 181.805C512.399 181.847 513.963 181.065 514.21 180.982C515.321 180.571 516.473 180.241 517.625 179.953C521 179.171 524.91 178.678 528.367 179.46" stroke="#243138" stroke-width="4" stroke-miterlimit="10" stroke-linecap="round" stroke-linejoin="round"/>
<path d="M511.863 194.522C512.275 193.535 520.094 194.111 521.288 194.275" stroke="#243138" stroke-width="4" stroke-miterlimit="10" stroke-linecap="round" stroke-linejoin="round"/>
<path d="M508.077 202.671C508.571 201.683 514.621 205.264 516.061 206.498" stroke="#243138" stroke-width="4" stroke-miterlimit="10" stroke-linecap="round" stroke-linejoin="round"/>
<path d="M407.907 151.886C409.06 148.758 395.191 144.643 391.363 145.054" stroke="#243138" stroke-width="4" stroke-miterlimit="10" stroke-linecap="round" stroke-linejoin="round"/>
<path d="M401.98 159.746C401.939 159.788 401.815 159.788 401.774 159.746C397.412 159.5 392.926 159.582 388.604 160.57" stroke="#243138" stroke-width="4" stroke-miterlimit="10" stroke-linecap="round" stroke-linejoin="round"/>
<path d="M404.12 174.562C402.968 172.998 391.691 178.637 390.251 179.871" stroke="#243138" stroke-width="4" stroke-miterlimit="10" stroke-linecap="round" stroke-linejoin="round"/>
<path fill-rule="evenodd" clip-rule="evenodd" d="M450.872 149.54C450.708 149.417 450.913 149.664 450.913 149.746C451.242 151.392 450.625 153.203 450.419 154.767C450.131 156.784 447.086 163.327 450.337 165.344C453.341 167.237 453.876 159.088 457.004 160.199C460.091 161.269 457.621 167.401 461.613 167.936C464.412 168.307 463.424 161.681 465.112 162.216C467.581 163.039 467.828 171.064 472.437 169.418C474.906 168.513 474.701 164.85 474.906 163.039C476.059 151.927 468.157 151.598 453.876 150.651" fill="#243138"/>
<path fill-rule="evenodd" clip-rule="evenodd" d="M450.707 149.911C450.666 149.911 450.666 149.869 450.625 149.869C450.666 149.911 450.707 149.911 450.707 149.911ZM450.543 149.869C450.666 150.446 450.625 151.104 450.584 151.721C450.46 152.75 450.172 153.779 450.049 154.685C449.843 156.125 448.32 159.705 448.485 162.463C448.567 163.821 449.061 164.973 450.172 165.673C451.037 166.208 451.777 166.084 452.395 165.591C453.341 164.809 454.082 162.998 454.946 161.681C455.481 160.858 456.058 160.24 456.922 160.528C458.074 160.94 458.28 162.134 458.486 163.409C458.691 164.809 458.856 166.331 459.679 167.278C460.132 167.813 460.708 168.183 461.613 168.307C462.354 168.389 462.889 168.101 463.301 167.607C464.042 166.661 464.247 164.767 464.577 163.492C464.659 163.204 464.741 162.957 464.823 162.751C464.865 162.627 464.947 162.545 465.029 162.586C465.729 162.833 466.182 163.739 466.675 164.809C467.375 166.29 468.034 168.019 469.062 169.048C469.927 169.912 471.038 170.364 472.602 169.788C473.713 169.377 474.33 168.513 474.742 167.442C475.236 166.002 475.236 164.191 475.359 163.039C475.935 157.524 474.33 154.602 470.956 152.874C467.334 151.063 461.531 150.693 453.959 150.199C453.712 150.199 453.547 150.363 453.506 150.569C453.506 150.816 453.671 150.981 453.876 151.022C461.325 151.516 467.005 151.804 470.544 153.614C473.631 155.178 475.03 157.936 474.495 162.957C474.371 164.027 474.413 165.755 473.919 167.154C473.631 167.977 473.137 168.677 472.314 168.965C471.12 169.377 470.297 169.089 469.639 168.43C468.486 167.278 467.828 165.179 467.046 163.697C466.552 162.751 465.976 162.01 465.276 161.763C464.782 161.599 464.453 161.763 464.165 162.175C463.671 162.874 463.548 164.767 463.095 166.126C462.848 166.907 462.478 167.566 461.696 167.442C461.037 167.36 460.585 167.113 460.255 166.702C459.391 165.673 459.432 163.903 459.103 162.463C458.815 161.187 458.321 160.158 457.128 159.747C456.263 159.458 455.564 159.705 454.988 160.24C454.041 161.146 453.3 162.915 452.518 164.15C451.983 164.932 451.407 165.467 450.584 164.932C449.39 164.191 449.185 162.792 449.308 161.31C449.514 158.8 450.666 155.96 450.831 154.767C450.954 153.82 451.242 152.791 451.366 151.763C451.448 151.022 451.448 150.322 451.325 149.622C451.325 149.622 451.325 149.581 451.284 149.54C451.284 149.417 451.242 149.252 451.119 149.17C450.872 149.005 450.707 149.087 450.666 149.087C450.543 149.129 450.337 149.293 450.419 149.622C450.46 149.705 450.502 149.828 450.543 149.869Z" fill="#243138"/>
<path d="M439.801 290.701C444.287 291.071 407.577 288.191 402.803 290.701C394.531 295.063 435.192 293.499 440.625 296.751C441.118 297.039 438.155 297.574 437.908 297.615C433.587 298.397 415.685 300.907 415.932 302.8C416.384 305.928 438.402 304.323 442.806 304.241" stroke="#243138" stroke-width="4" stroke-miterlimit="10" stroke-linecap="round" stroke-linejoin="round"/>
<path d="M482.685 289.837C482.109 289.919 483.838 289.713 484.455 289.713C485.648 289.631 486.842 289.631 487.994 289.713C490.381 289.837 494.497 290.084 496.349 291.401C498.324 292.841 482.479 295.804 482.603 297.203C482.726 298.685 496.39 298.027 497.213 301.031C498.159 304.694 487.583 304.447 486.636 304.776" stroke="#243138" stroke-width="4" stroke-miterlimit="10" stroke-linecap="round" stroke-linejoin="round"/>
<path fill-rule="evenodd" clip-rule="evenodd" d="M437.538 319.756C446.016 319.18 450.132 313.007 453.177 308.891C460.05 299.632 466.347 286.709 463.466 274.98C462.108 269.424 447.621 261.81 448.197 269.259C448.486 272.675 458.157 264.156 452.56 277.12C451.119 280.495 445.852 279.713 443.958 279.342C429.349 276.503 441.078 258.847 452.56 259.465C478.734 260.905 480.792 307.821 467.787 319.797" fill="white"/>
<path fill-rule="evenodd" clip-rule="evenodd" d="M437 321C440.128 320.794 443.341 319.427 445.481 318.11C449.35 315.723 451.86 312.143 453.877 309.385C458.033 303.788 461.984 296.833 463.877 289.631C465.153 284.693 465.523 279.631 464.33 274.774C463.548 271.605 458.856 267.778 454.7 266.173C451.942 265.103 449.473 265.103 448.238 266.379C447.662 266.996 447.292 267.984 447.415 269.342C447.539 270.947 448.897 271.194 450.667 270.823C451.284 270.7 451.984 270.494 452.601 270.453C452.971 270.412 453.342 270.412 453.465 270.741C453.753 271.647 453.342 273.375 451.86 276.791C451.407 277.82 450.502 278.355 449.514 278.602C447.58 279.096 445.275 278.725 444.164 278.519C441.654 278.025 439.966 277.12 439.02 275.844C437.867 274.322 437.785 272.387 438.444 270.371C440.09 265.268 446.386 259.917 452.601 260.247C462.725 260.782 469.063 268.436 472.314 278.108C477.211 292.759 473.919 312.719 466.264 319.756C465.935 320.045 466.964 319.962 467.293 320.333C467.581 320.662 468.857 321.238 469.186 320.868C475.73 313.542 478.981 292.841 473.878 277.573C470.421 267.243 463.548 259.177 452.724 258.6C445.81 258.23 438.773 264.156 436.921 269.836C436.098 272.387 436.262 274.857 437.785 276.832C438.937 278.314 440.913 279.548 443.917 280.124C445.193 280.371 447.827 280.783 450.008 280.166C451.49 279.754 452.807 278.931 453.465 277.408C455.194 273.416 455.482 271.276 455.111 270.206C454.823 269.342 454.247 268.93 453.465 268.807C452.807 268.683 451.942 268.848 451.078 269.013C450.625 269.095 450.173 269.218 449.802 269.26C449.638 269.301 449.473 269.301 449.35 269.301C449.267 269.301 449.185 269.26 449.185 269.177C448.979 266.42 451.49 266.585 454.206 267.655C457.869 269.095 462.149 272.346 462.807 275.145C463.918 279.754 463.589 284.528 462.355 289.22C460.503 296.216 456.675 302.965 452.642 308.398C450.996 310.62 449.061 313.419 446.263 315.6C444.041 317.328 440.663 318.253 437 318.5C436.547 318.541 435.458 319.047 435.5 319.5C435.417 319.953 436.506 321.041 437 321Z" fill="#243138" stroke="#243138" stroke-width="0.5"/>
<path fill-rule="evenodd" clip-rule="evenodd" d="M428.731 278.643C428.608 278.643 428.484 278.684 428.361 278.766C426.179 280.248 426.262 281.441 428.237 280.659C428.278 280.618 428.361 280.618 428.402 280.577C428.731 280.454 429.06 280.289 429.472 280.042C430.871 279.26 434.904 276.873 436.098 276.215C436.509 276.009 436.633 275.515 436.427 275.104C436.221 274.692 435.727 274.568 435.316 274.774C434.122 275.474 430.13 277.861 428.731 278.643Z" fill="#243138"/>
<path fill-rule="evenodd" clip-rule="evenodd" d="M452.806 267.86C470.544 262.14 499.064 271.482 521.206 271.317C532.647 271.235 542.441 268.642 548.326 260.452C548.615 260.082 548.491 259.588 548.162 259.3C547.791 259.053 547.298 259.135 547.01 259.464C541.412 267.202 532.07 269.547 521.206 269.63C498.9 269.794 470.174 260.493 452.313 266.255C451.86 266.378 451.654 266.872 451.777 267.284C451.901 267.778 452.354 268.025 452.806 267.86Z" fill="#243138"/>
<path fill-rule="evenodd" clip-rule="evenodd" d="M547.833 259.547C547.874 259.547 547.709 259.794 547.668 259.835C545.981 261.481 541.659 261.563 539.519 261.728C534.951 262.098 522.811 260.535 524.704 253.332C526.473 246.624 535.98 249.052 539.931 251.892C541.412 252.962 542.771 254.197 544.129 255.39C545.034 256.172 546.968 259.053 546.639 257.901C546.022 255.431 526.514 236.994 540.754 234.648C549.767 233.167 551.619 245.554 550.178 251.769C550.096 252.015 549.89 253.538 549.479 253.579C548.944 253.621 549.108 246.336 549.15 245.883C549.479 239.957 551.783 226.17 560.796 228.434C570.632 230.903 562.895 243.949 559.15 248.065C558.862 248.394 554.088 253.332 553.965 253.003C552.771 249.793 570.838 232.879 577.011 242.221C582.608 250.657 567.793 256.995 561.825 257.942C561.372 258.024 558.245 258.559 558.08 257.777C557.957 257.16 560.261 256.625 560.591 256.543C565.488 255.226 583.39 254.814 579.728 264.527C576.353 273.457 555.405 269.342 555.652 263.745C555.693 262.345 559.973 265.555 560.179 265.761C563.019 268.313 570.015 277.079 564.747 280.495C558.615 284.487 548.738 268.971 552.277 265.432C552.36 265.35 552.648 266.173 552.648 266.173C554.006 270.782 552.936 283.499 545.898 282.923C538.079 282.264 544.252 268.601 547.298 265.597" fill="white"/>
<path fill-rule="evenodd" clip-rule="evenodd" d="M561.496 244.361C559.068 246.213 556.928 248.311 555.652 250.081C555.076 250.863 554.665 251.563 554.5 252.139C554.5 252.18 554.459 252.221 554.459 252.262C555.817 251.069 558.698 248.106 558.904 247.818C559.645 246.995 560.591 245.76 561.496 244.361ZM549.85 243.291C549.726 244.278 549.644 245.184 549.603 245.966C549.562 246.295 549.479 250.287 549.644 252.345C549.726 252.057 549.808 251.768 549.808 251.686C550.344 249.381 550.426 246.254 549.85 243.291ZM566.394 256.337C564.048 256.419 561.99 256.666 560.756 256.995C560.591 257.036 559.891 257.201 559.274 257.448C559.068 257.53 558.821 257.695 558.657 257.777H558.698C559.027 257.859 559.48 257.859 559.933 257.818C560.756 257.777 561.62 257.612 561.826 257.571C563.019 257.366 564.665 256.954 566.394 256.337ZM547.421 259.629C547.421 259.67 547.422 259.67 547.463 259.711C547.504 259.794 547.545 259.835 547.627 259.876C547.504 259.835 547.463 259.753 547.421 259.629ZM547.71 259.917C547.792 259.917 547.874 259.958 547.998 259.876C547.915 259.958 547.792 259.958 547.71 259.917ZM556.105 263.868C556.105 264.938 556.969 265.885 558.286 266.749C559.315 267.407 560.632 267.942 562.073 268.395C561.291 267.448 560.509 266.625 559.933 266.131C559.85 266.049 558.821 265.267 557.792 264.65C557.299 264.362 556.805 264.115 556.434 263.95C556.352 263.909 556.187 263.868 556.105 263.868ZM552.278 266.255C551.949 266.872 551.949 267.737 552.113 268.683C552.237 269.465 552.484 270.288 552.813 271.152C552.854 269.259 552.689 267.531 552.319 266.337L552.278 266.255ZM549.603 239.669C549.397 239.134 549.109 238.64 548.862 238.146C547.216 235.348 544.582 233.578 540.713 234.195C538.162 234.607 536.639 235.554 535.857 236.788C535.199 237.817 535.034 239.093 535.281 240.533C535.98 244.443 539.684 249.423 542.648 253.127C543.018 253.579 543.347 253.991 543.676 254.402C543.1 253.909 542.524 253.374 541.948 252.88C541.372 252.386 540.796 251.933 540.178 251.522C537.75 249.793 533.347 248.229 529.807 248.641C527.256 248.929 525.116 250.246 524.334 253.168C523.469 256.378 525.198 258.559 527.873 259.958C531.453 261.851 536.804 262.304 539.561 262.057C540.837 261.975 542.894 261.893 544.664 261.481C545.981 261.193 547.216 260.74 547.957 260.041C547.998 259.999 548.162 259.753 548.203 259.67C548.368 259.341 548.039 259.094 547.998 259.094C547.915 259.053 547.833 259.053 547.668 259.094C547.545 259.135 547.504 259.217 547.463 259.341L547.38 259.464C546.722 260.082 545.693 260.452 544.541 260.699C542.771 261.069 540.796 261.152 539.52 261.234C536.886 261.44 531.742 261.028 528.285 259.218C525.939 257.983 524.416 256.131 525.157 253.374C525.815 250.822 527.708 249.711 529.931 249.423C533.305 249.011 537.462 250.534 539.726 252.139C540.302 252.55 540.878 253.003 541.454 253.456C542.277 254.155 543.1 254.896 543.923 255.596C544.623 256.213 545.94 258.065 546.393 258.353C546.598 258.477 546.763 258.477 546.845 258.436C546.969 258.394 547.257 258.189 547.133 257.695C546.969 256.995 545.364 255.02 543.347 252.55C540.466 248.929 536.804 244.114 536.145 240.327C535.939 239.134 536.022 238.064 536.598 237.2C537.297 236.13 538.656 235.348 540.919 234.977C544.376 234.401 546.722 236.006 548.203 238.517C548.656 239.34 549.068 240.204 549.356 241.151C549.068 242.92 548.903 244.525 548.821 245.801C548.78 246.171 548.697 251.028 548.944 252.839C548.985 253.291 549.109 253.62 549.232 253.744C549.356 253.909 549.52 253.95 549.644 253.909C549.85 253.909 550.097 253.744 550.22 253.415C550.467 252.921 550.632 251.974 550.673 251.768C551.331 248.888 551.29 244.649 550.179 241.068C550.714 238.105 551.619 234.772 553.183 232.261C554.871 229.586 557.258 227.858 560.756 228.763C564.542 229.71 565.53 232.343 565.159 235.389C564.871 237.694 563.801 240.245 562.566 242.467C559.398 244.608 556.599 247.283 554.994 249.464C554.377 250.328 553.924 251.11 553.718 251.727C553.554 252.262 553.512 252.715 553.636 253.044C553.718 253.25 553.883 253.415 554.212 253.291C554.335 253.25 554.541 253.085 554.871 252.839C556.187 251.686 559.274 248.517 559.521 248.229C560.591 247.077 561.949 245.184 563.184 243.003C564.254 242.262 565.406 241.644 566.517 241.109C570.468 239.257 574.46 238.887 576.724 242.344C578.905 245.636 577.753 248.6 575.283 250.987C573.472 252.756 570.921 254.238 568.452 255.349C565.242 255.267 562.196 255.596 560.55 256.049C560.262 256.131 558.862 256.46 558.204 256.872C557.834 257.119 557.669 257.448 557.71 257.777C557.792 258.106 558.122 258.394 558.698 258.477C559.727 258.641 561.579 258.312 561.908 258.271C563.636 257.983 566.065 257.283 568.575 256.213C570.921 256.295 573.349 256.584 575.407 257.283C577.464 257.983 579.07 259.053 579.646 260.699C579.975 261.687 579.934 262.88 579.399 264.362C577.876 268.395 572.691 269.588 567.587 269.259C566.188 269.177 564.748 268.971 563.431 268.642C562.361 267.243 561.291 266.09 560.509 265.391C560.344 265.226 557.998 263.498 556.681 263.045C555.817 262.757 555.323 263.004 555.282 263.662C555.241 264.979 556.188 266.255 557.875 267.325C559.192 268.148 560.961 268.848 562.937 269.342C564.089 270.864 565.159 272.593 565.777 274.321C566.6 276.585 566.558 278.766 564.542 280.083C563.307 280.906 561.867 280.783 560.468 280.165C558.657 279.342 556.887 277.696 555.406 275.721C554.665 274.733 554.006 273.704 553.471 272.634C553.677 270.041 553.512 267.572 553.06 266.008C553.06 265.967 552.813 265.391 552.689 265.185C552.442 264.815 552.113 264.938 551.99 265.061C551.208 265.843 550.961 267.16 551.208 268.724C551.413 269.959 551.907 271.399 552.607 272.799C552.442 274.609 552.072 276.42 551.455 278.025C550.426 280.7 548.656 282.676 545.94 282.429C542.853 282.182 542.236 279.671 542.648 276.708C543.224 272.552 545.899 267.448 547.627 265.761C547.792 265.596 547.792 265.35 547.627 265.185C547.463 265.02 547.216 265.02 547.051 265.185C545.281 266.955 542.483 272.222 541.866 276.585C541.372 280.042 542.277 282.923 545.899 283.211C549.027 283.458 551.084 281.276 552.278 278.272C552.772 276.955 553.142 275.474 553.348 273.992C553.801 274.733 554.253 275.474 554.788 276.132C556.352 278.19 558.245 279.96 560.179 280.824C561.867 281.565 563.554 281.647 565.036 280.7C567.423 279.136 567.546 276.626 566.6 273.992C566.065 272.469 565.159 270.947 564.213 269.547C565.324 269.753 566.435 269.918 567.587 270C573.061 270.329 578.617 268.889 580.222 264.568C580.839 262.921 580.88 261.522 580.469 260.37C579.81 258.477 578.041 257.242 575.695 256.46C574.049 255.884 572.114 255.596 570.18 255.431C572.279 254.402 574.337 253.085 575.859 251.563C578.617 248.888 579.851 245.554 577.382 241.85C574.872 238.064 570.509 238.311 566.147 240.327C565.406 240.657 564.665 241.068 563.925 241.521C564.912 239.546 565.694 237.405 565.941 235.43C566.394 231.973 565.242 228.969 560.92 227.899C557.011 226.911 554.294 228.804 552.442 231.767C551.084 234.154 550.179 236.994 549.603 239.669Z" fill="#243138" stroke="#243138"/>
<path fill-rule="evenodd" clip-rule="evenodd" d="M550.178 256.008C550.302 256.09 549.89 256.008 549.767 256.09C548.367 256.954 547.832 258.93 547.709 260.452C547.544 262.88 548.779 265.638 551.66 265.35C562.566 264.321 554.417 250.41 549.026 255.843" fill="#FEC71A"/>
<path fill-rule="evenodd" clip-rule="evenodd" d="M549.85 256.254C549.85 256.254 549.85 256.296 549.85 256.254V256.254ZM549.932 256.46C549.438 256.789 549.109 257.242 548.821 257.777C548.368 258.641 548.162 259.629 548.121 260.493C548.039 261.605 548.286 262.798 548.862 263.703C549.438 264.568 550.343 265.103 551.578 264.979C553.636 264.774 554.953 264.115 555.735 263.21C556.722 262.016 556.764 260.37 556.229 258.93C555.241 256.213 552.319 253.868 549.808 255.719C549.849 255.719 549.891 255.719 549.932 255.719C550.096 255.637 550.261 255.637 550.426 255.761C550.59 255.925 550.59 256.049 550.59 256.172C550.59 256.296 550.508 256.419 550.384 256.501C550.343 256.543 550.302 256.543 550.22 256.543C550.138 256.46 549.973 256.46 549.932 256.46ZM548.903 256.254C548.574 256.584 548.327 256.954 548.08 257.407C547.586 258.353 547.339 259.506 547.298 260.452C547.216 261.769 547.504 263.127 548.203 264.156C548.944 265.226 550.096 265.926 551.701 265.802C554.047 265.597 555.529 264.774 556.434 263.745C557.628 262.304 557.71 260.411 557.093 258.641C555.858 255.184 551.866 252.468 548.738 255.596C548.574 255.761 548.574 256.008 548.738 256.172C548.738 256.213 548.821 256.254 548.903 256.254Z" fill="#FEC71A"/>
<path fill-rule="evenodd" clip-rule="evenodd" d="M427.66 229.504C427.701 229.545 428.195 235.019 428.113 235.019C422.598 233.496 419.964 230.944 419.594 228.722C419.265 226.582 423.586 226.294 426.467 225.841C431.117 225.1 463.012 225.8 463.506 228.969C464.123 232.837 432.969 229.051 427.66 229.504C426.714 229.586 431.364 230.574 432.105 231.479C434.945 234.813 444.122 235.718 461.778 234.772C463.918 234.648 474.988 233.496 475.153 236.336C475.523 241.933 457.58 236.253 457.827 238.887C458.156 242.426 478.569 243.455 480.462 245.431C482.149 247.2 451.53 246.912 450.049 246.789C392.72 243.044 426.179 238.517 445.192 241.068C452.929 242.097 427.907 235.183 428.154 234.977" fill="#243138"/>
<path d="M427.66 229.504C427.701 229.545 428.195 235.019 428.113 235.019C422.598 233.496 419.964 230.944 419.594 228.722C419.265 226.582 423.586 226.294 426.467 225.841C431.117 225.1 463.012 225.8 463.506 228.969C464.123 232.837 432.969 229.051 427.66 229.504ZM427.66 229.504C426.714 229.586 431.364 230.574 432.105 231.479C434.945 234.813 444.122 235.718 461.778 234.772C463.918 234.648 474.988 233.496 475.153 236.336C475.523 241.933 457.58 236.253 457.827 238.887C458.156 242.426 478.569 243.455 480.462 245.431C482.149 247.2 451.53 246.912 450.049 246.789C392.72 243.044 426.179 238.517 445.192 241.068C452.929 242.097 427.907 235.183 428.154 234.977" stroke="#243138" stroke-miterlimit="10" stroke-linecap="round" stroke-linejoin="round"/>
<path d="M378.588 63.7466C387.679 57.1124 401.992 49.4445 412.73 57.7959C415.226 59.7374 417.15 61.534 418.755 64.3417C422.166 70.311 421.897 66.109 423.069 61.8126C424.91 55.0634 436.757 51.6965 442.855 51.6965C445.564 51.6965 448.907 51.1818 451.558 51.7709" stroke="#243138" stroke-width="2" stroke-linecap="round"/>
<path d="M562.017 61.0689C567.698 57.7434 572.974 55.3786 579.422 58.0936C582.794 59.5133 584.863 61.038 587.233 64.1186C588.933 66.3293 588.676 62.6749 589.613 61.7384C592.646 58.7051 596.892 59.5456 600.175 57.7217C604.01 55.5913 606.348 62.1125 607.539 59.73" stroke="#243138" stroke-width="2" stroke-linecap="round"/>
<path d="M607.539 91.8637C609.898 91.8637 620.605 90.3505 622.862 92.6075C625.132 94.8775 625.384 99.3057 628.961 97.5168C632.416 95.7897 635.195 95.8804 639.003 95.8804C642.906 95.8804 645.361 101.577 646.367 98.5582" stroke="#243138" stroke-width="2" stroke-linecap="round"/>
</svg>
