<svg width="1440" height="855" viewBox="0 0 1440 855" fill="none" xmlns="http://www.w3.org/2000/svg">
<path d="M-3 822.282C-1.70826 822.528 -0.287351 822.774 1.39191 823.266C7.59225 823.389 3.32951 827.568 13.6634 825.97C17.797 829.658 34.7187 822.528 44.2776 825.847C61.9744 825.97 68.5623 823.88 85.8715 825.478C95.1721 818.84 115.065 832.24 127.465 825.601C143.354 814.661 155.238 829.535 166.476 832.485C171.255 822.651 182.364 846.868 186.756 832.24C196.186 840.599 211.558 830.273 221.375 832.117C235.713 829.904 248.76 839.37 261.806 837.771C274.853 848.098 288.028 838.878 302.367 842.074C318.126 849.45 332.206 845.393 348.223 838.755C359.849 842.197 370.829 852.769 381.809 835.313C392.788 841.459 403.768 835.067 415.652 832.117C427.019 829.535 438.387 817.119 449.754 832.363C461.121 821.913 472.489 841.214 483.856 831.994C501.682 825.233 514.212 829.043 530.1 839.247C543.276 841.705 544.051 844.901 557.872 848.344C578.153 852.4 598.95 846.991 619.747 849.327C640.544 832.362 661.47 856.457 681.879 848.221C700.48 853.752 722.44 861.497 739.62 845.27C758.221 830.15 774.109 831.994 795.035 832.117C809.632 822.159 826.812 831.01 839.084 829.166C844.638 835.927 849.418 824.987 855.36 820.192C862.852 815.275 870.86 816.996 878.223 810.235C887.395 820.438 892.303 805.81 904.962 799.663C923.693 798.925 943.456 799.786 962.315 799.663C977.945 800.769 993.446 788.476 1008.95 793.885C1024.58 794.377 1040.08 800.278 1055.97 790.074C1064.1 782.084 1069.4 780.855 1076.89 792.779C1085.93 781.715 1094.59 785.649 1103.76 793.517C1117.71 802.736 1134.38 806.67 1148.07 793.394C1164.73 797.942 1179.46 787.37 1196.64 796.836C1203.35 793.394 1217.05 799.171 1223.12 797.204C1226.73 792.779 1228.8 819.701 1231 805.81C1243.01 810.727 1264.19 824.003 1274.79 819.455C1288.48 830.273 1292.48 823.512 1324.26 820.192C1339.12 823.143 1352.42 831.871 1372.57 823.757C1387.56 832.117 1410.03 822.528 1420.11 819.455C1423.98 818.226 1432.12 815.275 1440 813.308V681.773C1439.1 681.281 1439.22 680.297 1440 678.699V0H0.10017C-0.93322 1.72103 -1.96661 3.44205 -3 5.16308V28.8887C-1.70826 30.2409 -0.158177 31.4702 1.65026 32.6995C-0.0290036 34.0518 -1.57909 35.2811 -3 36.6333V822.282Z" fill="#F4F4F4"/>
</svg>
