<svg width="189" height="189" viewBox="0 0 189 189" fill="none" xmlns="http://www.w3.org/2000/svg">
<g clip-path="url(#clip0_1294_2562)">
<path fill-rule="evenodd" clip-rule="evenodd" d="M59.7645 57.5614C59.8063 57.7705 59.3024 57.4362 59.0839 57.4364C57.1093 57.1786 54.772 58.3856 53.2249 59.3912C48.718 62.4244 46.0998 67.6906 44.7171 72.7966C39.5151 92.0234 48.2455 112.075 47.8082 131.524C47.6427 138.127 45.2852 143.167 43.4478 149.277C43.3635 149.512 43.2961 149.83 43.4304 150.064C43.5479 150.214 43.6906 150.273 43.8755 150.323C50.5806 151.288 58.2609 151.884 65.0343 151.66C73.2027 151.419 78.5089 147.356 85.7119 146.002C89.2504 145.338 90.5123 143.781 93.7803 144.824C104.097 148.112 114.594 147.275 123.843 141.074C125.659 139.884 129.62 137.396 129.865 134.91C129.984 133.755 126.944 131.883 126.306 131.097C122.469 126.556 116.676 120.971 114.697 115.449C111.562 106.765 107.835 92.2829 103.487 77.9681C95.8616 52.9529 82.9414 48.0098 66.4824 53.5638" fill="#FEC71A"/>
<path fill-rule="evenodd" clip-rule="evenodd" d="M50.1881 63.2182C50.2309 62.3395 46.1902 70.1089 46.1054 70.996C45.9782 72.3267 45.893 73.6488 45.9003 74.9962C45.9394 78.2515 46.3398 81.5651 46.8999 84.8032C48.8735 95.7642 60.9766 112.575 66.5133 123.432C68.2414 126.828 65.0919 143.643 72.1173 143.587C84.9496 143.501 74.7834 122.17 76.9668 123.909C84.424 129.727 79.1394 166.243 92.9358 159.176C99.5188 155.815 84.1385 129.392 87.2372 122.377C87.6583 121.422 86.7773 119.858 86.9111 120.527C90.7995 142.374 97.7203 136.988 97.8043 136.971C108.042 133.966 98.2036 122.576 96.8303 117.021C93.8663 104.822 99.541 102.165 100.834 84.3722C101.285 77.8862 98.9728 70.0386 96.7835 65.4294C88.7315 48.1136 61.4393 45.3921 50.1881 63.2182Z" fill="white"/>
<path fill-rule="evenodd" clip-rule="evenodd" d="M98.3361 64.7036C100.599 69.4713 103.022 77.6143 102.544 84.4871L102.544 84.4924C101.97 92.3853 100.542 97.4068 99.3914 101.454C99.2162 102.07 99.0475 102.663 98.8891 103.241C97.7251 107.487 97.1054 110.891 98.4954 116.614C98.7832 117.775 99.5477 119.335 100.534 121.292C100.572 121.368 100.611 121.444 100.65 121.522C101.563 123.333 102.601 125.391 103.293 127.395C104.001 129.449 104.464 131.763 103.8 133.875C103.105 136.086 101.322 137.661 98.5128 138.539C98.4427 138.581 98.3583 138.628 98.261 138.679C97.9595 138.835 97.5298 139.021 96.9967 139.144C95.8921 139.398 94.4226 139.357 92.8759 138.397C92.447 138.131 92.0245 137.802 91.61 137.403C91.8444 138.106 92.0833 138.816 92.3233 139.53C92.5554 140.22 92.7886 140.913 93.0198 141.606C94.3302 145.537 95.5881 149.509 96.0812 152.735C96.327 154.343 96.4077 155.908 96.1336 157.254C95.8516 158.638 95.1483 159.963 93.7157 160.695C91.7576 161.697 89.8733 162.061 88.1275 161.572C86.3825 161.083 85.1242 159.839 84.2097 158.363C82.4371 155.501 81.5402 151.072 80.8786 146.627C80.6081 144.81 80.376 142.984 80.1476 141.187C80.0874 140.714 80.0275 140.242 79.9672 139.773C79.8518 140.168 79.713 140.552 79.5477 140.922C78.9861 142.181 78.1104 143.301 76.8204 144.096C75.5404 144.885 73.97 145.281 72.1281 145.294C70.8767 145.304 69.7765 144.928 68.8703 144.22C67.9929 143.533 67.3853 142.606 66.9529 141.631C66.1041 139.719 65.7739 137.26 65.6185 134.92C65.51 133.286 65.4815 131.567 65.4556 130.009C65.4443 129.326 65.4335 128.674 65.4166 128.073C65.3882 127.058 65.3435 126.185 65.2598 125.478C65.1712 124.73 65.0567 124.349 64.9843 124.206C63.2768 120.858 60.9632 116.981 58.4885 112.835C56.9788 110.305 55.4092 107.675 53.8807 105.003C49.9304 98.0982 46.2586 90.916 45.2127 85.1072L45.2107 85.0958C44.6414 81.8045 44.2269 78.3953 44.1863 75.0195L44.1862 75.0082C44.1786 73.5843 44.2687 72.2011 44.3991 70.8371C44.4232 70.5847 44.495 70.3531 44.5349 70.23C44.5854 70.0747 44.6483 69.9075 44.7152 69.7406C44.8498 69.4048 45.0287 69.001 45.2298 68.5683C45.6337 67.699 46.1578 66.6477 46.6743 65.6591C47.1884 64.6752 47.7111 63.7226 48.1122 63.0593C48.2991 62.7502 48.5089 62.4206 48.7009 62.1862C48.7528 62.1228 48.8312 62.0318 48.9305 61.9395L48.9335 61.9367C48.9519 61.9197 48.9868 61.8871 49.0371 61.8466C55.0857 52.6587 65.1947 48.801 74.803 49.4425C84.5449 50.0929 94.0006 55.387 98.3361 64.7036ZM89.0114 122.388C89.8722 126.592 90.8399 129.543 91.7965 131.595C92.913 133.989 93.961 135.045 94.6927 135.499C95.3727 135.921 95.8922 135.896 96.2304 135.818C96.4187 135.774 96.5739 135.707 96.6821 135.651C96.7348 135.624 96.7753 135.6 96.8037 135.582C96.8207 135.572 96.8291 135.566 96.8528 135.551C96.8559 135.549 96.8651 135.543 96.8776 135.535C96.8882 135.529 96.9011 135.521 96.9146 135.513C96.9232 135.507 96.9411 135.497 96.9652 135.483C96.9787 135.476 96.9943 135.467 97.0112 135.459C97.0346 135.446 97.0778 135.425 97.1334 135.401C97.1603 135.39 97.2278 135.361 97.3224 135.333C99.501 134.694 100.251 133.744 100.529 132.86C100.857 131.817 100.693 130.373 100.05 128.509C99.4357 126.728 98.4897 124.851 97.5435 122.974L97.4694 122.827C96.5452 120.993 95.5654 119.048 95.1659 117.432L95.1643 117.425C93.5912 110.951 94.3269 106.927 95.5823 102.347C95.7462 101.75 95.9185 101.143 96.0955 100.52C97.2376 96.4988 98.5769 91.7837 99.1243 84.2544C99.5475 78.1588 97.3479 70.6123 95.2338 66.1614L95.2279 66.1488C91.51 58.1535 83.2956 53.4312 74.5678 52.8485C65.8648 52.2675 56.8795 55.8213 51.6387 64.1246C51.5146 64.3212 51.3554 64.4856 51.1734 64.6132C51.1355 64.6733 51.0936 64.7411 51.048 64.8166C50.7008 65.3907 50.216 66.2711 49.7147 67.2306C49.2158 68.1855 48.7165 69.188 48.3404 69.9975C48.1514 70.4041 48.001 70.746 47.8986 71.0015C47.8517 71.1183 47.8206 71.2031 47.8017 71.2593C47.6835 72.518 47.6078 73.7437 47.6141 74.9784C47.6522 78.1095 48.0378 81.3235 48.588 84.5047C49.517 89.6561 52.8826 96.3573 56.86 103.31C58.3091 105.843 59.8419 108.412 61.3391 110.922C63.8659 115.159 66.2913 119.225 68.0417 122.657L68.0424 122.659C68.4021 123.365 68.567 124.252 68.6642 125.073C68.7665 125.936 68.8142 126.933 68.8433 127.971C68.8623 128.651 68.8738 129.348 68.8854 130.055C68.9104 131.573 68.9362 133.14 69.039 134.689C69.1905 136.969 69.4981 138.916 70.0887 140.247C70.376 140.894 70.6885 141.297 70.9903 141.533C71.2632 141.747 71.6015 141.884 72.1065 141.88L72.1087 141.88C73.4738 141.871 74.3921 141.581 75.0202 141.194C75.639 140.813 76.0914 140.267 76.4154 139.54C77.1014 138.003 77.1586 135.778 76.8354 133.285C76.5422 131.023 75.9753 128.797 75.5335 127.063C75.4983 126.925 75.4639 126.79 75.4306 126.658C75.2205 125.83 75.013 125 74.9532 124.432C74.9371 124.28 74.923 124.075 74.9407 123.857C74.9535 123.7 75.0004 123.221 75.3538 122.78C75.5609 122.521 75.8625 122.291 76.2516 122.176C76.6238 122.065 76.9577 122.095 77.194 122.151C77.6069 122.248 77.9007 122.465 78.0317 122.569C79.3168 123.575 80.1884 125.115 80.8277 126.768C81.4787 128.452 81.9608 130.445 82.3531 132.553C82.8308 135.12 83.2039 138.045 83.5719 140.929C83.7987 142.706 84.0234 144.468 84.2695 146.121C84.9434 150.649 85.7783 154.388 87.1282 156.567C87.7749 157.611 88.4254 158.107 89.0613 158.285C89.6958 158.463 90.6637 158.422 92.1539 157.659L92.1558 157.658C92.369 157.549 92.625 157.313 92.7741 156.581C92.9309 155.811 92.9143 154.706 92.6923 153.255C92.25 150.362 91.0908 146.66 89.7663 142.687C89.5431 142.018 89.3155 141.341 89.0867 140.662C87.9807 137.375 86.85 134.016 86.0855 131.039C85.6227 129.238 85.2758 127.511 85.1537 125.972C85.0496 124.66 85.0953 123.342 85.4764 122.191C85.3915 121.753 85.308 121.303 85.2259 120.842C85.2093 120.756 85.1902 120.635 85.1847 120.498L85.1844 120.491C85.1807 120.41 85.1625 120.001 85.3936 119.571C85.5433 119.293 85.8513 118.915 86.3895 118.742C86.9062 118.576 87.3475 118.692 87.5869 118.791C87.9872 118.957 88.219 119.231 88.2716 119.293L88.2751 119.297C88.541 119.611 88.708 120.017 88.7986 120.274C88.9473 120.694 89.1704 121.517 89.0114 122.388ZM47.7845 71.315C47.7844 71.3151 47.7853 71.3113 47.7877 71.3032C47.7859 71.3108 47.7847 71.3148 47.7845 71.315ZM48.4742 63.2478C48.4736 63.2116 48.4742 63.1751 48.476 63.1384C48.476 63.1388 48.4759 63.1396 48.4759 63.1407C48.4752 63.1505 48.4725 63.1886 48.4742 63.2478ZM85.5343 121.334C85.529 121.324 85.5267 121.319 85.5268 121.319C85.5269 121.319 85.5296 121.324 85.5343 121.334Z" fill="#243138"/>
<path fill-rule="evenodd" clip-rule="evenodd" d="M52.4322 24.83L52.18 24.8804C50.7681 25.0323 49.3058 25.1508 47.9106 25.3863C44.9017 25.8575 41.5985 26.6051 39.336 28.8414C34.7352 33.3727 34.6235 45.7079 37.7953 51.0778C41.1013 56.6818 58.1561 61.5376 60.4161 62.1298C65.9948 63.5812 71.9534 62.9987 77.6177 62.6926C93.3245 61.9009 105.722 58.7687 104.63 39.3213C104.374 34.5431 101.176 30.3533 96.1259 30.0145C95.2436 29.9734 91.2676 31.073 90.6882 30.5798C89.3028 29.3341 91.1856 19.2987 86.7483 19.6205C83.9917 19.8237 82.2314 24.3525 80.4399 26.1031C78.2027 28.2473 74.8331 28.0077 71.9846 27.7507C71.3123 27.6676 63.2123 26.7205 62.9519 26.5115C61.0291 24.7641 62.2057 15.131 57.6242 16.9174C56.2035 17.4626 55.1099 18.7689 54.4533 20.075C53.9818 20.9959 53.5775 22.0339 53.3077 23.0886" fill="white"/>
<path fill-rule="evenodd" clip-rule="evenodd" d="M63.9915 24.9936C64.1712 25.0233 64.3867 25.0568 64.6337 25.0934C65.4226 25.2103 66.4666 25.3491 67.5346 25.4854C69.1954 25.6973 70.8709 25.8978 71.7058 25.9977C71.9214 26.0234 72.0809 26.0425 72.1697 26.0534C73.5993 26.1821 74.9742 26.2835 76.241 26.1327C77.4856 25.9845 78.4848 25.607 79.2464 24.8802C79.5584 24.5737 79.9192 24.0929 80.3768 23.4224C80.5014 23.24 80.6345 23.0413 80.7738 22.8334C81.1079 22.3348 81.4773 21.7833 81.8483 21.2771C82.3826 20.5478 83.0152 19.7754 83.7576 19.161C84.5067 18.5411 85.4625 18.004 86.6247 17.9184L86.6268 17.9182C87.5224 17.8533 88.3594 18.0508 89.0779 18.5212C89.7721 18.9755 90.243 19.61 90.5679 20.2438C91.1941 21.4651 91.4376 23.0065 91.5686 24.3437C91.6446 25.1191 91.6951 26.0338 91.7394 26.8362C91.7674 27.3436 91.7929 27.806 91.8209 28.1601C91.8455 28.4728 91.8729 28.7367 91.9035 28.9555C92.2168 28.9177 92.5875 28.8586 92.9966 28.7863C93.2806 28.7361 93.5686 28.6821 93.8556 28.6282L93.8966 28.6205C94.1665 28.5698 94.4373 28.5189 94.6882 28.4745C95.1307 28.3961 95.7555 28.2885 96.209 28.3096C96.2207 28.3102 96.2324 28.3108 96.2441 28.3116C102.351 28.7213 106.05 33.7948 106.342 39.2252C106.91 49.3511 103.953 55.6696 98.3812 59.4169C93.019 63.023 85.5468 64.0017 77.7048 64.3972C77.0708 64.4315 76.4268 64.47 75.7745 64.509C70.7368 64.8101 65.2056 65.1408 59.9802 63.7814L59.9773 63.7806C58.8041 63.4732 53.9024 62.0904 48.8554 60.0668C46.3335 59.0556 43.7301 57.8667 41.5239 56.5502C39.3718 55.266 37.3708 53.7305 36.3171 51.9443C34.4965 48.8615 33.7242 44.0594 33.9389 39.567C34.1516 35.1165 35.3634 30.3565 38.1307 27.63C40.821 24.9718 44.6356 24.1723 47.6372 23.7018C48.7611 23.5126 49.9412 23.3934 51.0391 23.2825C51.2282 23.2634 51.415 23.2446 51.5986 23.2256C51.5842 23.0438 51.5991 22.8566 51.6468 22.6699C51.9495 21.4871 52.3995 20.3326 52.9237 19.3075C53.684 17.7977 55.0392 16.0831 57.006 15.3266C57.8063 15.0153 58.65 14.8885 59.4841 15.0835C60.3323 15.2818 60.9746 15.7669 61.4407 16.3281C62.2959 17.358 62.7011 18.8248 62.9608 20.0278C63.0994 20.6697 63.2139 21.3324 63.319 21.9484C63.3264 21.9918 63.3338 22.035 63.3411 22.0779C63.4398 22.6572 63.5304 23.1887 63.6314 23.6772C63.7407 24.206 63.8493 24.6183 63.9639 24.9228C63.9734 24.948 63.9826 24.9716 63.9915 24.9936ZM54.129 24.5854C54.2579 25.4768 53.6646 26.324 52.7669 26.5035L52.5147 26.5539C52.4639 26.5641 52.4126 26.572 52.3611 26.5775C52.0008 26.6162 51.647 26.652 51.2986 26.6873C50.2217 26.7962 49.197 26.8999 48.1942 27.0692L48.174 27.0725C45.1598 27.5445 42.3741 28.2414 40.5424 30.0519L40.5402 30.054C38.7076 31.859 37.5634 35.5316 37.363 39.7234C37.1646 43.8736 37.9222 47.9235 39.2731 50.2106L39.2735 50.2114C39.8728 51.2273 41.2434 52.4002 43.2896 53.6211C45.2815 54.8098 47.703 55.9225 50.1405 56.8998C55.0088 58.8518 59.761 60.1924 60.8526 60.4786C65.5131 61.691 70.4645 61.4001 75.5696 61.1003C76.2199 61.0621 76.8727 61.0238 77.5278 60.9884L77.534 60.988C85.3977 60.5917 91.9764 59.6082 96.4661 56.5889C100.746 53.7107 103.442 48.74 102.919 39.4196L102.919 39.4154C102.698 35.302 100.016 32.0044 96.042 31.72C96.0397 31.7203 96.0345 31.7209 96.0261 31.7219C95.9661 31.7286 95.7454 31.7535 95.2828 31.8354C95.0501 31.8766 94.7953 31.9245 94.5192 31.9763L94.4852 31.9827C94.1998 32.0363 93.8948 32.0935 93.5904 32.1473C92.995 32.2526 92.3407 32.3566 91.7767 32.3964C91.498 32.4161 91.1795 32.4252 90.8715 32.3932C90.6433 32.3695 90.0641 32.296 89.5732 31.8781C89.5615 31.8681 89.5499 31.858 89.5384 31.8476C88.9417 31.3111 88.7305 30.5513 88.6319 30.1195C88.5136 29.6017 88.4488 29.0082 88.4034 28.4333C88.3592 27.8733 88.3321 27.354 88.305 26.8366C88.2689 26.1456 88.233 25.458 88.1568 24.6811C88.0307 23.3939 87.8264 22.409 87.5143 21.8002C87.3701 21.519 87.2492 21.4125 87.1916 21.3748C87.1584 21.3531 87.0838 21.3076 86.8712 21.3228C86.6552 21.3389 86.3575 21.4442 85.9457 21.785C85.5268 22.1316 85.0905 22.6389 84.6162 23.2861C84.2889 23.7328 83.9879 24.1823 83.6733 24.6521C83.5236 24.8755 83.3709 25.1036 83.2108 25.3382C82.7512 26.0114 82.2217 26.7513 81.6393 27.3204L81.6274 27.3319C80.1525 28.7455 78.3504 29.3188 76.6421 29.5222C74.9607 29.7224 73.236 29.5778 71.827 29.4507C71.8081 29.449 71.7893 29.4469 71.7705 29.4446C71.703 29.4363 71.5484 29.4178 71.3261 29.3912C70.509 29.2935 68.7767 29.0863 67.093 28.8714C66.0194 28.7344 64.9476 28.5921 64.1235 28.47C63.714 28.4093 63.3489 28.3512 63.0698 28.2993C62.9334 28.2739 62.793 28.2456 62.6691 28.2146C62.6092 28.1997 62.5253 28.1772 62.4356 28.1463C62.4347 28.146 62.4333 28.1455 62.4314 28.1449C62.3907 28.1314 62.1274 28.0439 61.8748 27.8411C61.8477 27.8193 61.8212 27.7967 61.7954 27.7733C61.2604 27.2871 60.9509 26.6495 60.7538 26.126C60.5469 25.5762 60.3961 24.9632 60.2737 24.371C60.1601 23.8212 60.0598 23.2322 59.9637 22.6681C59.9556 22.6204 59.9475 22.573 59.9394 22.5258C59.8335 21.905 59.7302 21.3108 59.6093 20.7509C59.3502 19.5505 59.0703 18.8348 58.7974 18.5063C58.7451 18.4433 58.7108 18.4177 58.699 18.4099C58.6966 18.4083 58.6949 18.4072 58.6937 18.4066C58.6913 18.4061 58.6857 18.4053 58.6764 18.4048C58.6632 18.4041 58.6402 18.4041 58.6057 18.4079C58.5356 18.4157 58.4184 18.4398 58.2467 18.5067L58.2381 18.5101C57.3683 18.8438 56.5386 19.7372 55.9856 20.8371L55.98 20.8481C55.5627 21.6635 55.2051 22.583 54.9686 23.5074C54.8462 23.9858 54.5321 24.3654 54.129 24.5854ZM91.2327 28.9979C91.2014 28.9946 91.2095 28.9924 91.2456 28.9989C91.24 28.9985 91.2358 28.9982 91.2327 28.9979ZM92.0294 29.5493C92.0324 29.5555 92.0337 29.5589 92.0337 29.559C92.0336 29.5592 92.0321 29.5561 92.0294 29.5493Z" fill="#243138"/>
<path fill-rule="evenodd" clip-rule="evenodd" d="M56.34 33.8982C56.8133 33.8978 57.1967 34.2795 57.1963 34.7509C57.1955 35.5863 57.5085 36.1296 57.9722 36.4999C58.4663 36.8944 59.197 37.1404 60.0675 37.2028C60.9305 37.2646 61.8625 37.1399 62.6885 36.8646C63.5243 36.5861 64.1796 36.1782 64.5587 35.7327C64.865 35.3728 65.4058 35.3278 65.7666 35.6322C66.1275 35.9366 66.1717 36.4751 65.8655 36.8349C65.2183 37.5954 64.2508 38.1429 63.2299 38.4831C62.1992 38.8266 61.0406 38.984 59.9415 38.9052C58.8499 38.827 57.7471 38.5098 56.8985 37.8322C56.0196 37.1303 55.4811 36.0926 55.4823 34.7523C55.4827 34.281 55.8667 33.8986 56.34 33.8982Z" fill="#243138"/>
<path fill-rule="evenodd" clip-rule="evenodd" d="M74.8718 34.5237C75.1646 34.4839 75.3798 34.6012 75.4705 34.6614C75.7462 34.8443 75.8808 35.1591 75.8462 35.4662C75.9215 35.6646 76.0715 35.8888 76.2837 36.1606C76.294 36.1738 76.3039 36.1873 76.3134 36.201C76.7927 36.8957 77.4573 37.4694 78.1882 37.7288L78.1933 37.7306L78.1933 37.7306C79.0423 38.038 80.5447 38.0135 81.8681 37.5416C83.211 37.0627 83.9825 36.2825 84.0206 35.3632C84.0402 34.8922 84.4394 34.5255 84.9123 34.5442C85.3852 34.5628 85.7527 34.9597 85.7332 35.4307C85.6511 37.407 84.0175 38.5871 82.4435 39.1484C80.851 39.7162 78.9261 39.8121 77.6078 39.3358C76.4669 38.9301 75.5426 38.0927 74.9147 37.1902C74.6772 36.8849 74.3579 36.4464 74.194 35.9325C74.1845 35.9025 74.1766 35.872 74.1704 35.8411C74.1703 35.8406 74.1702 35.84 74.1701 35.8393C74.1653 35.8154 74.1436 35.7074 74.1304 35.6021C74.1253 35.5621 74.1123 35.4576 74.1193 35.3471C74.1213 35.3146 74.1261 35.2629 74.1396 35.2017C74.1509 35.1504 74.1806 35.0333 74.2632 34.9075C74.3543 34.7687 74.5494 34.5676 74.8718 34.5237ZM75.8296 35.373C75.8296 35.3731 75.8299 35.3755 75.8302 35.38C75.8296 35.3751 75.8295 35.3728 75.8296 35.373Z" fill="#243138"/>
<path fill-rule="evenodd" clip-rule="evenodd" d="M68.8452 40.5755C68.9368 40.2891 69.1778 40.0593 69.4947 39.996C70.4612 39.8027 71.3149 40.0188 71.9539 40.5536C72.5695 41.0688 72.9072 41.8122 73.0212 42.5547C73.2434 44.0018 72.6486 45.8347 70.9435 46.562L70.9424 46.5624C70.0187 46.955 69.1243 46.9454 68.3627 46.5927C67.6209 46.2492 67.0928 45.6216 66.7869 44.9293C66.191 43.5805 66.3305 41.6813 67.7747 40.5622C68.0974 40.3122 68.5427 40.3276 68.8452 40.5755ZM69.1172 41.4923C69.0665 41.6518 68.9684 41.7981 68.8258 41.9086C68.1509 42.4316 67.9938 43.4198 68.356 44.2397C68.5292 44.6317 68.7939 44.9088 69.0876 45.0448C69.3615 45.1716 69.7454 45.2164 70.2715 44.9929C71.0628 44.655 71.466 43.7216 71.3269 42.8156C71.2603 42.3814 71.0774 42.0516 70.8499 41.8611C70.6458 41.6903 70.3337 41.5685 69.8294 41.6694C69.567 41.7218 69.3088 41.649 69.1172 41.4923Z" fill="#243138"/>
<path fill-rule="evenodd" clip-rule="evenodd" d="M52.5023 41.8471C52.8754 41.5961 52.9924 41.0961 52.7607 40.7056C52.5201 40.3001 51.9947 40.1662 51.5871 40.4065C51.102 40.6924 50.8787 41.2173 50.763 41.5831C50.6331 41.9937 50.5614 42.4631 50.5206 42.9008C50.44 43.7666 50.4681 44.6559 50.4996 45.0658C50.6596 49.4007 53.6087 53.1587 57.9789 54.1035C61.2995 54.8332 64.9377 54.2276 67.59 51.8261L67.59 51.8261L67.594 51.8224C68.1674 51.2966 68.7332 50.6729 69.2104 49.986C69.3912 50.6064 69.6667 51.2232 70.1087 51.79C71.4865 53.5718 73.4774 54.4586 75.524 54.8083C77.5658 55.1572 79.7234 54.9846 81.5573 54.5953C84.6372 53.9543 86.9128 51.6608 87.9643 48.9449C89.0166 46.2271 88.8825 42.9864 87.0235 40.3967C86.7484 40.0136 86.2132 39.9256 85.828 40.2001C85.4428 40.4747 85.3535 41.0078 85.6285 41.3909C87.1015 43.4428 87.2438 46.064 86.3652 48.3333C85.486 50.604 83.6241 52.4226 81.208 52.9249L81.2044 52.9257C79.517 53.284 77.5867 53.4285 75.8167 53.126C74.0513 52.8244 72.5062 52.0911 71.4666 50.7461L71.4641 50.7428C70.7816 49.8686 70.6716 48.8061 70.5291 47.4297C70.5251 47.3909 70.521 47.3519 70.517 47.3127C70.5163 47.3065 70.5156 47.3004 70.5149 47.2943C70.5149 47.2943 70.5149 47.2942 70.5148 47.2942C70.5137 47.2796 70.5122 47.2586 70.51 47.2284L70.5093 47.2189C70.5053 47.1628 70.4999 47.0868 70.4934 47.0113C70.4869 46.9362 70.4775 46.8395 70.4639 46.755C70.4582 46.7196 70.4457 46.6456 70.4202 46.5668C70.4104 46.5363 70.3783 46.438 70.3063 46.3324C70.2778 46.2907 70.1044 46.0472 69.7881 45.9737C69.644 45.9358 69.4586 45.9249 69.2519 46.0042C68.8789 46.1474 68.7582 46.4668 68.7294 46.5517C68.6691 46.7294 68.6744 46.9074 68.6756 46.9481C68.6756 46.9503 68.6757 46.9521 68.6757 46.9535C68.6767 46.9994 68.6803 47.0642 68.6822 47.1001C68.6828 47.1102 68.6832 47.118 68.6834 47.1224C68.6837 47.1276 68.6838 47.1322 68.684 47.1361C68.6462 47.3972 68.5478 47.6704 68.3866 48.0056L68.3812 48.0169C67.9535 48.941 67.2271 49.8401 66.4361 50.566C64.2783 52.5183 61.2449 53.0731 58.3495 52.4364L58.3464 52.4358C54.7755 51.6643 52.3383 48.5913 52.2118 44.9846C52.2114 44.972 52.2107 44.9593 52.2097 44.9467C52.1835 44.6194 52.1565 43.8162 52.2273 43.0554C52.2629 42.673 52.32 42.3389 52.3977 42.0934C52.4492 41.9307 52.4915 41.8643 52.5023 41.8471ZM70.5163 47.3106C70.5163 47.3107 70.516 47.3078 70.5154 47.3012C70.5161 47.307 70.5164 47.3104 70.5163 47.3106ZM68.7714 47.0276C68.7714 47.0277 68.7715 47.0278 68.7715 47.0279L68.7714 47.0276Z" fill="#243138"/>
<path fill-rule="evenodd" clip-rule="evenodd" d="M25.1016 30.552C24.6517 30.4421 24.1929 30.7093 24.0699 31.1571C24.0173 31.3484 24.0315 31.5573 24.1196 31.746C24.1991 31.9162 24.3149 32.02 24.389 32.0747C24.5248 32.1749 24.657 32.2101 24.6941 32.2199C24.7927 32.2459 24.883 32.2522 24.921 32.2546C25.0171 32.2607 25.1291 32.2594 25.2306 32.2563C25.4433 32.2499 25.7197 32.232 25.9898 32.2111C26.2628 32.1899 26.5414 32.1648 26.7635 32.1428C26.9129 32.1279 27.0748 32.111 27.1843 32.0953C28.4989 32.031 29.7845 32.1547 31.177 32.2887C31.2448 32.2952 31.3128 32.3017 31.3811 32.3083C36.0453 32.7913 40.0025 33.7267 43.7437 36.3474C44.1305 36.6184 44.6652 36.5254 44.938 36.1397C45.2108 35.7541 45.1183 35.2218 44.7315 34.9508C40.6464 32.0892 36.3539 31.1067 31.558 30.6102L31.5516 30.6096C31.4709 30.6019 31.3901 30.5941 31.3091 30.5863C29.9321 30.4535 28.5161 30.3169 27.0551 30.393C27.0134 30.3952 26.972 30.4003 26.931 30.4085C26.9344 30.4079 26.9258 30.4089 26.9046 30.4113C26.8598 30.4165 26.7587 30.4282 26.5962 30.4444C26.3857 30.4653 26.1196 30.4893 25.86 30.5094C25.5975 30.5297 25.3533 30.5451 25.1818 30.5503C25.1511 30.5512 25.1244 30.5517 25.1016 30.552Z" fill="#243138"/>
<path fill-rule="evenodd" clip-rule="evenodd" d="M31.2042 40.3445C31.2138 40.3422 31.2234 40.3401 31.233 40.3382C34.8662 39.6116 39.6006 38.8247 43.5049 39.9872C43.9581 40.1222 44.2151 40.5977 44.0788 41.0493C43.9425 41.5009 43.4645 41.7576 43.0113 41.6226C39.5773 40.6002 35.2581 41.274 31.5821 42.0087C31.0483 42.1344 30.5431 42.2385 30.0469 42.3408C29.3321 42.4881 28.6363 42.6316 27.9018 42.8298C27.3538 42.9805 26.7655 43.1812 26.1962 43.3817C26.1579 43.3952 26.1188 43.4059 26.079 43.4139L25.995 43.4307C25.5308 43.5235 25.0796 43.2242 24.9871 42.7621C24.8947 42.3 25.1961 41.8501 25.6603 41.7573L25.6848 41.7524C26.243 41.5562 26.8591 41.3466 27.4501 41.184L27.4541 41.1829L27.4541 41.1829C28.2105 40.9788 29.0274 40.809 29.8018 40.648C30.2954 40.5455 30.7717 40.4465 31.2042 40.3445Z" fill="#243138"/>
<path fill-rule="evenodd" clip-rule="evenodd" d="M44.789 52.0814C40.5936 51.7296 36.058 53.4049 32.2686 55.4099C32.261 55.4139 32.2534 55.4178 32.2458 55.4216C32.17 55.4588 32.07 55.506 31.9516 55.5619C31.5402 55.7561 30.907 56.0549 30.3001 56.4035C29.9106 56.6272 29.5747 56.8481 29.3441 57.0453C29.2354 57.1383 29.1716 57.208 29.139 57.2517C29.0684 57.6727 28.6909 57.9843 28.2523 57.9639C27.7796 57.9419 27.4149 57.5424 27.4378 57.0716C27.4542 56.7358 27.6012 56.4622 27.737 56.272C27.8773 56.0754 28.0535 55.9012 28.2285 55.7514C28.5788 55.4518 29.0217 55.1689 29.4457 54.9253C30.1246 54.5354 30.8647 54.1866 31.2635 53.9987C31.3545 53.9558 31.4278 53.9213 31.4784 53.8966C35.3547 51.8471 40.2458 49.9873 44.9358 50.3806C45.4074 50.4201 45.7568 50.8329 45.7162 51.3026C45.6757 51.7723 45.2606 52.1209 44.789 52.0814ZM29.1202 57.2798C29.1201 57.2798 29.1209 57.2784 29.1226 57.2755C29.1212 57.2784 29.1203 57.2798 29.1202 57.2798Z" fill="#243138"/>
<path fill-rule="evenodd" clip-rule="evenodd" d="M106.141 34.1485C105.379 34.4581 104.659 34.7506 103.994 34.9994L103.989 35.0014L103.989 35.0014C102.685 35.4798 101.449 35.9406 100.234 36.4809C100.219 36.4875 100.204 36.4937 100.189 36.4995C99.987 36.5758 99.792 36.6697 99.5577 36.7834L99.5446 36.7898C99.3341 36.8919 99.0896 37.0105 98.8248 37.1131C98.8158 37.1185 98.7964 37.1302 98.7634 37.1517C98.7516 37.1594 98.7353 37.1701 98.7165 37.1825C98.6646 37.2168 98.5927 37.2643 98.5362 37.299C98.4929 37.3255 98.4357 37.3592 98.3729 37.3899C98.3227 37.4145 98.2083 37.4681 98.0633 37.492C97.9435 37.5118 97.5146 37.5521 97.2107 37.1715C96.956 36.8524 97.02 36.5012 97.0338 36.4275C97.1068 36.037 97.4359 35.7579 97.8161 35.7308C97.8201 35.7282 97.8243 35.7255 97.8285 35.7227L97.8297 35.7219C97.8915 35.6818 98.0195 35.5986 98.1527 35.5432C98.1612 35.5397 98.1698 35.5363 98.1784 35.533C98.3802 35.4567 98.5751 35.3628 98.8094 35.2491L98.8225 35.2427C99.0373 35.1386 99.2876 35.0172 99.5586 34.9131C100.824 34.3512 102.102 33.8758 103.396 33.4009C103.979 33.1827 104.654 32.9088 105.39 32.6101C106.909 31.994 108.687 31.2726 110.447 30.7178C113.059 29.8945 115.927 29.3293 118.268 30.0415C118.72 30.1792 118.974 30.6562 118.835 31.107C118.696 31.5577 118.217 31.8116 117.764 31.6739C115.964 31.1261 113.541 31.5319 110.962 32.345C109.261 32.8812 107.621 33.5471 106.141 34.1485ZM98.7242 36.7048C98.7226 36.7155 98.7209 36.7262 98.7189 36.7369C98.7189 36.7365 98.719 36.7359 98.7192 36.7352C98.72 36.7308 98.7221 36.7204 98.7242 36.7048Z" fill="#243138"/>
<path fill-rule="evenodd" clip-rule="evenodd" d="M104.302 40.8153C107.531 39.7415 111.052 38.9626 114.386 39.1277C114.858 39.1512 115.261 38.7885 115.286 38.3178C115.31 37.847 114.946 37.4464 114.474 37.423C110.835 37.2428 107.08 38.0924 103.754 39.1989C103.75 39.2005 103.745 39.2021 103.74 39.2037L103.723 39.2098C102.591 39.6086 101.422 40.0202 100.308 40.5112C100.292 40.518 100.277 40.5254 100.262 40.5332C100.044 40.6453 99.8101 40.8194 99.6281 40.9608C99.5392 41.0298 99.4071 41.1358 99.2902 41.2295C99.2337 41.2748 99.1808 41.3172 99.1381 41.3513C98.78 41.3492 98.4444 41.5726 98.3214 41.9285C98.2985 41.9948 98.2681 42.096 98.2573 42.2146C98.2485 42.312 98.2376 42.5707 98.4132 42.8241C98.6282 43.1343 98.9531 43.2085 99.1587 43.2067C99.335 43.2052 99.4732 43.1533 99.5354 43.1277C99.6712 43.072 99.7931 42.9914 99.8703 42.9379C99.9594 42.8762 100.053 42.8049 100.141 42.7357C100.248 42.6523 100.326 42.5888 100.402 42.5274C100.487 42.4592 100.568 42.3936 100.681 42.3059C100.85 42.1741 100.965 42.0948 101.029 42.0589C102.067 41.6031 103.166 41.2153 104.302 40.8153Z" fill="#243138"/>
<path fill-rule="evenodd" clip-rule="evenodd" d="M96.1994 52.1093C96.4816 51.7304 97.0184 51.6506 97.3984 51.931C97.5249 52.0244 97.7576 52.1338 98.1218 52.2447C98.4742 52.3519 98.8886 52.4429 99.3375 52.5292C99.5391 52.568 99.7535 52.6065 99.9725 52.6459C100.664 52.7701 101.4 52.9024 101.918 53.0762L101.925 53.0786C105.976 54.4769 109.77 56.2891 113.297 58.7403C113.685 59.0098 113.78 59.5417 113.508 59.9284C113.237 60.3151 112.703 60.4101 112.315 60.1405C108.939 57.7948 105.293 56.0488 101.364 54.6926C100.976 54.5628 100.435 54.4653 99.791 54.3492C99.5446 54.3049 99.2832 54.2578 99.0095 54.2051C98.5437 54.1155 98.0585 54.011 97.6183 53.8771C97.1898 53.7467 96.7369 53.569 96.3764 53.303C95.9964 53.0226 95.9172 52.4882 96.1994 52.1093Z" fill="#243138"/>
<path fill-rule="evenodd" clip-rule="evenodd" d="M44.9321 41.4105C45.2593 41.0695 45.8018 41.0568 46.1437 41.3821C47.609 42.7763 48.7438 43.6352 50.7349 43.9295C51.2029 43.9987 51.5254 44.4327 51.4551 44.899C51.3848 45.3652 50.9484 45.6871 50.4804 45.6179C47.9677 45.2465 46.516 44.0991 44.9585 42.6171C44.6166 42.2918 44.6048 41.7516 44.9321 41.4105Z" fill="#243138"/>
<path fill-rule="evenodd" clip-rule="evenodd" d="M88.2251 46.6039C88.2293 46.6016 88.2334 46.5992 88.2375 46.5967C88.2328 46.5995 88.2287 46.6019 88.2251 46.6039ZM88.3877 45.1551L89.6365 45.2714C89.9845 45.3028 90.6184 45.4209 91.3539 45.558L91.4351 45.5731C92.2028 45.7162 93.133 45.8895 94.132 46.0501C96.1958 46.3817 98.4628 46.6423 100.127 46.4924L100.128 46.4923C103.077 46.2298 106.389 45.4142 110.02 44.3345C112.031 43.7366 114.094 43.0723 116.234 42.3833C117.99 41.8182 119.797 41.2364 121.669 40.6609C129.891 38.1337 138.987 35.8523 148.294 36.4492C148.767 36.4795 149.124 36.8854 149.093 37.3557C149.062 37.8261 148.654 38.1828 148.181 38.1525C139.203 37.5768 130.358 39.7754 122.172 42.2917C120.359 42.8489 118.559 43.4282 116.797 43.995C114.625 44.694 112.512 45.3739 110.508 45.9699C106.85 47.0575 103.405 47.914 100.278 48.1923C98.3792 48.3634 95.924 48.0674 93.8561 47.7351C92.8357 47.5712 91.8875 47.3944 91.1221 47.2518L91.0669 47.2415C90.2646 47.092 89.7266 46.9935 89.4783 46.9712L89.4754 46.9709L88.1393 46.8466C88.0789 46.841 88.0195 46.829 87.9621 46.811C87.9569 46.8101 87.9494 46.8089 87.9403 46.8074C87.9002 46.8008 87.8289 46.789 87.7907 46.782C87.789 46.7817 87.7872 46.7813 87.7852 46.781C87.7368 46.7722 87.5942 46.7462 87.4645 46.6896C87.4242 46.672 87.3491 46.6365 87.2684 46.5748C87.1986 46.5214 87.0339 46.38 86.9599 46.1268C86.8703 45.8204 86.9664 45.5464 87.0935 45.373C87.1989 45.2293 87.3222 45.1534 87.376 45.1227C87.651 44.9661 87.9761 44.9776 88.2315 45.1247C88.2415 45.1264 88.2529 45.1283 88.2659 45.1306C88.2948 45.1356 88.3384 45.1435 88.3825 45.1539C88.3842 45.1543 88.3859 45.1547 88.3877 45.1551Z" fill="#243138"/>
<path fill-rule="evenodd" clip-rule="evenodd" d="M128.878 25.3382C129.038 25.7817 128.806 26.2706 128.36 26.4302C128.247 26.4708 128.195 26.5204 128.159 26.5721C128.114 26.6361 128.064 26.7505 128.034 26.9523C127.969 27.3821 128.026 27.9702 128.134 28.7313C128.15 28.8505 128.168 28.9737 128.187 29.0999C128.279 29.7253 128.381 30.425 128.401 31.0775C128.424 31.8564 128.34 32.7385 127.853 33.465C127.278 34.3231 126.814 34.8165 126.441 35.2131C126.381 35.277 126.323 35.3384 126.268 35.3984C125.903 35.7933 125.602 36.1587 125.24 36.9618C124.928 37.6767 124.657 38.371 124.378 39.0832C124.236 39.4487 124.091 39.819 123.938 40.1991C123.924 40.234 123.908 40.2679 123.889 40.3006L123.885 40.3097C123.874 40.331 123.859 40.3632 123.84 40.4041C123.802 40.4856 123.755 40.5913 123.71 40.6958C123.67 40.7891 123.637 40.8709 123.615 40.9302C123.599 41.059 123.554 41.1862 123.476 41.3016C123.214 41.694 122.681 41.8004 122.288 41.5393C122.049 41.3812 121.964 41.1599 121.935 41.0528C121.903 40.9404 121.902 40.8464 121.903 40.8004C121.904 40.7054 121.921 40.6278 121.928 40.595C121.945 40.5181 121.97 40.4435 121.989 40.3917C122.029 40.2791 122.083 40.1466 122.134 40.0285C122.186 39.9069 122.24 39.7856 122.284 39.6902C122.306 39.6427 122.327 39.599 122.345 39.5634C122.345 39.5631 122.345 39.5624 122.346 39.5616C122.348 39.5563 122.355 39.5417 122.365 39.5221C122.498 39.1908 122.63 38.8526 122.764 38.5103C123.05 37.777 123.344 37.0246 123.671 36.2782L123.674 36.2705C124.129 35.2596 124.547 34.7421 125.008 34.2436C125.07 34.1759 125.133 34.1096 125.195 34.0429C125.56 33.6547 125.935 33.2555 126.428 32.5194C126.614 32.2411 126.708 31.7987 126.688 31.1314C126.671 30.5867 126.587 30.0059 126.495 29.3816C126.476 29.2471 126.456 29.1107 126.436 28.9722C126.333 28.2418 126.232 27.4148 126.338 26.7037C126.394 26.335 126.51 25.9475 126.75 25.603C126.997 25.2462 127.346 24.9806 127.783 24.8241C128.228 24.6645 128.719 24.8947 128.878 25.3382Z" fill="#243138"/>
<path fill-rule="evenodd" clip-rule="evenodd" d="M122.881 41.3344C122.88 40.8631 123.262 40.4791 123.735 40.4767C124.397 40.4734 125.33 40.7238 126.278 41.0417C127.264 41.3721 128.39 41.8196 129.491 42.2915C131.684 43.2308 133.848 44.2963 134.706 44.7885C136.468 45.7755 137.303 47.0767 137.889 47.9904C138.062 48.2594 138.213 48.4949 138.359 48.6789C138.68 49.0805 139.021 49.3552 139.617 49.4992C140.265 49.6557 141.269 49.6703 142.932 49.3695C143.398 49.2852 143.843 49.5929 143.927 50.0566C144.011 50.5203 143.701 50.9646 143.235 51.0489C141.482 51.3661 140.2 51.3973 139.21 51.1579C138.168 50.9061 137.52 50.3726 137.017 49.7425C136.731 49.3847 136.506 49.0352 136.286 48.6939C135.735 47.8384 135.217 47.0336 133.86 46.2747L133.852 46.2699C133.077 45.8252 130.977 44.7874 128.812 43.8596C127.732 43.3972 126.654 42.9694 125.729 42.6594C124.767 42.3369 124.083 42.1818 123.741 42.1835C123.268 42.1859 122.883 41.8057 122.881 41.3344Z" fill="#243138"/>
<path fill-rule="evenodd" clip-rule="evenodd" d="M132.296 38.6998C132.296 38.6994 132.296 38.6991 132.296 38.6988C132.43 38.4988 132.634 38.3731 132.854 38.3324C132.889 38.3206 132.93 38.3077 132.975 38.2967C133.024 38.2848 133.146 38.2562 133.302 38.2667C133.627 38.2636 133.907 38.3151 134.111 38.3527C134.118 38.354 134.125 38.3553 134.132 38.3565C134.164 38.3624 134.195 38.37 134.226 38.3794C134.855 38.5702 135.502 38.8068 136.122 39.0999C137.576 39.6965 139.012 40.4317 140.398 41.1406C140.811 41.3521 141.22 41.5612 141.623 41.7636L141.698 41.8002C147.387 44.5533 152.655 47.1032 158.688 45.6102C159.148 45.4964 159.612 45.7751 159.726 46.2325C159.839 46.6899 159.559 47.1529 159.099 47.2666C152.458 48.9101 146.684 46.114 141.173 43.4452C141.071 43.3955 140.968 43.3459 140.866 43.2963L140.855 43.2908C140.422 43.0739 139.994 42.8548 139.568 42.6369C138.189 41.9312 136.834 41.2379 135.446 40.6699C135.431 40.6639 135.417 40.6575 135.403 40.6507C134.884 40.404 134.329 40.1977 133.77 40.0263C133.59 39.9936 133.466 39.9744 133.341 39.9734C133.321 39.9808 133.292 39.9911 133.261 40.0003C133.238 40.007 133.178 40.0238 133.101 40.032C133.062 40.0362 132.995 40.0408 132.912 40.0317C132.834 40.023 132.694 39.9968 132.546 39.9034C132.379 39.7979 132.245 39.6322 132.184 39.4262C132.129 39.2418 132.149 39.0845 132.169 38.9958C132.204 38.8365 132.277 38.727 132.296 38.6998ZM133.413 39.9449C133.413 39.9449 133.413 39.9451 133.412 39.9454L133.413 39.9449ZM133.748 39.6031C133.736 39.6228 133.727 39.6363 133.723 39.6429C133.722 39.6434 133.722 39.6439 133.722 39.6443C133.731 39.6308 133.739 39.617 133.748 39.6031Z" fill="#243138"/>
<path fill-rule="evenodd" clip-rule="evenodd" d="M149.963 30.7247C149.655 31.4302 149.142 32.6014 147.726 34.033C147.42 34.3433 146.963 34.6065 146.544 34.8221C146.129 35.035 145.652 35.2497 145.198 35.454C145.168 35.4678 145.137 35.4816 145.107 35.4953C144.614 35.7174 144.153 35.9272 143.77 36.1307C143.384 36.3358 143.174 36.4865 143.088 36.5745C143.075 36.5908 143.064 36.6034 143.057 36.611C143.037 36.6338 143.017 36.6554 143 36.6732C142.966 36.7087 142.926 36.7487 142.889 36.7859C142.875 36.7992 142.862 36.8126 142.848 36.826C142.781 36.8931 142.711 36.9623 142.643 37.0332C142.583 37.0959 142.536 37.1475 142.503 37.1867C142.408 37.4654 142.17 37.6875 141.859 37.7496C141.395 37.8425 140.944 37.5431 140.851 37.081C140.789 36.7693 140.91 36.5219 140.941 36.4577C140.991 36.3553 141.052 36.268 141.098 36.2069C141.193 36.0812 141.309 35.9549 141.405 35.8549C141.489 35.7678 141.575 35.6819 141.643 35.615C141.655 35.6026 141.667 35.5909 141.678 35.5799C141.716 35.5422 141.742 35.516 141.759 35.4977C141.76 35.4973 141.76 35.4969 141.76 35.4966C141.77 35.4847 141.78 35.473 141.79 35.4617C142.088 35.1241 142.549 34.8466 142.965 34.6254C143.405 34.391 143.918 34.1584 144.403 33.9403C144.429 33.9286 144.455 33.9168 144.481 33.9051C144.948 33.6947 145.387 33.4973 145.76 33.3056C146.176 33.0918 146.409 32.9342 146.503 32.8387L146.505 32.8369L146.505 32.8369C147.67 31.6596 148.019 30.87 148.33 30.1673C148.442 29.9137 148.549 29.6715 148.688 29.4265C148.988 28.8968 149.402 28.4782 150.139 28.2081C150.799 27.9662 151.705 27.8491 152.981 27.7911C153.454 27.7696 153.854 28.1339 153.875 28.6047C153.896 29.0756 153.529 29.4747 153.056 29.4962C151.799 29.5533 151.122 29.6656 150.729 29.8098C150.412 29.9258 150.301 30.05 150.181 30.2623C150.114 30.3804 150.046 30.5359 149.963 30.7247ZM141.774 35.4821C141.774 35.482 141.772 35.484 141.768 35.4885C141.771 35.4844 141.774 35.4822 141.774 35.4821ZM142.461 37.2401C142.461 37.2401 142.462 37.2396 142.462 37.2384C142.462 37.2395 142.461 37.2401 142.461 37.2401Z" fill="#243138"/>
<path fill-rule="evenodd" clip-rule="evenodd" d="M164.173 30.2095C163.786 30.5153 163.611 30.7916 163.56 31.0196C163.076 33.2122 161.275 34.7329 159.223 35.7783C157.149 36.8352 154.639 37.5006 152.406 37.9029C152.4 37.9039 152.395 37.9049 152.389 37.9059C152.238 37.9298 152.044 37.9651 151.826 38.005C151.39 38.0844 150.856 38.1818 150.368 38.2431C149.634 38.3352 148.728 38.3912 148.005 38.1401C147.558 37.9849 147.323 37.4983 147.48 37.0533C147.636 36.6082 148.125 36.3732 148.572 36.5284C148.882 36.6362 149.43 36.6408 150.156 36.5497C150.61 36.4927 151.027 36.4161 151.424 36.3431C151.659 36.2998 151.887 36.2578 152.113 36.2218C154.264 35.8336 156.585 35.2065 158.444 34.2591C160.329 33.2993 161.567 32.1024 161.886 30.655L161.887 30.6519C162.055 29.9009 162.549 29.3151 163.109 28.8731C163.672 28.428 164.369 28.0739 165.08 27.7951C166.503 27.2378 168.134 26.9236 169.282 26.8333C169.754 26.7962 170.166 27.147 170.202 27.6169C170.239 28.0867 169.886 28.4977 169.414 28.5348C168.41 28.6138 166.948 28.8964 165.706 29.3833C165.085 29.6266 164.556 29.9064 164.173 30.2095Z" fill="#243138"/>
<path fill-rule="evenodd" clip-rule="evenodd" d="M148.849 19.3476C149.073 19.7626 148.916 20.2802 148.498 20.5035C148.228 20.6481 147.961 20.7906 147.696 20.9315C143.449 23.1939 139.934 25.0663 137.835 29.2548L137.832 29.2614C136.908 31.0672 136.086 32.987 135.344 34.9019C135.229 35.2099 135.107 35.5295 134.986 35.8442L134.985 35.8464C134.862 36.1654 134.742 36.4793 134.63 36.78C134.621 36.8045 134.611 36.8286 134.599 36.8522L134.327 37.4171C134.269 37.5476 134.19 37.6529 134.154 37.7002C134.129 37.7329 134.103 37.7649 134.08 37.7933C134.007 37.9398 133.891 38.0672 133.738 38.1545C133.716 38.1667 133.665 38.1952 133.598 38.2204C133.566 38.2327 133.501 38.2556 133.415 38.2682C133.347 38.2783 133.15 38.301 132.928 38.1993C132.64 38.0676 132.481 37.8099 132.44 37.5626C132.408 37.3702 132.451 37.2195 132.468 37.1665C132.503 37.0528 132.556 36.9709 132.568 36.9514L132.569 36.9499C132.616 36.8769 132.686 36.795 132.705 36.7729C132.707 36.7708 132.708 36.7693 132.709 36.7683C132.743 36.7274 132.767 36.699 132.785 36.6753L133.037 36.1523C133.148 35.8541 133.266 35.5455 133.383 35.2415L133.384 35.2393C133.506 34.9204 133.627 34.6065 133.739 34.3057L133.743 34.295C134.499 32.3452 135.344 30.367 136.304 28.4916C138.655 23.8006 142.64 21.684 146.798 19.4751C147.094 19.3177 147.391 19.1598 147.689 19.0005C148.106 18.7771 148.625 18.9325 148.849 19.3476ZM132.799 36.656C132.799 36.656 132.798 36.658 132.795 36.6622C132.797 36.6582 132.799 36.6561 132.799 36.656Z" fill="#243138"/>
<path d="M128.855 22.7729C129.065 22.7308 128.561 23.0492 128.468 23.2418C128.317 23.5767 128.224 23.9868 128.215 24.3801C128.206 25.4262 128.633 27.1246 130.02 26.8473C133.247 26.1583 132.932 21.9576 128.855 22.7729Z" fill="#FE6868"/>
<path fill-rule="evenodd" clip-rule="evenodd" d="M128.094 22.3819C128.21 22.1595 128.422 21.9893 128.688 21.9362C129.842 21.7054 130.839 21.8081 131.612 22.2136C132.395 22.625 132.881 23.3169 133.02 24.095C133.301 25.6618 132.18 27.2586 130.198 27.6818L130.187 27.684C129.651 27.7912 129.148 27.7131 128.718 27.4631C128.306 27.2236 128.026 26.8645 127.838 26.5127C127.469 25.8248 127.353 24.9837 127.358 24.3741L127.358 24.3627C127.37 23.8595 127.486 23.336 127.687 22.8923C127.69 22.8863 127.693 22.8803 127.696 22.8743C127.789 22.6807 127.935 22.535 127.995 22.4757C128.027 22.4434 128.062 22.4113 128.094 22.3819ZM128.257 22.2366C128.257 22.2368 128.257 22.2371 128.256 22.2373C128.263 22.2306 128.264 22.2299 128.257 22.2366ZM129.176 23.7123C129.176 23.7124 129.178 23.7101 129.182 23.7053C129.179 23.7099 129.176 23.7123 129.176 23.7123ZM129.216 23.6721C129.243 23.6456 129.276 23.6167 129.32 23.5777C129.328 23.5712 129.335 23.5645 129.343 23.5575C129.344 23.557 129.345 23.5564 129.345 23.5559C130.048 23.4635 130.52 23.5716 130.81 23.7238C131.131 23.8923 131.287 24.1407 131.333 24.3971C131.422 24.8983 131.088 25.7443 129.848 26.0116C129.694 26.0415 129.624 26.0117 129.585 25.9887C129.527 25.9551 129.441 25.8762 129.35 25.7073C129.162 25.3554 129.069 24.8274 129.072 24.3921C129.078 24.1429 129.133 23.884 129.216 23.6721Z" fill="#FE6868"/>
<path d="M149.382 16.7971C149.483 17.0815 148.836 17.1239 148.709 17.3667C148.356 18.003 148.28 18.7144 148.497 19.3669C150.056 24.1022 156.289 17.243 151.484 15.7241C151.022 15.599 150.543 15.6077 150.081 15.7001" fill="#FE6868"/>
<path fill-rule="evenodd" clip-rule="evenodd" d="M149.24 15.8681C149.148 15.406 149.449 14.9561 149.913 14.8633C150.475 14.7509 151.092 14.7332 151.71 14.9005C151.722 14.9036 151.733 14.9069 151.744 14.9105C152.458 15.136 153.032 15.4816 153.443 15.946C153.858 16.4158 154.07 16.9654 154.118 17.5259C154.211 18.6126 153.695 19.6849 153.022 20.4518C152.355 21.2116 151.364 21.861 150.297 21.8623C149.739 21.863 149.187 21.6828 148.715 21.2827C148.253 20.892 147.913 20.331 147.684 19.6356C147.387 18.7447 147.498 17.7901 147.956 16.9614C148.037 16.8113 148.141 16.7047 148.225 16.6333C148.313 16.5597 148.4 16.5063 148.466 16.4695C148.526 16.4362 148.585 16.4082 148.631 16.3867C148.729 16.2091 148.891 16.0653 149.098 15.9924C149.152 15.9734 149.206 15.96 149.261 15.9521C149.253 15.9248 149.246 15.8967 149.24 15.8681ZM150.201 16.5447C150.257 16.7197 150.27 16.9212 150.211 17.1272C150.151 17.3355 150.035 17.4835 149.939 17.5781C149.775 17.7394 149.576 17.832 149.497 17.8684C149.495 17.8693 149.493 17.8701 149.491 17.871C149.446 17.8921 149.413 17.9067 149.389 17.9176C149.207 18.3168 149.188 18.7279 149.311 19.0963L149.312 19.0997L149.312 19.0997C149.472 19.5874 149.668 19.8473 149.826 19.9815C149.974 20.1068 150.127 20.1557 150.298 20.1555C150.688 20.155 151.247 19.8826 151.732 19.3297C152.212 18.7838 152.451 18.1525 152.41 17.6739C152.391 17.4517 152.313 17.2532 152.156 17.0757C151.996 16.895 151.718 16.6967 151.241 16.5432C150.939 16.4645 150.604 16.4655 150.248 16.5367C150.232 16.5398 150.217 16.5425 150.201 16.5447ZM149.297 17.9608C149.298 17.9603 149.299 17.9599 149.3 17.9594C149.285 17.9695 149.282 17.9695 149.297 17.9608Z" fill="#FE6868"/>
<path fill-rule="evenodd" clip-rule="evenodd" d="M155.425 25.813C153.298 25.8902 152.918 28.3592 153.102 29.062C154.376 33.0276 160.39 26.6038 155.425 25.813Z" fill="#FE6868"/>
<path fill-rule="evenodd" clip-rule="evenodd" d="M152.622 26.8405C153.054 25.926 153.922 25.0136 155.395 24.9602C155.45 24.9581 155.506 24.9615 155.561 24.9703C157.004 25.2 157.978 25.9178 158.18 27.0633C158.357 28.0734 157.854 29.0791 157.253 29.7763C156.646 30.4807 155.74 31.106 154.773 31.1888C154.264 31.2323 153.73 31.1231 153.263 30.7815C152.804 30.4457 152.484 29.9404 152.286 29.3232C152.281 29.3086 152.277 29.2938 152.273 29.2789C152.188 28.9565 152.188 28.5493 152.238 28.1608C152.291 27.7547 152.409 27.2898 152.622 26.8405ZM153.929 28.8329C154.047 29.1842 154.188 29.3383 154.279 29.4052C154.366 29.4682 154.472 29.5016 154.629 29.4882C154.992 29.4571 155.518 29.1706 155.953 28.6659C156.394 28.154 156.543 27.6533 156.491 27.3606C156.465 27.2076 156.335 26.8431 155.375 26.6705C154.769 26.7195 154.406 27.0714 154.172 27.5652C154.047 27.8306 153.971 28.1196 153.938 28.3765C153.922 28.5036 153.917 28.6148 153.919 28.7028C153.92 28.7466 153.922 28.7815 153.925 28.8076C153.927 28.8184 153.928 28.8268 153.929 28.8329Z" fill="#FE6868"/>
<path fill-rule="evenodd" clip-rule="evenodd" d="M134.35 33.4213C131.266 33.516 130.7 37.2405 130.993 38.2696C132.887 44.2431 141.585 34.6286 134.35 33.4213Z" fill="#FE6868"/>
<path fill-rule="evenodd" clip-rule="evenodd" d="M130.625 35.1422C131.204 33.879 132.356 32.6288 134.325 32.5683C134.382 32.5666 134.438 32.5703 134.493 32.5796C135.497 32.747 136.305 33.073 136.904 33.56C137.515 34.0573 137.867 34.6911 137.988 35.3792C138.222 36.7044 137.588 38.0814 136.754 39.0826C135.917 40.0868 134.685 40.9462 133.404 41.0523C132.736 41.1076 132.052 40.9549 131.459 40.5056C130.875 40.0641 130.449 39.3907 130.176 38.5278C130.173 38.5198 130.171 38.5119 130.169 38.5038C130.051 38.0927 130.043 37.5397 130.109 36.9904C130.179 36.4207 130.339 35.7688 130.625 35.1422ZM131.815 38.0263C132.014 38.647 132.272 38.976 132.497 39.146C132.713 39.3095 132.964 39.3763 133.264 39.3514C133.92 39.2971 134.766 38.7974 135.436 37.9938C136.108 37.1872 136.411 36.3075 136.3 35.6771C136.249 35.3874 136.108 35.1187 135.818 34.8825C135.526 34.6448 135.049 34.4147 134.294 34.278C133.228 34.3412 132.578 34.9896 132.185 35.8478C131.981 36.2928 131.862 36.771 131.811 37.192C131.759 37.6213 131.787 37.9153 131.815 38.0263Z" fill="#FE6868"/>
<path fill-rule="evenodd" clip-rule="evenodd" d="M117.528 41.3103C113.553 41.5396 112.692 45.7582 113.052 46.9044C115.315 53.6307 126.846 42.4488 117.528 41.3103Z" fill="#FE6868"/>
<path fill-rule="evenodd" clip-rule="evenodd" d="M112.911 43.3582C113.688 41.929 115.135 40.5936 117.48 40.4584C117.531 40.4554 117.583 40.457 117.634 40.4633C120.112 40.7661 121.631 41.8072 121.922 43.462C122.186 44.9633 121.324 46.522 120.254 47.644C119.162 48.7882 117.62 49.7316 116.097 49.8776C115.317 49.9525 114.513 49.8182 113.805 49.3557C113.098 48.893 112.569 48.1564 112.24 47.1768C112.238 47.1715 112.236 47.1661 112.234 47.1607C112.087 46.6919 112.093 46.0614 112.195 45.4426C112.301 44.7975 112.527 44.0632 112.911 43.3582ZM113.868 46.6424C114.104 47.3379 114.43 47.7204 114.748 47.9282C115.067 48.1372 115.463 48.224 115.936 48.1786C116.92 48.0843 118.103 47.4222 119.012 46.4694C119.943 45.4944 120.358 44.4646 120.234 43.7593C120.138 43.2141 119.615 42.4427 117.5 42.1673C115.915 42.2841 114.966 43.161 114.418 44.169C114.134 44.6905 113.964 45.2402 113.886 45.7156C113.805 46.2084 113.836 46.5323 113.868 46.6424Z" fill="#FE6868"/>
<path fill-rule="evenodd" clip-rule="evenodd" d="M156.795 34.6325C152.954 34.8784 152.069 38.7538 152.463 39.8497C154.524 46.0072 165.777 35.6206 156.795 34.6325Z" fill="#FE6868"/>
<path fill-rule="evenodd" clip-rule="evenodd" d="M152.297 36.4997C153.068 35.1555 154.488 33.925 156.741 33.7807C156.791 33.7775 156.841 33.7786 156.891 33.7841C159.259 34.0446 160.766 34.9903 161.042 36.5839C161.29 38.0163 160.415 39.4833 159.377 40.5219C158.311 41.5895 156.818 42.4706 155.359 42.62C154.612 42.6964 153.838 42.5832 153.154 42.1578C152.468 41.7308 151.96 41.043 151.652 40.1286C151.487 39.6596 151.49 39.0496 151.588 38.4671C151.691 37.8531 151.917 37.1614 152.297 36.4997ZM153.278 38.7462C153.202 39.2021 153.242 39.4831 153.269 39.5607C153.272 39.5666 153.274 39.5725 153.276 39.5784C153.484 40.1995 153.777 40.5314 154.064 40.7098C154.355 40.8911 154.728 40.969 155.186 40.9221C156.136 40.8249 157.281 40.2021 158.163 39.3192C159.074 38.4073 159.457 37.4772 159.353 36.8767C159.278 36.4426 158.833 35.7314 156.775 35.4892C155.232 35.6114 154.31 36.4301 153.785 37.3447C153.512 37.8196 153.35 38.3177 153.278 38.7462Z" fill="#FE6868"/>
<path d="M145.126 49.9313C145.302 49.9395 144.873 50.1994 144.772 50.3501C144.579 50.6934 144.52 51.0532 144.503 51.4047C144.493 52.4508 145.156 54.2328 146.365 54.3824C148.651 54.665 149.041 51.1499 147.209 50.2978" fill="#FE6868"/>
<path fill-rule="evenodd" clip-rule="evenodd" d="M144.354 49.5607C144.499 49.262 144.814 49.0624 145.167 49.0789C145.226 49.0816 145.33 49.0911 145.449 49.1348C145.571 49.1794 145.765 49.2818 145.899 49.5034C146.175 49.9584 145.921 50.3736 145.893 50.4185C145.893 50.4192 145.892 50.4199 145.892 50.4204C145.829 50.5242 145.755 50.599 145.725 50.6295C145.685 50.669 145.645 50.7045 145.616 50.7303C145.568 50.7719 145.546 50.7898 145.528 50.8047C145.513 50.8168 145.501 50.8268 145.479 50.846C145.407 51.0047 145.372 51.1892 145.359 51.427C145.36 51.8004 145.485 52.3594 145.735 52.8301C146 53.3305 146.28 53.5118 146.472 53.5356C146.802 53.5763 147 53.4835 147.138 53.3571C147.296 53.2115 147.431 52.962 147.485 52.6309C147.601 51.9182 147.302 51.2834 146.846 51.0713C146.417 50.8719 146.233 50.364 146.433 49.9369C146.634 49.5099 147.145 49.3253 147.573 49.5247C148.948 50.1645 149.37 51.7132 149.177 52.9005C149.077 53.5193 148.801 54.1489 148.3 54.6096C147.779 55.0893 147.072 55.33 146.258 55.2294C145.241 55.1036 144.585 54.3191 144.219 53.6295C143.841 52.9171 143.64 52.0714 143.646 51.3987C143.646 51.3875 143.646 51.3762 143.647 51.365C143.667 50.9492 143.74 50.4398 144.025 49.9333C144.036 49.9143 144.048 49.8956 144.06 49.8775C144.153 49.7382 144.276 49.6291 144.326 49.5855L144.326 49.5848C144.333 49.5788 144.343 49.5704 144.354 49.5607ZM145.435 50.8865C145.435 50.8865 145.436 50.8857 145.437 50.884C145.436 50.8856 145.435 50.8864 145.435 50.8865Z" fill="#FE6868"/>
<path fill-rule="evenodd" clip-rule="evenodd" d="M81.3177 163.284C81.7788 163.177 82.2391 163.462 82.3459 163.921C83.0512 166.953 83.8415 169.959 84.6351 172.979C84.7139 173.278 84.7926 173.578 84.8713 173.877C85.7423 177.194 86.6069 180.529 87.3475 183.903C87.4486 184.363 87.1556 184.819 86.6933 184.92C86.2309 185.021 85.7741 184.73 85.6731 184.27C84.9406 180.934 84.0841 177.629 83.213 174.312C83.1342 174.012 83.0553 173.711 82.9763 173.411C82.1836 170.396 81.3872 167.366 80.6761 164.309C80.5693 163.85 80.8566 163.391 81.3177 163.284Z" fill="#243138"/>
<path fill-rule="evenodd" clip-rule="evenodd" d="M101.905 156.694C102.377 156.661 102.786 157.016 102.818 157.486C102.99 160.034 103.639 162.711 104.408 165.441C104.63 166.229 104.863 167.024 105.096 167.821C105.662 169.752 106.231 171.692 106.65 173.555C106.754 174.015 106.463 174.472 106.001 174.576C105.54 174.68 105.081 174.391 104.978 173.931C104.571 172.124 104.027 170.267 103.467 168.359C103.23 167.55 102.991 166.732 102.758 165.905C101.983 163.156 101.292 160.337 101.108 157.604C101.076 157.134 101.433 156.726 101.905 156.694Z" fill="#243138"/>
<path fill-rule="evenodd" clip-rule="evenodd" d="M75.5905 161.429C76.0485 161.309 76.5166 161.581 76.6362 162.037C77.0109 163.467 77.2994 164.909 77.5822 166.323L77.5831 166.328C77.9716 168.086 78.3865 169.854 78.8027 171.627C79.3601 174.003 79.9197 176.388 80.421 178.77C80.518 179.231 80.2211 179.684 79.7579 179.781C79.2946 179.878 78.8404 179.584 78.7434 179.122C78.2416 176.738 77.6941 174.406 77.1434 172.061C76.727 170.287 76.3087 168.506 75.9073 166.689C75.9061 166.684 75.9049 166.678 75.9038 166.672C75.6185 165.246 75.3388 163.848 74.9777 162.471C74.8582 162.015 75.1326 161.549 75.5905 161.429Z" fill="#243138"/>
<path fill-rule="evenodd" clip-rule="evenodd" d="M55.7785 67.1891C55.9233 66.4967 56.6041 66.0513 57.2991 66.1943C58.9483 66.5335 61.4992 67.3845 63.9315 68.8556C66.3575 70.3229 68.792 72.485 69.9899 75.5012C71.3487 78.9227 71.9697 81.9215 71.9211 84.25C71.8748 86.4661 71.1819 88.595 69.2981 89.3396C66.4567 90.4628 62.5263 89.0763 61.5399 85.5738C61.1982 84.3605 60.4404 82.5804 59.2202 81.1217C58.0125 79.678 56.4352 78.637 54.4006 78.605C53.6908 78.5938 53.1254 78.0117 53.1379 77.3048C53.1503 76.5979 53.7359 76.0339 54.4457 76.0451C57.4532 76.0924 59.6762 77.6634 61.1967 79.481C62.7048 81.2837 63.6032 83.4145 64.0155 84.8785C64.537 86.7304 66.7391 87.5982 68.3532 86.9602C68.697 86.8243 69.3091 86.1904 69.3506 84.2013C69.3898 82.3245 68.8813 79.6756 67.5989 76.4464C66.6837 74.142 64.7589 72.3538 62.5942 71.0445C60.4357 69.7391 58.1645 68.9875 56.7749 68.7017C56.0798 68.5587 55.6338 67.8815 55.7785 67.1891Z" fill="#243138"/>
<path fill-rule="evenodd" clip-rule="evenodd" d="M87.0831 67.0392C87.3646 67.6878 87.0643 68.4417 86.4125 68.7231C84.918 69.3683 81.1716 72.2633 80.1007 78.319C79.4006 82.2773 79.6208 85.0361 80.4322 86.8078C81.1928 88.4684 82.5337 89.3991 84.5968 89.6256C84.878 89.6565 84.9495 89.5896 84.999 89.5429C85.112 89.4363 85.2785 89.1818 85.4467 88.6314C85.6099 88.0972 85.7342 87.4269 85.8617 86.6144C85.8983 86.3811 85.9354 86.1348 85.9738 85.8796C86.0639 85.2803 86.1614 84.6325 86.2776 83.9911C86.6095 82.1594 87.1396 80.0791 88.3627 78.3671C89.6329 76.5891 91.577 75.3081 94.4895 74.9728C95.1949 74.8916 95.8319 75.3951 95.9122 76.0974C95.9925 76.7998 95.4858 77.4349 94.7804 77.5161C92.5662 77.771 91.2888 78.6843 90.4568 79.8488C89.5777 81.0793 89.1251 82.6898 88.8077 84.4415C88.6985 85.0442 88.6107 85.628 88.5232 86.2099C88.4834 86.475 88.4436 86.7396 88.4018 87.0055C88.2734 87.8239 88.1268 88.6508 87.9062 89.3728C87.6905 90.0786 87.36 90.8396 86.7649 91.4007C86.1062 92.0216 85.2583 92.2745 84.3106 92.1705C81.4581 91.8573 79.2717 90.4478 78.0927 87.8735C76.9645 85.4103 76.8329 82.0395 77.5687 77.8792C78.795 70.945 83.1329 67.3502 85.3934 66.3743C86.0452 66.093 86.8017 66.3906 87.0831 67.0392Z" fill="#243138"/>
</g>
<defs>
<clipPath id="clip0_1294_2562">
<rect width="189" height="189" fill="white"/>
</clipPath>
</defs>
</svg>
