<svg width="19" height="19" viewBox="0 0 19 19" fill="none" xmlns="http://www.w3.org/2000/svg">
<path fill-rule="evenodd" clip-rule="evenodd" d="M0 9.48528C0 4.24671 4.24671 0 9.48528 0C14.7239 0 18.9706 4.24671 18.9706 9.48528C18.9706 14.7239 14.7239 18.9706 9.48528 18.9706C4.24671 18.9706 0 14.7239 0 9.48528Z" fill="#FE6868"/>
<path d="M9.206 11.1C8.53994 11.1 8 10.5601 8 9.894V4.206C8 3.53994 8.53994 3 9.206 3C9.87206 3 10.412 3.53994 10.412 4.206V9.894C10.412 10.5601 9.87206 11.1 9.206 11.1ZM9.206 15.906C8.53994 15.906 8 15.3661 8 14.7V14.394C8 13.7279 8.53994 13.188 9.206 13.188C9.87206 13.188 10.412 13.7279 10.412 14.394V14.7C10.412 15.3661 9.87206 15.906 9.206 15.906Z" fill="white"/>
</svg>
