<svg width="272" height="271" viewBox="0 0 272 271" fill="none" xmlns="http://www.w3.org/2000/svg">
<path fill-rule="evenodd" clip-rule="evenodd" d="M156.217 207.979C156.925 207.147 153.512 207.896 152.139 207.938C143.526 208.229 134.871 208.603 126.258 209.061C113.941 209.685 58.6003 210.684 59.2245 232.82C59.3493 236.815 59.7237 246.718 66.1317 248.175C82.9837 252.086 113.442 248.133 142.486 242.807C169.948 237.73 194.873 233.403 203.569 228.659C208.521 225.955 211.642 222.293 212.557 217.966C213.223 214.928 212.515 211.475 208.937 209.519C197.494 203.236 175.566 206.149 162.584 207.813" fill="#FEC71A"/>
<path d="M156.217 207.979C156.925 207.147 153.512 207.896 152.139 207.938C143.526 208.229 134.871 208.603 126.258 209.061C113.941 209.685 58.6003 210.684 59.2245 232.82C59.3493 236.815 59.7237 246.718 66.1317 248.175C82.9837 252.086 113.442 248.133 142.486 242.807C169.948 237.73 194.873 233.403 203.569 228.659C208.521 225.955 211.642 222.293 212.557 217.966C213.223 214.928 212.515 211.475 208.937 209.519C197.494 203.236 175.566 206.149 162.584 207.813" stroke="#243138" stroke-width="4" stroke-miterlimit="10" stroke-linecap="round" stroke-linejoin="round"/>
<path d="M170.906 73.9121C171.739 79.4462 169.991 86.187 167.328 91.3883C166.745 92.4701 169.45 92.3037 170.407 92.8446C172.571 94.0097 174.152 96.7144 175.442 98.6284C175.692 99.0029 178.022 103.954 178.105 103.954C178.147 103.954 178.147 102.04 178.188 101.957C178.396 97.6714 179.27 93.4688 180.81 89.4326C181.267 88.1843 183.972 86.3951 182.682 85.8542C177.647 83.7737 171.78 84.1898 171.447 76.9496" stroke="#243138" stroke-width="4" stroke-miterlimit="10" stroke-linecap="round" stroke-linejoin="round"/>
<path fill-rule="evenodd" clip-rule="evenodd" d="M133.416 245.511C95.1344 252.502 87.9359 246.885 85.148 243.681C61.5968 216.177 71.5416 141.071 83.3172 137.118C83.8998 136.91 84.4407 137.617 84.7736 137.991C90.8902 144.025 101.917 150.766 109.989 153.762C150.06 168.533 188.008 169.032 193.5 209.685C197.495 239.145 195.789 235.775 149.394 243.265" fill="white"/>
<path d="M133.416 245.511C95.1344 252.502 87.9359 246.885 85.148 243.681C61.5968 216.177 71.5416 141.071 83.3172 137.118C83.8998 136.91 84.4407 137.617 84.7736 137.991C90.8902 144.025 101.917 150.766 109.989 153.762C150.06 168.533 188.008 169.032 193.5 209.685C197.495 239.145 195.789 235.775 149.394 243.265" stroke="#243138" stroke-width="4" stroke-miterlimit="10" stroke-linecap="round" stroke-linejoin="round"/>
<path d="M163.791 173.068C163.916 172.486 162.126 174.192 162.043 174.442C161.419 175.773 161.045 177.229 160.836 178.727C160.212 183.305 160.712 188.09 162.085 192.459C166.204 205.732 177.314 220.296 192.543 219.297" stroke="#243138" stroke-width="4" stroke-miterlimit="10" stroke-linecap="round" stroke-linejoin="round"/>
<path fill-rule="evenodd" clip-rule="evenodd" d="M72.5819 172.028C72.7483 171.571 73.5389 171.987 74.0382 171.945C79.9468 171.238 85.8971 170.614 91.8473 169.781C95.2593 169.282 99.5867 167.742 103.082 168.491C103.415 168.575 103.956 168.741 103.831 169.199C102.458 174.691 77.2838 174.858 75.3282 180.6C75.0785 181.266 75.7858 181.599 76.3268 181.723C81.6112 182.972 87.8944 179.976 93.3036 179.976C93.6365 179.976 94.4271 179.893 94.6768 180.184C95.1345 180.683 90.5158 182.389 90.2246 182.514C88.5185 183.18 76.9509 187.965 77.7831 190.42C78.5737 192.75 93.6781 188.464 93.8861 190.67C94.1774 194.082 72.457 192.417 70.9175 198.284" fill="#243138"/>
<path d="M72.5819 172.028C72.7483 171.571 73.5389 171.987 74.0382 171.945C79.9468 171.238 85.8971 170.614 91.8473 169.781C95.2593 169.282 99.5867 167.742 103.082 168.491C103.415 168.575 103.956 168.741 103.831 169.199C102.458 174.691 77.2838 174.858 75.3282 180.6C75.0785 181.266 75.7858 181.599 76.3268 181.723C81.6112 182.972 87.8944 179.976 93.3036 179.976C93.6365 179.976 94.4271 179.893 94.6768 180.184C95.1345 180.683 90.5158 182.389 90.2246 182.514C88.5185 183.18 76.9509 187.965 77.7831 190.42C78.5737 192.75 93.6781 188.464 93.8861 190.67C94.1774 194.082 72.457 192.417 70.9175 198.284" stroke="#243138" stroke-width="4" stroke-miterlimit="10" stroke-linecap="round" stroke-linejoin="round"/>
<path d="M89.1845 92.6366C88.4356 92.1372 93.512 92.8446 94.3858 92.9278C114.151 94.9667 108.949 75.6181 113.485 82.6502C126.384 102.54 150.518 105.411 160.754 100.75C164.707 98.9197 161.294 109.988 161.419 113.858C161.877 128.379 187.675 137.284 172.488 152.264C154.97 169.532 106.286 154.927 94.8019 146.23C68.4628 126.299 61.4307 97.5465 89.1845 92.6366Z" stroke="#243138" stroke-width="4" stroke-miterlimit="10" stroke-linecap="round" stroke-linejoin="round"/>
<path fill-rule="evenodd" clip-rule="evenodd" d="M102.416 103.33C102.957 103.622 101.626 104.163 101.334 104.662C100.419 106.201 98.5881 108.49 98.1304 110.03C97.0485 113.858 98.8793 119.392 102.832 121.389C104.705 122.346 116.605 125.342 118.602 124.052C120.059 123.095 120.766 120.682 121.515 119.309C121.806 118.768 124.095 115.522 123.762 114.94C119.892 108.032 111.113 106.326 103.748 104.163" fill="#243138"/>
<path d="M102.416 103.33C102.957 103.622 101.626 104.163 101.334 104.662C100.419 106.201 98.5881 108.49 98.1304 110.03C97.0485 113.858 98.8793 119.392 102.832 121.389C104.705 122.346 116.605 125.342 118.602 124.052C120.059 123.095 120.766 120.682 121.515 119.309C121.806 118.768 124.095 115.522 123.762 114.94C119.892 108.032 111.113 106.326 103.748 104.163" stroke="#243138" stroke-width="4" stroke-miterlimit="10" stroke-linecap="round" stroke-linejoin="round"/>
<path fill-rule="evenodd" clip-rule="evenodd" d="M125.01 117.561C125.01 117.561 125.177 117.644 125.426 117.727C125.967 117.852 128.922 118.726 128.922 118.934C128.922 119.475 125.593 124.593 126.758 126.132C129.379 129.544 143.943 135.203 148.52 133.165C155.302 130.169 158.007 121.098 149.851 118.018C145.441 116.354 139.366 117.644 134.83 118.476" fill="#243138"/>
<path d="M125.01 117.561C125.01 117.561 125.177 117.644 125.426 117.727C125.967 117.852 128.922 118.726 128.922 118.934C128.922 119.475 125.593 124.593 126.758 126.132C129.379 129.544 143.943 135.203 148.52 133.165C155.302 130.169 158.007 121.098 149.851 118.018C145.441 116.354 139.366 117.644 134.83 118.476" stroke="#243138" stroke-width="4" stroke-miterlimit="10" stroke-linecap="round" stroke-linejoin="round"/>
<path d="M151.183 121.098C152.931 122.554 158.506 121.222 161.211 120.349" stroke="#243138" stroke-width="4" stroke-miterlimit="10" stroke-linecap="round" stroke-linejoin="round"/>
<path d="M100.003 93.4688C99.2539 95.0915 100.336 98.3371 101.043 99.7102" stroke="#243138" stroke-width="4" stroke-miterlimit="10" stroke-linecap="round" stroke-linejoin="round"/>
<path d="M121.598 127.714C116.771 135.079 108.408 137.867 103.664 135.453C100.71 133.955 99.4615 129.961 102.915 128.255" stroke="#243138" stroke-width="4" stroke-miterlimit="10" stroke-linecap="round" stroke-linejoin="round"/>
<path d="M121.932 126.091C121.89 126.049 119.81 132.083 119.81 132.124C119.518 133.206 119.31 136.702 119.477 137.825C119.893 140.613 122.597 141.736 124.803 143.484C128.548 146.48 140.198 147.229 137.868 139.947" stroke="#243138" stroke-width="4" stroke-miterlimit="10" stroke-linecap="round" stroke-linejoin="round"/>
<path fill-rule="evenodd" clip-rule="evenodd" d="M133.789 246.162C133.623 243.344 125.676 235.699 114.441 219.299C106.077 207.085 111.986 176.806 127.298 175.567C129.628 175.397 137.285 174.799 141.903 182.016C143.609 184.707 146.148 189.49 140.322 192.906C128.921 199.611 127.964 189.832 129.92 185.689C130.128 185.262 116.105 190.301 120.641 209.221C125.426 229.165 146.397 236.852 148.353 244.027" fill="white"/>
<path d="M133.789 244.346C133.623 241.6 125.676 234.152 114.441 218.174C106.077 206.273 111.986 176.772 127.298 175.565C129.628 175.399 137.285 174.816 141.903 181.848C143.609 184.47 146.148 189.13 140.322 192.459C128.921 198.992 127.964 189.463 129.92 185.427C130.128 185.011 116.105 189.921 120.641 208.354C125.426 227.786 146.397 235.275 148.353 242.266" stroke="#243138" stroke-width="4" stroke-miterlimit="10" stroke-linecap="round" stroke-linejoin="round"/>
<path d="M136.328 99.4189C135.995 99.2108 156.217 56.6023 106.702 47.6978" stroke="#243138" stroke-width="4" stroke-miterlimit="10" stroke-linecap="round" stroke-linejoin="round"/>
<path opacity="0.9116" fill-rule="evenodd" clip-rule="evenodd" d="M95.3844 34.9235C93.2207 34.341 91.6395 28.5988 87.1873 27.7666C85.3148 27.4337 83.2343 27.4337 81.6115 28.5572C67.048 38.6684 95.3012 45.9085 100.211 47.24C103.207 48.0306 103.457 45.2012 103.831 42.7462C106.203 26.6431 90.9322 15.4917 93.1375 30.5545" fill="#6FCF97"/>
<path d="M95.3844 34.9235C93.2207 34.341 91.6395 28.5988 87.1873 27.7666C85.3148 27.4337 83.2343 27.4337 81.6115 28.5572C67.048 38.6684 95.3012 45.9085 100.211 47.24C103.207 48.0306 103.457 45.2012 103.831 42.7462C106.203 26.6431 90.9322 15.4917 93.1375 30.5545" stroke="#243138" stroke-width="4" stroke-miterlimit="10" stroke-linecap="round" stroke-linejoin="round"/>
<path opacity="0.9116" fill-rule="evenodd" clip-rule="evenodd" d="M104.913 45.7838C105.495 46.408 104.746 44.0362 104.705 43.204C104.621 41.498 104.58 39.7504 104.663 38.0444C104.788 33.8834 104.996 19.8608 112.527 21.3588C116.023 22.0245 114.941 26.8513 114.025 29.0982C113.984 29.223 112.985 31.47 112.735 31.3036C111.695 30.513 118.935 25.7278 119.643 25.5198C120.933 25.1453 122.472 25.0205 123.804 25.3949C136.287 28.9734 116.688 44.0778 112.361 46.1167" fill="#6FCF97"/>
<path d="M104.913 45.7838C105.495 46.408 104.746 44.0362 104.705 43.204C104.621 41.498 104.58 39.7504 104.663 38.0444C104.788 33.8834 104.996 19.8608 112.527 21.3588C116.023 22.0245 114.941 26.8513 114.025 29.0982C113.984 29.223 112.985 31.47 112.735 31.3036C111.695 30.513 118.935 25.7278 119.643 25.5198C120.933 25.1453 122.472 25.0205 123.804 25.395C136.287 28.9734 116.688 44.0778 112.361 46.1167" stroke="#243138" stroke-width="4" stroke-miterlimit="10" stroke-linecap="round" stroke-linejoin="round"/>
<path d="M94.0942 58.5164C94.0942 58.558 94.6352 58.0587 94.6768 57.9755C95.1345 57.5178 95.6338 57.0601 96.0915 56.6023C97.4231 55.3124 98.8794 54.1058 100.336 52.9407" stroke="white" stroke-width="4" stroke-miterlimit="10" stroke-linecap="round" stroke-linejoin="round"/>
<path opacity="0.9116" fill-rule="evenodd" clip-rule="evenodd" d="M100.794 48.7383C100.753 48.3638 91.2239 49.1544 90.7661 49.2792C89.185 49.6953 87.6038 50.5275 86.6052 51.859C84.1918 55.2294 84.5663 62.3031 90.2253 60.5139C90.5582 60.389 94.095 58.3918 94.0117 58.3502C93.8453 58.2254 92.5971 59.8065 92.5138 59.8897C90.5998 62.4695 87.7703 68.9607 91.9312 70.958C103.499 76.6169 108.242 56.2281 103.208 49.0295" fill="#6FCF97"/>
<path d="M100.794 48.7383C100.753 48.3638 91.2239 49.1544 90.7661 49.2792C89.185 49.6953 87.6038 50.5275 86.6052 51.859C84.1918 55.2294 84.5663 62.3031 90.2253 60.5139C90.5582 60.389 94.095 58.3918 94.0117 58.3502C93.8453 58.2254 92.5971 59.8065 92.5138 59.8897C90.5998 62.4695 87.7703 68.9607 91.9312 70.958C103.499 76.6169 108.242 56.2281 103.208 49.0295" stroke="#243138" stroke-width="4" stroke-miterlimit="10" stroke-linecap="round" stroke-linejoin="round"/>
<path d="M77.5753 221.17C77.3672 221.669 83.1926 219.796 83.6919 219.63C86.3133 218.715 93.2622 214.845 96.0917 216.426C97.1735 217.009 87.0624 223.375 88.4355 224.79C90.8905 227.328 104.622 218.548 108.949 221.461C110.905 222.792 108.325 225.331 107.368 226.371C104.289 229.575 100.253 231.947 97.3816 235.359C92.0139 241.766 103.165 239.311 105.912 240.227" stroke="#243138" stroke-width="4" stroke-miterlimit="10" stroke-linecap="round" stroke-linejoin="round"/>
<path d="M154.553 134.413C154.553 134.122 158.922 132.166 161.71 131.25C169.533 128.629 177.938 127.672 186.135 127.755" stroke="#243138" stroke-width="4" stroke-miterlimit="10" stroke-linecap="round" stroke-linejoin="round"/>
<path d="M160.045 138.491C169.116 137.492 177.522 137.367 186.509 139.448" stroke="#243138" stroke-width="4" stroke-miterlimit="10" stroke-linecap="round" stroke-linejoin="round"/>
<path d="M157.84 144.982C159.213 145.315 161.003 144.982 162.459 145.315C168.284 146.522 173.61 149.309 178.396 152.805" stroke="#243138" stroke-width="4" stroke-miterlimit="10" stroke-linecap="round" stroke-linejoin="round"/>
<path d="M93.8028 107.949C93.8444 107.949 93.7196 107.242 93.7196 107.117C93.5531 106.035 93.3867 104.995 93.1371 103.954C92.5545 101.499 91.7639 99.1277 90.7652 96.7975C87.9358 89.9735 84.0661 84.0649 79.1978 78.5308" stroke="#243138" stroke-width="4" stroke-miterlimit="10" stroke-linecap="round" stroke-linejoin="round"/>
<path d="M84.3571 107.866C84.7316 107.949 83.8578 107.241 83.6498 106.909C83.3169 106.409 82.984 105.91 82.6095 105.411C81.5277 103.871 80.2377 102.415 78.9478 101C75.7855 97.588 70.1265 90.9304 64.9253 90.9304" stroke="#243138" stroke-width="4" stroke-miterlimit="10" stroke-linecap="round" stroke-linejoin="round"/>
<path d="M82.0689 118.976C82.0689 119.017 80.5709 118.684 80.4877 118.684C79.0313 118.518 77.5334 118.56 76.0771 118.684C71.5 119.101 66.8812 120.182 62.5122 121.472" stroke="#243138" stroke-width="4" stroke-miterlimit="10" stroke-linecap="round" stroke-linejoin="round"/>
</svg>
