<svg width="24" height="24" viewBox="0 0 24 24" fill="none" xmlns="http://www.w3.org/2000/svg">
<path d="M8.31818 3C5.38602 3 3 5.38602 3 8.31818V15.6818C3 18.614 5.38602 21 8.31818 21H15.6818C18.614 21 21 18.614 21 15.6818V8.31818C21 5.38602 18.614 3 15.6818 3H8.31818ZM8.31818 3.81818H15.6818C18.1717 3.81818 20.1818 5.82826 20.1818 8.31818V15.6818C20.1818 18.1717 18.1717 20.1818 15.6818 20.1818H8.31818C5.82826 20.1818 3.81818 18.1717 3.81818 15.6818V8.31818C3.81818 5.82826 5.82826 3.81818 8.31818 3.81818ZM16.9091 6.27273C16.6921 6.27273 16.484 6.35893 16.3305 6.51237C16.1771 6.66581 16.0909 6.87391 16.0909 7.09091C16.0909 7.3079 16.1771 7.51601 16.3305 7.66945C16.484 7.82289 16.6921 7.90909 16.9091 7.90909C17.1261 7.90909 17.3342 7.82289 17.4876 7.66945C17.6411 7.51601 17.7273 7.3079 17.7273 7.09091C17.7273 6.87391 17.6411 6.66581 17.4876 6.51237C17.3342 6.35893 17.1261 6.27273 16.9091 6.27273ZM12 7.5C9.51956 7.5 7.5 9.51956 7.5 12C7.5 14.4804 9.51956 16.5 12 16.5C14.4804 16.5 16.5 14.4804 16.5 12C16.5 9.51956 14.4804 7.5 12 7.5ZM12 8.31818C14.0383 8.31818 15.6818 9.96174 15.6818 12C15.6818 14.0383 14.0383 15.6818 12 15.6818C9.96174 15.6818 8.31818 14.0383 8.31818 12C8.31818 9.96174 9.96174 8.31818 12 8.31818Z" fill="#243138" stroke="#243138"/>
</svg>
