<svg width="24" height="24" viewBox="0 0 24 24" fill="none" xmlns="http://www.w3.org/2000/svg">
<path d="M4.12713 17.7518C4.24584 18.7096 5.01639 19.4644 5.97649 19.5632C7.91206 19.7622 9.92843 19.9999 12.0001 19.9999C14.0717 19.9999 16.0881 19.7622 18.0236 19.5632C18.9837 19.4644 19.7543 18.7096 19.873 17.7518C20.0824 16.0617 20.3157 14.3041 20.3157 12.4999C20.3157 10.6957 20.0824 8.93816 19.873 7.24806C19.7543 6.29023 18.9837 5.53547 18.0236 5.43671C16.0881 5.23762 14.0717 5 12.0001 5C9.92843 5 7.91206 5.23762 5.97649 5.43671C5.01639 5.53547 4.24584 6.29023 4.12713 7.24806C3.91767 8.93816 3.68445 10.6957 3.68445 12.4999C3.68445 14.3041 3.91767 16.0617 4.12713 17.7518Z" stroke="#243138" stroke-width="2" stroke-linejoin="round"/>
<path d="M10.7616 12.7054L10.1424 13.4907L10.7616 12.7054ZM3.47703 8.23522L10.1424 13.4907L11.3808 11.9201L4.71535 6.66468L3.47703 8.23522ZM19.2845 6.66468L12.6191 11.9201L13.8574 13.4907L20.5228 8.23522L19.2845 6.66468ZM10.1424 13.4907C11.2318 14.3496 12.768 14.3496 13.8574 13.4907L12.6191 11.9201C12.2559 12.2065 11.7439 12.2065 11.3808 11.9201L10.1424 13.4907Z" fill="#243138"/>
</svg>
