<svg width="24" height="24" viewBox="0 0 24 24" fill="none" xmlns="http://www.w3.org/2000/svg">
<path d="M12.5939 21.5014L13.2531 22.2534L12.5939 21.5014ZM11.4064 21.5014L12.0656 20.7494L11.4064 21.5014ZM18.0001 10.2915C18.0001 12.5626 16.9498 14.791 15.613 16.6905C14.2857 18.5765 12.748 20.0364 11.9347 20.7494L13.2531 22.2534C14.1299 21.4847 15.7953 19.9066 17.2486 17.8415C18.6924 15.7899 20.0001 13.1542 20.0001 10.2915H18.0001ZM12.0656 20.7494C11.2522 20.0364 9.71451 18.5765 8.38721 16.6905C7.05044 14.791 6.00012 12.5626 6.00012 10.2915H4.00012C4.00012 13.1542 5.30783 15.7899 6.75164 17.8415C8.20493 19.9066 9.87033 21.4847 10.7472 22.2534L12.0656 20.7494ZM6.00012 10.2915C6.00012 6.77795 8.72447 4 12.0001 4V2C7.54378 2 4.00012 5.75107 4.00012 10.2915H6.00012ZM12.0001 4C15.2758 4 18.0001 6.77795 18.0001 10.2915H20.0001C20.0001 5.75107 16.4565 2 12.0001 2V4ZM11.9347 20.7494C11.9457 20.7398 11.9695 20.7279 12.0001 20.7279C12.0308 20.7279 12.0546 20.7398 12.0656 20.7494L10.7472 22.2534C11.4689 22.8861 12.5314 22.8861 13.2531 22.2534L11.9347 20.7494Z" fill="#243138"/>
<path d="M12.0001 13C13.657 13 15.0001 11.6569 15.0001 10C15.0001 8.34315 13.657 7 12.0001 7C10.3433 7 9.00012 8.34315 9.00012 10C9.00012 11.6569 10.3433 13 12.0001 13Z" fill="white" stroke="#243138" stroke-width="2" stroke-linecap="round" stroke-linejoin="round"/>
</svg>
