<svg width="24" height="24" viewBox="0 0 24 24" fill="none" xmlns="http://www.w3.org/2000/svg">
<path d="M5.07529 4.92208L4.29421 4.29766L5.07529 4.92208ZM5.08323 11.1119L5.86155 10.4841L5.86155 10.4841L5.08323 11.1119ZM12.4233 18.452L11.7955 19.2304L12.4233 18.452ZM18.6132 18.46L17.9888 17.6789L18.6132 18.46ZM15.288 12.7479L14.7772 13.6076C15.16 13.835 15.6471 13.782 15.972 13.4774L15.288 12.7479ZM10.7874 8.24726L10.0579 7.56332C9.7533 7.88818 9.70024 8.37529 9.92772 8.7581L10.7874 8.24726ZM17.8621 11.8566L18.5897 11.1707L17.8621 11.8566ZM20.3184 17.182L19.6895 16.4045L20.3184 17.182ZM11.6828 5.67106L11.0013 6.40284L11.6828 5.67106ZM8.69745 3.01064L8.07807 3.79573L8.69745 3.01064ZM5.86155 10.4841C4.71293 9.06022 4.71128 6.97891 5.85638 5.54651L4.29421 4.29766C2.56606 6.45939 2.56442 9.58227 4.30492 11.7398L5.86155 10.4841ZM9.22474 14.3105C8.01331 13.0991 6.92189 11.7985 5.86155 10.4841L4.30492 11.7398C5.37737 13.0692 6.52216 14.4364 7.81053 15.7247L9.22474 14.3105ZM13.0512 17.6737C11.7368 16.6134 10.4362 15.522 9.22474 14.3105L7.81053 15.7247C9.0989 17.0131 10.466 18.1579 11.7955 19.2304L13.0512 17.6737ZM17.9888 17.6789C16.5564 18.824 14.4751 18.8223 13.0512 17.6737L11.7955 19.2304C13.953 20.9709 17.0759 20.9692 19.2376 19.2411L17.9888 17.6789ZM5.85638 5.54651C6.21676 5.09571 6.45295 4.77289 6.64295 4.50809C6.83614 4.23886 6.95678 4.06535 7.11373 3.86901L5.5515 2.62023C5.3529 2.86867 5.19134 3.10052 5.01798 3.34213C4.84144 3.58817 4.62674 3.88169 4.29421 4.29766L5.85638 5.54651ZM12.3644 4.93928C11.4186 4.05845 10.3973 3.07798 9.31684 2.22555L8.07807 3.79573C9.07679 4.58366 10.0208 5.48968 11.0013 6.40284L12.3644 4.93928ZM10.9829 6.48345C10.6964 6.8337 10.6863 6.89299 10.0579 7.56332L11.5169 8.93121C12.2069 8.19523 12.2929 8.04077 12.5311 7.74954L10.9829 6.48345ZM9.92772 8.7581C11.2113 10.9182 12.5764 12.2998 14.7772 13.6076L15.7989 11.8882C13.8884 10.753 12.7619 9.61252 11.6471 7.73643L9.92772 8.7581ZM15.972 13.4774C16.6385 12.8525 16.6992 12.8407 17.0446 12.5587L15.7797 11.0095C15.4909 11.2453 15.3369 11.3313 14.6041 12.0183L15.972 13.4774ZM21.3723 14.2867C20.5161 13.1637 19.4793 12.1142 18.5897 11.1707L17.1345 12.5426C18.0732 13.5383 19.0073 14.4834 19.7817 15.4993L21.3723 14.2867ZM19.6895 16.4045C19.4886 16.567 19.3154 16.6874 19.0453 16.8803C18.7784 17.0711 18.4518 17.3087 17.9888 17.6789L19.2376 19.2411C19.664 18.9002 19.96 18.6849 20.2082 18.5075C20.4534 18.3323 20.688 18.1692 20.9473 17.9594L19.6895 16.4045ZM17.0446 12.5587C17.0675 12.54 17.0924 12.5337 17.1116 12.5346C17.1206 12.535 17.126 12.5368 17.1282 12.5379C17.1298 12.5385 17.1315 12.5394 17.1345 12.5426L18.5897 11.1707C17.8209 10.3551 16.5887 10.3489 15.7797 11.0095L17.0446 12.5587ZM19.7817 15.4993C20.0073 15.7952 19.9502 16.1936 19.6895 16.4045L20.9473 17.9594C22.0778 17.0449 22.2316 15.4139 21.3723 14.2867L19.7817 15.4993ZM11.0013 6.40284C11.0037 6.4051 11.0038 6.40573 11.0039 6.40596C11.0044 6.40697 11.006 6.41118 11.0064 6.4192C11.0072 6.43654 11.0014 6.46074 10.9829 6.48345L12.5311 7.74954C13.1911 6.94242 13.1887 5.707 12.3644 4.93928L11.0013 6.40284ZM7.11373 3.86901C7.3239 3.60608 7.75007 3.53696 8.07807 3.79573L9.31684 2.22555C8.19 1.33655 6.49838 1.43568 5.5515 2.62023L7.11373 3.86901Z" fill="#243138"/>
</svg>
