<svg width="24" height="24" viewBox="0 0 24 24" fill="none" xmlns="http://www.w3.org/2000/svg">
<path d="M20.82 3.0014C20.5985 3.01155 20.3828 3.07596 20.1884 3.1573C19.9959 3.2381 18.8877 3.73217 17.2513 4.46301C15.6149 5.19385 13.4877 6.14555 11.3791 7.08926C7.16177 8.97668 3.01753 10.8338 3.01753 10.8338C3.01753 10.8338 2.79761 10.909 2.54402 11.0936C2.41723 11.1859 2.28081 11.305 2.16912 11.4787C2.05743 11.6524 1.97577 11.8986 2.00655 12.159C2.11463 13.0735 3.02198 13.3329 3.02198 13.3329L3.02553 13.3347L7.07482 14.7824C7.17806 15.1422 8.30298 19.0642 8.55044 19.8948C8.6871 20.354 8.81501 20.6189 8.94844 20.7996C9.0152 20.8901 9.08517 20.96 9.16254 21.0112C9.19328 21.0315 9.22561 21.0468 9.2576 21.0604H9.25937C9.2633 21.0622 9.267 21.0624 9.27092 21.0641L9.26026 21.0613C9.26769 21.0645 9.27503 21.0697 9.28247 21.0725C9.29691 21.0777 9.30575 21.0776 9.32423 21.0817C9.78797 21.2509 10.1718 20.937 10.1718 20.937L10.1877 20.924L12.6752 18.5139L16.7121 21.8019L16.7627 21.826C17.4693 22.1537 18.1083 21.9709 18.4622 21.6701C18.8161 21.3693 18.9553 20.9815 18.9553 20.9815L18.9704 20.9407L21.9367 4.79059C22.0126 4.42928 22.0234 4.11696 21.9518 3.83475C21.8802 3.55253 21.7063 3.3072 21.4881 3.17122C21.2698 3.03524 21.0415 2.99125 20.82 3.0014ZM20.844 3.96745C20.934 3.9631 21.0007 3.97384 21.0217 3.98694C21.0427 4.00004 21.0521 3.99831 21.0723 4.07788C21.0925 4.15746 21.1034 4.32506 21.0483 4.58736L21.0465 4.59293L18.0971 20.6493C18.0901 20.6655 18.0286 20.814 17.8883 20.9333C17.7452 21.0549 17.5859 21.1499 17.1634 20.9648L12.749 17.3688L12.6246 17.2667L12.6219 17.2695L11.3018 16.2348L18.7207 7.11711C18.7777 7.04723 18.8142 6.96159 18.8256 6.87056C18.837 6.77953 18.8229 6.68699 18.785 6.60414C18.7471 6.52129 18.6871 6.45168 18.6122 6.40371C18.5372 6.35575 18.4506 6.33149 18.3627 6.33387C18.2769 6.3362 18.1934 6.36387 18.122 6.41368L7.38664 13.8897L3.33114 12.4392C3.33114 12.4392 2.92843 12.2051 2.90915 12.042C2.90808 12.033 2.90333 12.0412 2.92425 12.0086C2.94518 11.9761 2.99778 11.9211 3.06373 11.8731C3.19563 11.7771 3.34624 11.7191 3.34624 11.7191L3.36134 11.7135L3.37645 11.707C3.37645 11.707 7.52089 9.84984 11.738 7.96252C13.8465 7.01886 15.9734 6.06785 17.6094 5.33719C19.2449 4.60672 20.4268 4.08093 20.5268 4.03891C20.6408 3.99125 20.754 3.9718 20.844 3.96745ZM15.9241 9.08633L10.2979 16.0009L10.2952 16.0037C10.2865 16.0147 10.2782 16.0262 10.2704 16.038C10.2614 16.0509 10.2531 16.0642 10.2455 16.0779C10.2139 16.134 10.1936 16.1962 10.186 16.2607V16.2645L9.45304 19.7074C9.44086 19.6702 9.43233 19.6566 9.41928 19.6127C9.18649 18.8314 8.12515 15.1316 7.97831 14.62L15.9241 9.08633ZM10.9331 17.134L11.9441 17.9265L10.4587 19.3649L10.9331 17.134Z" fill="#243138" stroke="#243138"/>
</svg>
