<svg width="24" height="24" viewBox="0 0 24 24" fill="none" xmlns="http://www.w3.org/2000/svg">
<path d="M6.38652 7.23869C6.94487 8.6788 7.65249 10.0366 8.58449 11.2555C8.7081 11.4177 8.86392 11.5619 9.02807 11.6793C9.26783 11.8513 9.49404 11.7908 9.59153 11.5044C9.69464 11.2038 9.78927 10.5946 9.79489 10.2789C9.81028 9.45411 9.79259 8.91357 9.75016 8.08977C9.72265 7.56214 9.54307 7.09886 8.79996 6.95902C8.57048 6.91566 8.54916 6.71838 8.6966 6.52157C9.00353 6.11184 9.43111 6.04654 9.89478 6.0207C10.6463 5.9783 11.4005 6.0129 12.1529 6.0207C12.4594 6.02363 12.7677 6.04942 13.0695 6.11814C13.4632 6.20778 13.674 6.49621 13.7389 6.89762C13.7725 7.10468 13.7898 7.31755 13.7851 7.52706C13.7655 8.42737 13.724 9.3272 13.7142 10.227C13.71 10.5802 13.7347 10.9422 13.807 11.2862C13.9082 11.7655 14.2207 11.8859 14.5403 11.5395C14.9461 11.0996 15.3039 10.6046 15.6397 10.1019C16.2498 9.18742 16.7055 8.18385 17.0978 7.1491C17.3007 6.61517 17.4561 6.4992 18.006 6.49776C19.0397 6.4953 20.0734 6.49434 21.107 6.49776C21.2904 6.49872 21.4821 6.51677 21.6551 6.57427C21.9359 6.66782 22.0474 6.90702 21.9816 7.21055C21.8282 7.92185 21.4601 8.52642 21.066 9.10765C20.4335 10.0401 19.7706 10.9502 19.1232 11.8719C19.0407 11.9893 18.9679 12.1145 18.9002 12.2416C18.6581 12.6986 18.6749 12.9549 19.028 13.3353C19.5901 13.9409 20.1919 14.5075 20.7362 15.1296C21.1318 15.5822 21.4979 16.0733 21.8114 16.5902C22.2079 17.2439 21.963 17.8597 21.2223 17.9693C20.7563 18.0381 18.4801 17.9699 18.3624 17.9693C17.7505 17.9665 17.214 17.7448 16.7821 17.3107C16.3016 16.8274 15.865 16.2973 15.4037 15.7931C15.2647 15.6411 15.1163 15.4954 14.9564 15.3683C14.579 15.0677 14.2086 15.1344 14.0323 15.5973C13.8816 15.9948 13.7515 17.0388 13.7454 17.128C13.7137 17.5942 13.4296 17.8914 12.9296 17.9201C11.4859 18.002 10.0869 17.8339 8.78371 17.1046C7.67912 16.4868 6.79708 15.6133 6.03301 14.5947C4.81929 12.9766 3.86061 11.1981 2.98536 9.3673C2.94062 9.2737 2.05413 7.30351 2.0303 7.21045C1.95112 6.89885 2.02499 6.60118 2.27707 6.49872C2.43422 6.43486 5.35703 6.49851 5.40565 6.50123C5.87203 6.52761 6.19006 6.73312 6.38652 7.23869Z" stroke="#243138" stroke-width="2"/>
</svg>
