<svg width="24" height="24" fill="none" xmlns="http://www.w3.org/2000/svg"><path d="M8.318 3A5.325 5.325 0 003 8.318v7.364A5.325 5.325 0 008.318 21h7.364A5.325 5.325 0 0021 15.682V8.318A5.325 5.325 0 0015.682 3H8.318zm0 .818h7.364c2.49 0 4.5 2.01 4.5 4.5v7.364c0 2.49-2.01 4.5-4.5 4.5H8.318c-2.49 0-4.5-2.01-4.5-4.5V8.318c0-2.49 2.01-4.5 4.5-4.5zm8.591 2.455a.818.818 0 100 1.637.818.818 0 000-1.637zM12 7.5c-2.48 0-4.5 2.02-4.5 4.5s2.02 4.5 4.5 4.5 4.5-2.02 4.5-4.5-2.02-4.5-4.5-4.5zm0 .818A3.676 3.676 0 0115.682 12 3.676 3.676 0 0112 15.682 3.676 3.676 0 018.318 12 3.676 3.676 0 0112 8.318z" fill="#243138" stroke="#243138"/></svg>