<svg width="24" height="24" fill="none" xmlns="http://www.w3.org/2000/svg"><path d="M5.075 4.922l-.78-.624.78.624zm.008 6.19l.779-.628-.779.628zm7.34 7.34l-.627.778.627-.778zm6.19.008l-.624-.781.624.781zm-3.325-5.712l-.51.86a1 1 0 001.194-.13l-.684-.73zm-4.5-4.5l-.73-.685a1 1 0 00-.13 1.195l.86-.51zm7.074 3.609l.728-.686-.728.686zm2.456 5.325l-.629-.777.63.777zm-8.635-11.51l-.682.73.682-.73zM8.697 3.01l-.619.785.62-.785zm-2.835 7.473c-1.15-1.424-1.15-3.505-.006-4.937l-1.562-1.25c-1.728 2.162-1.73 5.285.01 7.443l1.558-1.256zm3.363 3.826C8.013 13.1 6.922 11.8 5.862 10.484L4.305 11.74c1.072 1.33 2.217 2.696 3.506 3.985l1.414-1.415zm3.826 3.364c-1.314-1.06-2.615-2.152-3.826-3.364L7.81 15.726c1.288 1.288 2.655 2.433 3.985 3.505l1.255-1.556zm4.938.005c-1.433 1.145-3.514 1.143-4.938-.005l-1.255 1.556c2.157 1.74 5.28 1.74 7.442.011l-1.25-1.562zM5.856 5.547c.36-.451.597-.774.787-1.039.193-.27.314-.443.47-.639L5.552 2.62c-.198.249-.36.48-.533.722-.177.246-.391.54-.724.956l1.562 1.249zm6.508-.608c-.945-.88-1.967-1.861-3.047-2.713l-1.239 1.57c.999.788 1.943 1.694 2.923 2.607l1.363-1.464zm-1.381 1.544c-.287.35-.297.41-.925 1.08l1.459 1.368c.69-.736.776-.89 1.014-1.181l-1.548-1.267zM9.928 8.758c1.283 2.16 2.648 3.542 4.85 4.85l1.02-1.72c-1.91-1.135-3.036-2.275-4.15-4.152l-1.72 1.022zm6.044 4.72c.667-.626.727-.637 1.073-.92L15.78 11.01c-.29.236-.443.322-1.176 1.01l1.368 1.458zm5.4.809c-.856-1.123-1.893-2.173-2.782-3.116l-1.456 1.372c.94.995 1.873 1.94 2.648 2.956l1.59-1.212zm-1.683 2.117c-.2.163-.374.283-.644.476-.267.191-.593.429-1.056.799l1.249 1.562c.426-.34.722-.556.97-.733.245-.176.48-.339.74-.549l-1.259-1.555zm-2.644-3.845a.1.1 0 01.067-.024c.009 0 .014.002.016.003.002 0 .003.001.006.005l1.456-1.372c-.77-.816-2.001-.822-2.81-.162l1.265 1.55zm2.737 2.94a.652.652 0 01-.093.905l1.258 1.555c1.13-.914 1.285-2.545.425-3.672l-1.59 1.212zm-8.78-9.096l.002.003c0 .001.002.005.002.013a.097.097 0 01-.023.064L12.53 7.75c.66-.808.658-2.043-.167-2.81L11 6.403zM7.113 3.869c.21-.263.636-.332.964-.073l1.239-1.57c-1.127-.89-2.819-.79-3.766.394l1.564 1.25z" fill="#243138"/></svg>