<svg width="24" height="24" fill="none" xmlns="http://www.w3.org/2000/svg"><path d="M20.82 3.001a1.88 1.88 0 00-.632.156c-.192.081-1.3.575-2.937 1.306-1.636.73-3.763 1.683-5.872 2.626l-8.361 3.745s-.22.075-.474.26a1.43 1.43 0 00-.375.385 1.05 1.05 0 00-.162.68c.108.914 1.015 1.174 1.015 1.174l.004.002 4.049 1.447c.103.36 1.228 4.282 1.475 5.113.137.459.265.724.398.905.067.09.137.16.215.211.03.02.063.036.095.05h.001l.012.003-.01-.003.021.012c.015.005.024.005.042.009.464.169.848-.145.848-.145l.016-.013 2.487-2.41 4.037 3.288.05.024c.707.328 1.346.145 1.7-.156.354-.3.493-.689.493-.689l.015-.04 2.967-16.15c.076-.362.086-.674.015-.956a1.108 1.108 0 00-.464-.664 1.138 1.138 0 00-.668-.17zm.024.966a.4.4 0 01.178.02c.02.013.03.011.05.09.02.08.031.248-.024.51l-.001.006-2.95 16.056a.781.781 0 01-.209.284c-.143.122-.302.217-.725.032l-4.414-3.596-.124-.102-.003.003-1.32-1.035 7.419-9.118a.486.486 0 00.064-.513.469.469 0 00-.173-.2.44.44 0 00-.49.01L7.387 13.89 3.33 12.44s-.403-.235-.422-.398c0-.009-.006 0 .015-.033a.61.61 0 01.14-.136c.132-.096.282-.154.282-.154l.015-.005.015-.007S7.52 9.85 11.737 7.963l5.871-2.626c1.636-.73 2.818-1.256 2.918-1.298a.955.955 0 01.317-.072zm-4.92 5.12L10.298 16l-.003.003a.499.499 0 00-.05.074.49.49 0 00-.059.183v.004l-.733 3.442c-.012-.037-.02-.05-.034-.094a1024.25 1024.25 0 01-1.44-4.993l7.945-5.534zm-4.99 8.047l1.01.793-1.485 1.438.474-2.231z" fill="#243138" stroke="#243138"/></svg>